<svg width="272" height="173" viewBox="0 0 272 173" fill="none" xmlns="http://www.w3.org/2000/svg">
<g clip-path="url(#clip0_726_1080)">
<rect width="272" height="172.016" rx="13.4387" fill="white"/>
<rect x="0.268775" y="-3.73123" width="271.462" height="171.478" rx="11.5573" fill="url(#paint0_linear_726_1080)" stroke="white" stroke-width="0.537549"/>
<path d="M159.971 33.8657L194.94 68.8354L94.0711 171.21L47.0355 171.21L159.971 33.8657Z" fill="url(#paint1_linear_726_1080)"/>
<path d="M118.151 33.3281L153.121 68.2978L52.2517 170.672L5.21616 170.672L118.151 33.3281Z" fill="url(#paint2_linear_726_1080)"/>
<path d="M206.847 43.0039L241.817 77.9735L140.947 180.348L93.9117 180.348L206.847 43.0039Z" fill="url(#paint3_linear_726_1080)"/>
<path d="M251.464 53.2173L286.433 88.1869L185.564 190.561L138.528 190.561L251.464 53.2173Z" fill="url(#paint4_linear_726_1080)"/>
<g filter="url(#filter0_d_726_1080)">
<path d="M40.6731 114.123H38.8842V116.909H37.422V114.123H31.5391V112.832L37.3188 104.558H38.8842V112.764H40.6731V114.123ZM37.422 108.893C37.422 108.595 37.422 108.326 37.422 108.085C37.4335 107.832 37.445 107.597 37.4564 107.38C37.4679 107.162 37.4736 106.955 37.4736 106.76C37.4851 106.554 37.4966 106.359 37.508 106.175H37.4392C37.3475 106.393 37.2328 106.628 37.0952 106.881C36.9576 107.133 36.8257 107.345 36.6996 107.517L33.0184 112.764H37.422V108.893ZM51.7383 110.751C51.7383 111.749 51.6638 112.637 51.5147 113.417C51.3656 114.197 51.1248 114.862 50.7922 115.413C50.4711 115.952 50.0468 116.364 49.5193 116.651C49.0033 116.938 48.3783 117.081 47.6443 117.081C46.7269 117.081 45.9643 116.829 45.3565 116.324C44.7602 115.82 44.313 115.097 44.0148 114.157C43.7281 113.205 43.5848 112.07 43.5848 110.751C43.5848 109.421 43.7166 108.285 43.9804 107.345C44.2556 106.405 44.6914 105.688 45.2877 105.195C45.884 104.69 46.6696 104.438 47.6443 104.438C48.5618 104.438 49.3244 104.69 49.9321 105.195C50.5399 105.688 50.9929 106.405 51.2911 107.345C51.5892 108.285 51.7383 109.421 51.7383 110.751ZM45.0985 110.751C45.0985 111.875 45.1788 112.809 45.3393 113.555C45.5113 114.3 45.7808 114.862 46.1478 115.241C46.5262 115.608 47.0251 115.791 47.6443 115.791C48.2636 115.791 48.7567 115.608 49.1237 115.241C49.5021 114.874 49.7773 114.317 49.9493 113.572C50.1214 112.815 50.2074 111.875 50.2074 110.751C50.2074 109.627 50.1214 108.698 49.9493 107.964C49.7773 107.219 49.5021 106.663 49.1237 106.296C48.7567 105.917 48.2636 105.728 47.6443 105.728C47.0251 105.728 46.5262 105.917 46.1478 106.296C45.7808 106.663 45.5113 107.219 45.3393 107.964C45.1788 108.698 45.0985 109.627 45.0985 110.751ZM63.3023 110.751C63.3023 111.749 63.2278 112.637 63.0787 113.417C62.9296 114.197 62.6888 114.862 62.3563 115.413C62.0352 115.952 61.6109 116.364 61.0833 116.651C60.5673 116.938 59.9423 117.081 59.2084 117.081C58.291 117.081 57.5283 116.829 56.9206 116.324C56.3242 115.82 55.877 115.097 55.5788 114.157C55.2921 113.205 55.1488 112.07 55.1488 110.751C55.1488 109.421 55.2807 108.285 55.5444 107.345C55.8197 106.405 56.2554 105.688 56.8518 105.195C57.4481 104.69 58.2336 104.438 59.2084 104.438C60.1258 104.438 60.8884 104.69 61.4962 105.195C62.104 105.688 62.5569 106.405 62.8551 107.345C63.1533 108.285 63.3023 109.421 63.3023 110.751ZM56.6625 110.751C56.6625 111.875 56.7428 112.809 56.9034 113.555C57.0754 114.3 57.3449 114.862 57.7118 115.241C58.0903 115.608 58.5891 115.791 59.2084 115.791C59.8276 115.791 60.3207 115.608 60.6877 115.241C61.0661 114.874 61.3414 114.317 61.5134 113.572C61.6854 112.815 61.7714 111.875 61.7714 110.751C61.7714 109.627 61.6854 108.698 61.5134 107.964C61.3414 107.219 61.0661 106.663 60.6877 106.296C60.3207 105.917 59.8276 105.728 59.2084 105.728C58.5891 105.728 58.0903 105.917 57.7118 106.296C57.3449 106.663 57.0754 107.219 56.9034 107.964C56.7428 108.698 56.6625 109.627 56.6625 110.751ZM74.8664 110.751C74.8664 111.749 74.7918 112.637 74.6428 113.417C74.4937 114.197 74.2529 114.862 73.9203 115.413C73.5992 115.952 73.1749 116.364 72.6474 116.651C72.1313 116.938 71.5063 117.081 70.7724 117.081C69.855 117.081 69.0924 116.829 68.4846 116.324C67.8883 115.82 67.441 115.097 67.1429 114.157C66.8562 113.205 66.7128 112.07 66.7128 110.751C66.7128 109.421 66.8447 108.285 67.1085 107.345C67.3837 106.405 67.8195 105.688 68.4158 105.195C69.0121 104.69 69.7976 104.438 70.7724 104.438C71.6898 104.438 72.4524 104.69 73.0602 105.195C73.668 105.688 74.121 106.405 74.4191 107.345C74.7173 108.285 74.8664 109.421 74.8664 110.751ZM68.2266 110.751C68.2266 111.875 68.3068 112.809 68.4674 113.555C68.6394 114.3 68.9089 114.862 69.2759 115.241C69.6543 115.608 70.1531 115.791 70.7724 115.791C71.3917 115.791 71.8848 115.608 72.2517 115.241C72.6302 114.874 72.9054 114.317 73.0774 113.572C73.2494 112.815 73.3354 111.875 73.3354 110.751C73.3354 109.627 73.2494 108.698 73.0774 107.964C72.9054 107.219 72.6302 106.663 72.2517 106.296C71.8848 105.917 71.3917 105.728 70.7724 105.728C70.1531 105.728 69.6543 105.917 69.2759 106.296C68.9089 106.663 68.6394 107.219 68.4674 107.964C68.3068 108.698 68.2266 109.627 68.2266 110.751ZM95.6824 116.909H94.2031V108.326C94.2031 107.993 94.2031 107.712 94.2031 107.483C94.2146 107.253 94.226 107.041 94.2375 106.846C94.249 106.64 94.2604 106.428 94.2719 106.21C94.0884 106.393 93.9221 106.548 93.7731 106.674C93.624 106.8 93.4348 106.961 93.2054 107.156L91.8981 108.222L91.1068 107.207L94.4267 104.627H95.6824V116.909ZM110.085 116.909H101.966V115.653L105.182 112.402C105.802 111.783 106.323 111.233 106.748 110.751C107.172 110.269 107.493 109.799 107.711 109.34C107.929 108.87 108.038 108.36 108.038 107.81C108.038 107.133 107.837 106.623 107.436 106.279C107.034 105.923 106.513 105.745 105.87 105.745C105.274 105.745 104.747 105.849 104.288 106.055C103.841 106.261 103.382 106.548 102.912 106.915L102.103 105.9C102.424 105.625 102.774 105.378 103.152 105.161C103.542 104.943 103.961 104.771 104.408 104.644C104.867 104.518 105.354 104.455 105.87 104.455C106.639 104.455 107.298 104.587 107.849 104.851C108.399 105.115 108.823 105.493 109.121 105.986C109.431 106.468 109.586 107.047 109.586 107.724C109.586 108.205 109.511 108.664 109.362 109.1C109.213 109.524 109.001 109.943 108.726 110.355C108.451 110.768 108.118 111.187 107.728 111.611C107.338 112.035 106.908 112.477 106.438 112.936L103.875 115.464V115.533H110.085V116.909ZM121.184 107.5C121.184 108.05 121.081 108.526 120.875 108.928C120.668 109.329 120.37 109.656 119.98 109.908C119.602 110.16 119.155 110.338 118.638 110.441V110.51C119.625 110.625 120.359 110.934 120.84 111.439C121.322 111.944 121.563 112.603 121.563 113.417C121.563 114.128 121.396 114.765 121.064 115.327C120.731 115.877 120.215 116.307 119.516 116.617C118.828 116.926 117.939 117.081 116.85 117.081C116.207 117.081 115.611 117.03 115.061 116.926C114.51 116.835 113.983 116.663 113.478 116.41V115C113.994 115.252 114.55 115.453 115.147 115.602C115.743 115.739 116.316 115.808 116.867 115.808C117.968 115.808 118.759 115.596 119.241 115.172C119.734 114.736 119.98 114.14 119.98 113.383C119.98 112.867 119.843 112.454 119.567 112.144C119.304 111.823 118.914 111.588 118.398 111.439C117.882 111.29 117.262 111.215 116.54 111.215H115.353V109.925H116.557C117.234 109.925 117.796 109.828 118.243 109.633C118.702 109.438 119.046 109.168 119.275 108.824C119.516 108.469 119.636 108.062 119.636 107.603C119.636 107.007 119.435 106.548 119.034 106.227C118.633 105.894 118.088 105.728 117.4 105.728C116.964 105.728 116.569 105.774 116.213 105.866C115.858 105.946 115.525 106.066 115.215 106.227C114.917 106.376 114.613 106.554 114.304 106.76L113.547 105.728C113.845 105.499 114.183 105.287 114.562 105.092C114.952 104.897 115.382 104.742 115.852 104.627C116.322 104.513 116.832 104.455 117.383 104.455C118.667 104.455 119.619 104.742 120.238 105.315C120.869 105.889 121.184 106.617 121.184 107.5ZM133.763 114.123H131.974V116.909H130.512V114.123H124.629V112.832L130.409 104.558H131.974V112.764H133.763V114.123ZM130.512 108.893C130.512 108.595 130.512 108.326 130.512 108.085C130.524 107.832 130.535 107.597 130.547 107.38C130.558 107.162 130.564 106.955 130.564 106.76C130.575 106.554 130.587 106.359 130.598 106.175H130.529C130.438 106.393 130.323 106.628 130.185 106.881C130.048 107.133 129.916 107.345 129.79 107.517L126.109 112.764H130.512V108.893ZM152.704 109.375C153.541 109.375 154.27 109.518 154.889 109.805C155.508 110.092 155.984 110.504 156.317 111.043C156.661 111.571 156.833 112.219 156.833 112.987C156.833 113.836 156.649 114.57 156.282 115.189C155.915 115.797 155.388 116.267 154.7 116.6C154.023 116.921 153.203 117.081 152.24 117.081C151.609 117.081 151.013 117.024 150.451 116.909C149.9 116.795 149.436 116.628 149.058 116.41V114.983C149.47 115.235 149.969 115.436 150.554 115.585C151.15 115.722 151.718 115.791 152.257 115.791C152.865 115.791 153.392 115.699 153.84 115.516C154.298 115.321 154.654 115.028 154.906 114.639C155.158 114.237 155.285 113.738 155.285 113.142C155.285 112.339 155.038 111.726 154.545 111.301C154.052 110.866 153.272 110.648 152.205 110.648C151.884 110.648 151.517 110.676 151.105 110.734C150.692 110.791 150.359 110.848 150.107 110.906L149.35 110.424L149.814 104.627H155.973V106.003H151.105L150.812 109.564C151.007 109.53 151.271 109.49 151.603 109.444C151.936 109.398 152.303 109.375 152.704 109.375ZM160.484 111.663C160.484 110.952 160.53 110.252 160.622 109.564C160.725 108.876 160.897 108.228 161.138 107.62C161.379 107.001 161.711 106.456 162.135 105.986C162.56 105.505 163.093 105.132 163.735 104.868C164.389 104.593 165.18 104.455 166.109 104.455C166.35 104.455 166.614 104.467 166.9 104.49C167.198 104.513 167.439 104.553 167.623 104.61V105.9C167.416 105.831 167.181 105.78 166.917 105.745C166.665 105.711 166.407 105.694 166.143 105.694C165.352 105.694 164.693 105.826 164.165 106.089C163.638 106.353 163.219 106.714 162.909 107.173C162.611 107.632 162.393 108.159 162.256 108.756C162.118 109.352 162.032 109.988 161.998 110.665H162.101C162.273 110.39 162.491 110.143 162.755 109.925C163.018 109.707 163.334 109.535 163.701 109.409C164.079 109.283 164.515 109.22 165.008 109.22C165.719 109.22 166.338 109.369 166.866 109.667C167.405 109.954 167.823 110.378 168.122 110.94C168.42 111.491 168.569 112.162 168.569 112.953C168.569 113.801 168.408 114.535 168.087 115.155C167.766 115.774 167.313 116.25 166.728 116.582C166.155 116.915 165.467 117.081 164.664 117.081C164.079 117.081 163.534 116.972 163.03 116.754C162.525 116.536 162.078 116.204 161.688 115.757C161.31 115.309 161.012 114.748 160.794 114.071C160.587 113.383 160.484 112.58 160.484 111.663ZM164.647 115.808C165.369 115.808 165.954 115.579 166.401 115.12C166.849 114.65 167.072 113.928 167.072 112.953C167.072 112.173 166.872 111.554 166.47 111.095C166.08 110.636 165.49 110.407 164.698 110.407C164.159 110.407 163.689 110.522 163.288 110.751C162.887 110.969 162.571 111.25 162.342 111.594C162.124 111.938 162.015 112.293 162.015 112.66C162.015 113.039 162.067 113.412 162.17 113.778C162.284 114.145 162.451 114.484 162.669 114.793C162.898 115.103 163.173 115.35 163.494 115.533C163.827 115.717 164.211 115.808 164.647 115.808ZM173.441 116.909L178.481 106.003H171.859V104.627H180.098V105.797L175.11 116.909H173.441ZM187.568 104.455C188.291 104.455 188.927 104.57 189.478 104.799C190.028 105.017 190.458 105.344 190.768 105.78C191.089 106.216 191.25 106.755 191.25 107.397C191.25 107.89 191.141 108.32 190.923 108.687C190.716 109.054 190.435 109.381 190.08 109.667C189.724 109.943 189.334 110.189 188.91 110.407C189.415 110.648 189.873 110.923 190.286 111.233C190.699 111.531 191.026 111.881 191.267 112.282C191.519 112.683 191.645 113.165 191.645 113.727C191.645 114.415 191.479 115.011 191.146 115.516C190.814 116.009 190.344 116.393 189.736 116.668C189.14 116.944 188.434 117.081 187.62 117.081C186.737 117.081 185.986 116.949 185.367 116.686C184.759 116.422 184.294 116.049 183.973 115.567C183.664 115.074 183.509 114.478 183.509 113.778C183.509 113.217 183.624 112.729 183.853 112.316C184.094 111.904 184.409 111.548 184.799 111.25C185.189 110.952 185.607 110.699 186.055 110.493C185.653 110.264 185.286 110.006 184.954 109.719C184.633 109.421 184.375 109.082 184.18 108.704C183.996 108.326 183.904 107.884 183.904 107.38C183.904 106.749 184.065 106.221 184.386 105.797C184.707 105.361 185.143 105.029 185.693 104.799C186.244 104.57 186.869 104.455 187.568 104.455ZM184.988 113.796C184.988 114.392 185.2 114.891 185.625 115.292C186.049 115.682 186.703 115.877 187.586 115.877C188.148 115.877 188.618 115.785 188.996 115.602C189.375 115.418 189.661 115.166 189.856 114.845C190.063 114.524 190.166 114.157 190.166 113.744C190.166 113.343 190.057 112.993 189.839 112.695C189.633 112.385 189.334 112.11 188.945 111.869C188.566 111.628 188.113 111.41 187.586 111.215L187.31 111.112C186.806 111.33 186.382 111.565 186.037 111.818C185.693 112.07 185.43 112.356 185.246 112.678C185.074 112.999 184.988 113.371 184.988 113.796ZM187.551 105.677C186.921 105.677 186.399 105.831 185.986 106.141C185.585 106.439 185.384 106.875 185.384 107.448C185.384 107.873 185.481 108.228 185.676 108.515C185.883 108.802 186.158 109.048 186.502 109.254C186.846 109.449 187.224 109.639 187.637 109.822C188.039 109.65 188.394 109.461 188.704 109.254C189.025 109.048 189.277 108.802 189.461 108.515C189.656 108.217 189.753 107.861 189.753 107.448C189.753 106.875 189.552 106.439 189.151 106.141C188.75 105.831 188.216 105.677 187.551 105.677ZM215.317 109.874C215.317 110.573 215.265 111.273 215.162 111.972C215.07 112.66 214.904 113.314 214.663 113.933C214.422 114.541 214.09 115.086 213.665 115.567C213.241 116.038 212.702 116.41 212.048 116.686C211.395 116.949 210.604 117.081 209.675 117.081C209.445 117.081 209.176 117.064 208.866 117.03C208.568 117.007 208.321 116.967 208.126 116.909V115.619C208.333 115.688 208.574 115.745 208.849 115.791C209.124 115.825 209.388 115.843 209.64 115.843C210.443 115.843 211.102 115.711 211.618 115.447C212.146 115.183 212.564 114.828 212.874 114.381C213.184 113.922 213.407 113.394 213.545 112.798C213.683 112.19 213.763 111.554 213.786 110.889H213.683C213.511 111.152 213.293 111.393 213.029 111.611C212.765 111.829 212.444 112.001 212.066 112.127C211.699 112.253 211.263 112.316 210.758 112.316C210.059 112.316 209.44 112.173 208.901 111.886C208.373 111.588 207.96 111.164 207.662 110.613C207.375 110.063 207.232 109.392 207.232 108.601C207.232 107.741 207.393 107.001 207.714 106.382C208.046 105.763 208.505 105.287 209.09 104.954C209.675 104.622 210.363 104.455 211.154 104.455C211.739 104.455 212.284 104.57 212.788 104.799C213.293 105.017 213.734 105.35 214.113 105.797C214.491 106.244 214.783 106.806 214.99 107.483C215.208 108.159 215.317 108.956 215.317 109.874ZM211.154 105.728C210.443 105.728 209.858 105.963 209.399 106.433C208.952 106.904 208.729 107.62 208.729 108.584C208.729 109.375 208.918 110 209.296 110.459C209.686 110.906 210.282 111.129 211.085 111.129C211.636 111.129 212.112 111.021 212.513 110.803C212.914 110.573 213.224 110.287 213.442 109.943C213.671 109.599 213.786 109.243 213.786 108.876C213.786 108.509 213.728 108.142 213.614 107.775C213.511 107.397 213.35 107.053 213.132 106.743C212.914 106.433 212.639 106.187 212.306 106.003C211.974 105.82 211.59 105.728 211.154 105.728ZM226.932 110.751C226.932 111.749 226.858 112.637 226.709 113.417C226.56 114.197 226.319 114.862 225.986 115.413C225.665 115.952 225.241 116.364 224.713 116.651C224.197 116.938 223.572 117.081 222.838 117.081C221.921 117.081 221.158 116.829 220.551 116.324C219.954 115.82 219.507 115.097 219.209 114.157C218.922 113.205 218.779 112.07 218.779 110.751C218.779 109.421 218.911 108.285 219.174 107.345C219.45 106.405 219.885 105.688 220.482 105.195C221.078 104.69 221.864 104.438 222.838 104.438C223.756 104.438 224.518 104.69 225.126 105.195C225.734 105.688 226.187 106.405 226.485 107.345C226.783 108.285 226.932 109.421 226.932 110.751ZM220.293 110.751C220.293 111.875 220.373 112.809 220.533 113.555C220.705 114.3 220.975 114.862 221.342 115.241C221.72 115.608 222.219 115.791 222.838 115.791C223.458 115.791 223.951 115.608 224.318 115.241C224.696 114.874 224.971 114.317 225.143 113.572C225.315 112.815 225.401 111.875 225.401 110.751C225.401 109.627 225.315 108.698 225.143 107.964C224.971 107.219 224.696 106.663 224.318 106.296C223.951 105.917 223.458 105.728 222.838 105.728C222.219 105.728 221.72 105.917 221.342 106.296C220.975 106.663 220.705 107.219 220.533 107.964C220.373 108.698 220.293 109.627 220.293 110.751ZM235.607 116.909H234.127V108.326C234.127 107.993 234.127 107.712 234.127 107.483C234.139 107.253 234.15 107.041 234.162 106.846C234.173 106.64 234.185 106.428 234.196 106.21C234.013 106.393 233.846 106.548 233.697 106.674C233.548 106.8 233.359 106.961 233.13 107.156L231.822 108.222L231.031 107.207L234.351 104.627H235.607V116.909ZM250.009 116.909H241.89V115.653L245.106 112.402C245.726 111.783 246.247 111.233 246.672 110.751C247.096 110.269 247.417 109.799 247.635 109.34C247.853 108.87 247.962 108.36 247.962 107.81C247.962 107.133 247.761 106.623 247.36 106.279C246.958 105.923 246.437 105.745 245.794 105.745C245.198 105.745 244.671 105.849 244.212 106.055C243.765 106.261 243.306 106.548 242.836 106.915L242.027 105.9C242.348 105.625 242.698 105.378 243.077 105.161C243.466 104.943 243.885 104.771 244.332 104.644C244.791 104.518 245.278 104.455 245.794 104.455C246.563 104.455 247.222 104.587 247.773 104.851C248.323 105.115 248.747 105.493 249.046 105.986C249.355 106.468 249.51 107.047 249.51 107.724C249.51 108.205 249.435 108.664 249.286 109.1C249.137 109.524 248.925 109.943 248.65 110.355C248.375 110.768 248.042 111.187 247.652 111.611C247.262 112.035 246.832 112.477 246.362 112.936L243.799 115.464V115.533H250.009V116.909Z" fill="white"/>
</g>
<g filter="url(#filter1_d_726_1080)">
<path d="M36.5937 147.783C36.083 147.783 35.6216 147.872 35.2095 148.051C34.7974 148.222 34.4479 148.477 34.1613 148.817C33.8746 149.149 33.6551 149.557 33.5028 150.04C33.3505 150.515 33.2743 151.053 33.2743 151.653C33.2743 152.441 33.3952 153.127 33.6371 153.709C33.888 154.292 34.2553 154.739 34.7391 155.053C35.2319 155.367 35.8456 155.523 36.5802 155.523C37.0013 155.523 37.4 155.488 37.7763 155.416C38.1526 155.344 38.5199 155.255 38.8783 155.147V156.195C38.5199 156.33 38.1481 156.428 37.7628 156.491C37.3866 156.554 36.9341 156.585 36.4055 156.585C35.429 156.585 34.6137 156.383 33.9597 155.98C33.3057 155.577 32.8129 155.004 32.4814 154.26C32.1589 153.517 31.9976 152.643 31.9976 151.64C31.9976 150.914 32.0962 150.251 32.2933 149.651C32.4993 149.05 32.795 148.531 33.1802 148.092C33.5744 147.653 34.0582 147.317 34.6316 147.084C35.205 146.842 35.8635 146.721 36.6071 146.721C37.0999 146.721 37.5747 146.77 38.0316 146.869C38.4885 146.967 38.8962 147.106 39.2545 147.285L38.7707 148.307C38.4751 148.172 38.1436 148.051 37.7763 147.944C37.4179 147.836 37.0237 147.783 36.5937 147.783ZM46.993 156.451L45.8373 153.481H42.0341L40.8919 156.451H39.6689L43.4183 146.815H44.5069L48.2428 156.451H46.993ZM44.3994 149.503C44.3725 149.431 44.3277 149.301 44.265 149.113C44.2023 148.925 44.1396 148.732 44.0768 148.535C44.0231 148.329 43.9783 148.172 43.9424 148.065C43.8977 148.244 43.8484 148.428 43.7946 148.616C43.7498 148.795 43.7006 148.961 43.6468 149.113C43.602 149.265 43.5617 149.395 43.5258 149.503L42.4373 152.406H45.4745L44.3994 149.503ZM52.2029 146.855C53.0002 146.855 53.6542 146.958 54.1649 147.165C54.6845 147.362 55.0698 147.662 55.3206 148.065C55.5715 148.468 55.6969 148.974 55.6969 149.583C55.6969 150.094 55.6029 150.52 55.4147 150.86C55.2266 151.201 54.9847 151.474 54.689 151.68C54.4023 151.877 54.0977 152.034 53.7752 152.15L56.4092 156.451H54.9981L52.6732 152.486H50.7649V156.451H49.5554V146.855H52.2029ZM52.1357 147.904H50.7649V151.465H52.2029C52.7225 151.465 53.1481 151.398 53.4795 151.263C53.811 151.12 54.0529 150.914 54.2052 150.645C54.3665 150.376 54.4471 150.04 54.4471 149.637C54.4471 149.216 54.362 148.88 54.1918 148.629C54.0305 148.378 53.7797 148.195 53.4392 148.078C53.0988 147.962 52.6643 147.904 52.1357 147.904ZM65.6022 151.559C65.6022 152.634 65.4006 153.534 64.9975 154.26C64.6033 154.986 64.0344 155.532 63.2908 155.9C62.5472 156.267 61.6468 156.451 60.5896 156.451H57.9153V146.855H60.8718C61.8394 146.855 62.6771 147.035 63.3848 147.393C64.0926 147.751 64.6391 148.28 65.0244 148.979C65.4096 149.669 65.6022 150.529 65.6022 151.559ZM64.3255 151.599C64.3255 150.748 64.1822 150.049 63.8955 149.503C63.6178 148.956 63.2056 148.553 62.6591 148.293C62.1216 148.025 61.4676 147.89 60.6971 147.89H59.1248V155.416H60.4283C61.7274 155.416 62.6995 155.098 63.3445 154.462C63.9985 153.817 64.3255 152.863 64.3255 151.599ZM75.0694 156.451H73.8599V151.976H68.9413V156.451H67.7318V146.855H68.9413V150.914H73.8599V146.855H75.0694V156.451ZM86.0651 151.64C86.0651 152.383 85.971 153.06 85.7829 153.669C85.5948 154.269 85.3125 154.789 84.9363 155.228C84.5689 155.667 84.1075 156.003 83.5521 156.236C83.0056 156.469 82.3695 156.585 81.6438 156.585C80.8912 156.585 80.2372 156.469 79.6817 156.236C79.1262 155.994 78.6648 155.658 78.2975 155.228C77.9302 154.789 77.6569 154.265 77.4778 153.655C77.2986 153.046 77.209 152.37 77.209 151.626C77.209 150.641 77.3702 149.781 77.6928 149.046C78.0153 148.311 78.5036 147.738 79.1576 147.326C79.8206 146.914 80.6538 146.708 81.6572 146.708C82.6158 146.708 83.4222 146.914 84.0762 147.326C84.7302 147.729 85.2229 148.302 85.5544 149.046C85.8949 149.781 86.0651 150.645 86.0651 151.64ZM78.4857 151.64C78.4857 152.446 78.5977 153.14 78.8216 153.723C79.0456 154.305 79.3905 154.753 79.8564 155.066C80.3313 155.38 80.927 155.537 81.6438 155.537C82.3695 155.537 82.9608 155.38 83.4177 155.066C83.8836 154.753 84.2285 154.305 84.4525 153.723C84.6764 153.14 84.7884 152.446 84.7884 151.64C84.7884 150.43 84.5376 149.485 84.0359 148.804C83.5341 148.114 82.7413 147.769 81.6572 147.769C80.9315 147.769 80.3313 147.926 79.8564 148.24C79.3905 148.544 79.0456 148.988 78.8216 149.57C78.5977 150.143 78.4857 150.833 78.4857 151.64ZM88.1918 156.451V146.855H89.4013V155.376H93.5942V156.451H88.1918ZM102.926 151.559C102.926 152.634 102.725 153.534 102.321 154.26C101.927 154.986 101.358 155.532 100.615 155.9C99.8711 156.267 98.9707 156.451 97.9136 156.451H95.2393V146.855H98.1958C99.1634 146.855 100.001 147.035 100.709 147.393C101.417 147.751 101.963 148.28 102.348 148.979C102.734 149.669 102.926 150.529 102.926 151.559ZM101.65 151.599C101.65 150.748 101.506 150.049 101.219 149.503C100.942 148.956 100.53 148.553 99.9831 148.293C99.4456 148.025 98.7916 147.89 98.0211 147.89H96.4487V155.416H97.7523C99.0514 155.416 100.023 155.098 100.669 154.462C101.323 153.817 101.65 152.863 101.65 151.599ZM110.418 156.451H105.056V146.855H110.418V147.917H106.265V150.914H110.176V151.962H106.265V155.389H110.418V156.451ZM115.171 146.855C115.968 146.855 116.622 146.958 117.133 147.165C117.652 147.362 118.038 147.662 118.288 148.065C118.539 148.468 118.665 148.974 118.665 149.583C118.665 150.094 118.571 150.52 118.383 150.86C118.194 151.201 117.952 151.474 117.657 151.68C117.37 151.877 117.066 152.034 116.743 152.15L119.377 156.451H117.966L115.641 152.486H113.733V156.451H112.523V146.855H115.171ZM115.103 147.904H113.733V151.465H115.171C115.69 151.465 116.116 151.398 116.447 151.263C116.779 151.12 117.021 150.914 117.173 150.645C117.334 150.376 117.415 150.04 117.415 149.637C117.415 149.216 117.33 148.88 117.16 148.629C116.998 148.378 116.747 148.195 116.407 148.078C116.067 147.962 115.632 147.904 115.103 147.904Z" fill="white"/>
</g>
<g filter="url(#filter2_d_726_1080)">
<path d="M114.77 133.553C114.77 134.239 114.719 134.85 114.616 135.386C114.514 135.922 114.348 136.379 114.12 136.758C113.899 137.128 113.607 137.412 113.244 137.609C112.89 137.806 112.46 137.905 111.955 137.905C111.325 137.905 110.8 137.731 110.383 137.385C109.973 137.038 109.665 136.541 109.46 135.894C109.263 135.24 109.164 134.46 109.164 133.553C109.164 132.638 109.255 131.858 109.436 131.211C109.626 130.565 109.925 130.072 110.335 129.733C110.745 129.386 111.285 129.213 111.955 129.213C112.586 129.213 113.11 129.386 113.528 129.733C113.946 130.072 114.258 130.565 114.463 131.211C114.668 131.858 114.77 132.638 114.77 133.553ZM110.205 133.553C110.205 134.326 110.26 134.968 110.371 135.481C110.489 135.993 110.674 136.379 110.927 136.639C111.187 136.892 111.53 137.018 111.955 137.018C112.381 137.018 112.72 136.892 112.972 136.639C113.233 136.387 113.422 136.005 113.54 135.492C113.658 134.972 113.717 134.326 113.717 133.553C113.717 132.78 113.658 132.142 113.54 131.637C113.422 131.125 113.233 130.742 112.972 130.49C112.72 130.23 112.381 130.1 111.955 130.1C111.53 130.1 111.187 130.23 110.927 130.49C110.674 130.742 110.489 131.125 110.371 131.637C110.26 132.142 110.205 132.78 110.205 133.553ZM119.551 137.787H118.534V131.885C118.534 131.657 118.534 131.464 118.534 131.306C118.542 131.148 118.55 131.002 118.557 130.868C118.565 130.726 118.573 130.581 118.581 130.431C118.455 130.557 118.341 130.663 118.238 130.75C118.136 130.837 118.006 130.947 117.848 131.081L116.949 131.814L116.405 131.117L118.688 129.343H119.551V137.787ZM126.401 129.343L123.256 137.787H122.239L125.384 129.343H126.401ZM132.351 131.318C132.351 131.696 132.28 132.023 132.138 132.299C131.996 132.575 131.791 132.8 131.523 132.973C131.263 133.147 130.955 133.269 130.6 133.34V133.387C131.278 133.466 131.783 133.679 132.114 134.026C132.445 134.373 132.611 134.826 132.611 135.386C132.611 135.875 132.497 136.312 132.268 136.699C132.039 137.077 131.684 137.373 131.204 137.586C130.731 137.798 130.119 137.905 129.371 137.905C128.929 137.905 128.519 137.869 128.141 137.798C127.762 137.735 127.399 137.617 127.053 137.444V136.474C127.407 136.647 127.79 136.785 128.2 136.888C128.61 136.982 129.004 137.03 129.382 137.03C130.139 137.03 130.683 136.884 131.014 136.592C131.353 136.293 131.523 135.883 131.523 135.362C131.523 135.007 131.428 134.724 131.239 134.511C131.058 134.29 130.79 134.128 130.435 134.026C130.08 133.923 129.654 133.872 129.158 133.872H128.342V132.985H129.169C129.635 132.985 130.021 132.918 130.328 132.784C130.644 132.65 130.88 132.465 131.038 132.228C131.204 131.984 131.286 131.704 131.286 131.389C131.286 130.979 131.148 130.663 130.872 130.443C130.596 130.214 130.222 130.1 129.749 130.1C129.449 130.1 129.177 130.131 128.933 130.194C128.689 130.249 128.46 130.332 128.247 130.443C128.042 130.545 127.833 130.667 127.62 130.809L127.1 130.1C127.305 129.942 127.537 129.796 127.798 129.662C128.066 129.528 128.361 129.422 128.685 129.343C129.008 129.264 129.359 129.225 129.737 129.225C130.62 129.225 131.275 129.422 131.7 129.816C132.134 130.21 132.351 130.711 132.351 131.318ZM139.473 133.553C139.473 134.239 139.422 134.85 139.319 135.386C139.217 135.922 139.051 136.379 138.823 136.758C138.602 137.128 138.31 137.412 137.948 137.609C137.593 137.806 137.163 137.905 136.659 137.905C136.028 137.905 135.504 137.731 135.086 137.385C134.676 137.038 134.368 136.541 134.163 135.894C133.966 135.24 133.868 134.46 133.868 133.553C133.868 132.638 133.958 131.858 134.14 131.211C134.329 130.565 134.628 130.072 135.038 129.733C135.448 129.386 135.988 129.213 136.659 129.213C137.289 129.213 137.814 129.386 138.231 129.733C138.649 130.072 138.961 130.565 139.166 131.211C139.371 131.858 139.473 132.638 139.473 133.553ZM134.908 133.553C134.908 134.326 134.963 134.968 135.074 135.481C135.192 135.993 135.377 136.379 135.63 136.639C135.89 136.892 136.233 137.018 136.659 137.018C137.084 137.018 137.423 136.892 137.676 136.639C137.936 136.387 138.125 136.005 138.243 135.492C138.361 134.972 138.421 134.326 138.421 133.553C138.421 132.78 138.361 132.142 138.243 131.637C138.125 131.125 137.936 130.742 137.676 130.49C137.423 130.23 137.084 130.1 136.659 130.1C136.233 130.1 135.89 130.23 135.63 130.49C135.377 130.742 135.192 131.125 135.074 131.637C134.963 132.142 134.908 132.78 134.908 133.553Z" fill="white"/>
</g>
<g filter="url(#filter3_d_726_1080)">
<path d="M220.831 137.249H219.814V131.348C219.814 131.119 219.814 130.926 219.814 130.768C219.822 130.611 219.829 130.465 219.837 130.331C219.845 130.189 219.853 130.043 219.861 129.893C219.735 130.019 219.621 130.126 219.518 130.213C219.416 130.299 219.285 130.41 219.128 130.544L218.229 131.277L217.685 130.579L219.967 128.805H220.831V137.249ZM229.55 137.249H223.968V136.386L226.179 134.151C226.605 133.725 226.964 133.346 227.255 133.015C227.547 132.684 227.768 132.361 227.918 132.046C228.067 131.722 228.142 131.371 228.142 130.993C228.142 130.528 228.004 130.177 227.728 129.941C227.453 129.696 227.094 129.574 226.652 129.574C226.242 129.574 225.88 129.645 225.564 129.787C225.257 129.929 224.941 130.126 224.618 130.378L224.062 129.68C224.283 129.491 224.524 129.322 224.784 129.172C225.052 129.022 225.34 128.904 225.647 128.817C225.962 128.73 226.297 128.687 226.652 128.687C227.181 128.687 227.634 128.778 228.012 128.959C228.391 129.14 228.682 129.4 228.887 129.739C229.1 130.071 229.207 130.469 229.207 130.934C229.207 131.265 229.155 131.58 229.053 131.88C228.95 132.172 228.805 132.459 228.615 132.743C228.426 133.027 228.198 133.315 227.929 133.607C227.661 133.898 227.366 134.202 227.043 134.517L225.28 136.256V136.303H229.55V137.249ZM235.998 130.78C235.998 131.159 235.927 131.486 235.785 131.762C235.643 132.038 235.438 132.262 235.17 132.436C234.91 132.609 234.603 132.731 234.248 132.802V132.85C234.926 132.929 235.43 133.141 235.762 133.488C236.093 133.835 236.258 134.289 236.258 134.848C236.258 135.337 236.144 135.775 235.915 136.161C235.687 136.539 235.332 136.835 234.851 137.048C234.378 137.261 233.767 137.367 233.018 137.367C232.576 137.367 232.166 137.332 231.788 137.261C231.41 137.198 231.047 137.08 230.7 136.906V135.936C231.055 136.11 231.437 136.248 231.847 136.35C232.257 136.445 232.651 136.492 233.03 136.492C233.787 136.492 234.331 136.346 234.662 136.055C235.001 135.755 235.17 135.345 235.17 134.825C235.17 134.47 235.076 134.186 234.886 133.973C234.705 133.752 234.437 133.591 234.082 133.488C233.727 133.386 233.302 133.335 232.805 133.335H231.989V132.448H232.817C233.282 132.448 233.668 132.381 233.976 132.247C234.291 132.113 234.528 131.927 234.685 131.691C234.851 131.446 234.934 131.166 234.934 130.851C234.934 130.441 234.796 130.126 234.52 129.905C234.244 129.676 233.869 129.562 233.396 129.562C233.097 129.562 232.825 129.594 232.58 129.657C232.336 129.712 232.107 129.795 231.894 129.905C231.689 130.008 231.48 130.13 231.268 130.272L230.747 129.562C230.952 129.404 231.185 129.259 231.445 129.125C231.713 128.99 232.009 128.884 232.332 128.805C232.655 128.726 233.006 128.687 233.384 128.687C234.267 128.687 234.922 128.884 235.348 129.278C235.781 129.672 235.998 130.173 235.998 130.78Z" fill="white"/>
</g>
<path d="M97.0931 130.796H97.8897V131.925C97.765 131.965 97.6392 131.996 97.5123 132.015C97.3855 132.034 97.2414 132.044 97.0802 132.044C96.8415 132.044 96.6404 131.997 96.477 131.902C96.3136 131.805 96.1889 131.669 96.1029 131.492C96.019 131.314 95.9771 131.103 95.9771 130.86C95.9771 130.619 96.0244 130.411 96.119 130.235C96.2136 130.058 96.3491 129.922 96.5254 129.825C96.7039 129.726 96.9189 129.677 97.1705 129.677C97.2995 129.677 97.421 129.688 97.5349 129.712C97.651 129.736 97.7585 129.769 97.8574 129.812L97.7478 130.064C97.6661 130.027 97.5736 129.996 97.4704 129.97C97.3694 129.944 97.264 129.931 97.1543 129.931C96.9716 129.931 96.8146 129.969 96.6834 130.044C96.5523 130.12 96.4523 130.227 96.3835 130.367C96.3147 130.504 96.2803 130.669 96.2803 130.86C96.2803 131.043 96.3093 131.205 96.3674 131.347C96.4276 131.487 96.5211 131.597 96.648 131.676C96.7748 131.754 96.9415 131.792 97.1479 131.792C97.2167 131.792 97.2769 131.79 97.3285 131.786C97.3823 131.779 97.4306 131.772 97.4736 131.763C97.5188 131.755 97.5607 131.746 97.5994 131.738V131.054H97.0931V130.796ZM100.449 130.857C100.449 131.036 100.427 131.198 100.381 131.344C100.336 131.488 100.268 131.613 100.178 131.718C100.09 131.824 99.9793 131.904 99.846 131.96C99.7148 132.016 99.5621 132.044 99.388 132.044C99.2074 132.044 99.0504 132.016 98.9171 131.96C98.7838 131.902 98.673 131.821 98.5849 131.718C98.4967 131.613 98.4311 131.487 98.3881 131.341C98.3451 131.195 98.3236 131.032 98.3236 130.854C98.3236 130.617 98.3623 130.411 98.4397 130.235C98.5171 130.058 98.6343 129.921 98.7913 129.822C98.9504 129.723 99.1504 129.673 99.3912 129.673C99.6213 129.673 99.8148 129.723 99.9718 129.822C100.129 129.919 100.247 130.056 100.327 130.235C100.408 130.411 100.449 130.618 100.449 130.857ZM98.63 130.857C98.63 131.051 98.6569 131.217 98.7107 131.357C98.7644 131.497 98.8472 131.604 98.959 131.68C99.073 131.755 99.216 131.792 99.388 131.792C99.5621 131.792 99.7041 131.755 99.8137 131.68C99.9255 131.604 100.008 131.497 100.062 131.357C100.116 131.217 100.143 131.051 100.143 130.857C100.143 130.567 100.082 130.34 99.9621 130.177C99.8417 130.011 99.6514 129.928 99.3912 129.928C99.217 129.928 99.073 129.966 98.959 130.041C98.8472 130.114 98.7644 130.221 98.7107 130.36C98.6569 130.498 98.63 130.664 98.63 130.857ZM102.969 130.857C102.969 131.036 102.946 131.198 102.901 131.344C102.856 131.488 102.788 131.613 102.698 131.718C102.61 131.824 102.499 131.904 102.366 131.96C102.235 132.016 102.082 132.044 101.908 132.044C101.727 132.044 101.57 132.016 101.437 131.96C101.304 131.902 101.193 131.821 101.105 131.718C101.016 131.613 100.951 131.487 100.908 131.341C100.865 131.195 100.843 131.032 100.843 130.854C100.843 130.617 100.882 130.411 100.96 130.235C101.037 130.058 101.154 129.921 101.311 129.822C101.47 129.723 101.67 129.673 101.911 129.673C102.141 129.673 102.335 129.723 102.492 129.822C102.648 129.919 102.767 130.056 102.846 130.235C102.928 130.411 102.969 130.618 102.969 130.857ZM101.15 130.857C101.15 131.051 101.177 131.217 101.23 131.357C101.284 131.497 101.367 131.604 101.479 131.68C101.593 131.755 101.736 131.792 101.908 131.792C102.082 131.792 102.224 131.755 102.333 131.68C102.445 131.604 102.528 131.497 102.582 131.357C102.636 131.217 102.662 131.051 102.662 130.857C102.662 130.567 102.602 130.34 102.482 130.177C102.361 130.011 102.171 129.928 101.911 129.928C101.737 129.928 101.593 129.966 101.479 130.041C101.367 130.114 101.284 130.221 101.23 130.36C101.177 130.498 101.15 130.664 101.15 130.857ZM105.324 130.838C105.324 131.096 105.276 131.312 105.179 131.486C105.084 131.66 104.948 131.791 104.769 131.879C104.591 131.968 104.375 132.012 104.121 132.012H103.479V129.709H104.189C104.421 129.709 104.622 129.752 104.792 129.838C104.962 129.924 105.093 130.051 105.185 130.218C105.278 130.384 105.324 130.59 105.324 130.838ZM105.018 130.847C105.018 130.643 104.983 130.475 104.915 130.344C104.848 130.213 104.749 130.116 104.618 130.054C104.489 129.989 104.332 129.957 104.147 129.957H103.77V131.763H104.082C104.394 131.763 104.627 131.687 104.782 131.534C104.939 131.38 105.018 131.151 105.018 130.847ZM97.8269 136.012H97.5366V133.964H96.8174V133.709H98.5429V133.964H97.8269V136.012ZM100.651 136.012H100.361V134.938H99.1804V136.012H98.8901V133.709H99.1804V134.683H100.361V133.709H100.651V136.012ZM101.916 133.709C102.108 133.709 102.264 133.734 102.387 133.783C102.512 133.83 102.604 133.902 102.664 133.999C102.725 134.096 102.755 134.217 102.755 134.364C102.755 134.486 102.732 134.588 102.687 134.67C102.642 134.752 102.584 134.817 102.513 134.867C102.444 134.914 102.371 134.952 102.294 134.98L102.926 136.012H102.587L102.029 135.06H101.571V136.012H101.281V133.709H101.916ZM101.9 133.96H101.571V134.815H101.916C102.041 134.815 102.143 134.799 102.223 134.767C102.302 134.732 102.36 134.683 102.397 134.618C102.435 134.554 102.455 134.473 102.455 134.376C102.455 134.275 102.434 134.195 102.394 134.135C102.355 134.074 102.295 134.03 102.213 134.002C102.131 133.974 102.027 133.96 101.9 133.96ZM105.038 135.199C105.038 135.358 105.006 135.502 104.942 135.631C104.877 135.758 104.778 135.859 104.645 135.934C104.514 136.007 104.346 136.044 104.142 136.044C103.856 136.044 103.638 135.967 103.487 135.812C103.339 135.655 103.265 135.448 103.265 135.192V133.709H103.555V135.202C103.555 135.389 103.604 135.534 103.703 135.638C103.804 135.741 103.956 135.792 104.158 135.792C104.298 135.792 104.411 135.768 104.497 135.718C104.585 135.667 104.649 135.597 104.69 135.509C104.731 135.418 104.751 135.315 104.751 135.199V133.709H105.038V135.199Z" fill="white"/>
<path d="M207.454 130.394C207.331 130.394 207.22 130.416 207.121 130.459C207.023 130.5 206.939 130.561 206.87 130.643C206.801 130.722 206.748 130.82 206.712 130.936C206.675 131.05 206.657 131.179 206.657 131.323C206.657 131.512 206.686 131.677 206.744 131.817C206.804 131.956 206.892 132.064 207.009 132.139C207.127 132.214 207.274 132.252 207.45 132.252C207.552 132.252 207.647 132.243 207.738 132.226C207.828 132.209 207.916 132.188 208.002 132.162V132.413C207.916 132.446 207.827 132.469 207.734 132.484C207.644 132.499 207.535 132.507 207.409 132.507C207.174 132.507 206.979 132.458 206.822 132.362C206.665 132.265 206.546 132.127 206.467 131.949C206.389 131.77 206.351 131.561 206.351 131.32C206.351 131.146 206.374 130.987 206.422 130.843C206.471 130.699 206.542 130.574 206.634 130.468C206.729 130.363 206.845 130.282 206.983 130.227C207.12 130.169 207.278 130.139 207.457 130.139C207.575 130.139 207.689 130.151 207.799 130.175C207.908 130.199 208.006 130.232 208.092 130.275L207.976 130.52C207.905 130.488 207.826 130.459 207.738 130.433C207.652 130.407 207.557 130.394 207.454 130.394ZM210.127 130.172L209.304 132.475H209.014L208.192 130.172H208.495L209.014 131.649C209.038 131.711 209.058 131.771 209.075 131.83C209.093 131.888 209.108 131.944 209.121 131.997C209.136 132.049 209.149 132.1 209.159 132.152C209.17 132.1 209.182 132.048 209.195 131.994C209.21 131.94 209.226 131.884 209.243 131.826C209.263 131.768 209.283 131.707 209.304 131.642L209.821 130.172H210.127ZM212.061 130.172L211.238 132.475H210.948L210.126 130.172H210.429L210.948 131.649C210.972 131.711 210.992 131.771 211.009 131.83C211.027 131.888 211.042 131.944 211.055 131.997C211.07 132.049 211.083 132.1 211.093 132.152C211.104 132.1 211.116 132.048 211.129 131.994C211.144 131.94 211.16 131.884 211.177 131.826C211.196 131.768 211.217 131.707 211.238 131.642L211.754 130.172H212.061ZM206.085 134.394C205.963 134.394 205.852 134.416 205.753 134.459C205.654 134.5 205.57 134.561 205.501 134.643C205.433 134.722 205.38 134.82 205.343 134.936C205.307 135.05 205.288 135.179 205.288 135.323C205.288 135.512 205.318 135.677 205.376 135.817C205.436 135.956 205.524 136.064 205.64 136.139C205.758 136.214 205.906 136.252 206.082 136.252C206.183 136.252 206.279 136.243 206.369 136.226C206.459 136.209 206.547 136.188 206.633 136.162V136.413C206.547 136.446 206.458 136.469 206.366 136.484C206.275 136.499 206.167 136.507 206.04 136.507C205.806 136.507 205.61 136.458 205.453 136.362C205.296 136.265 205.178 136.127 205.098 135.949C205.021 135.77 204.982 135.561 204.982 135.32C204.982 135.146 205.006 134.987 205.053 134.843C205.103 134.699 205.173 134.574 205.266 134.468C205.361 134.363 205.477 134.282 205.614 134.227C205.752 134.169 205.91 134.139 206.088 134.139C206.207 134.139 206.321 134.151 206.43 134.175C206.54 134.199 206.638 134.232 206.724 134.275L206.608 134.52C206.537 134.488 206.457 134.459 206.369 134.433C206.283 134.407 206.188 134.394 206.085 134.394ZM209.082 135.32C209.082 135.498 209.06 135.661 209.015 135.807C208.97 135.951 208.902 136.076 208.812 136.181C208.723 136.286 208.613 136.367 208.479 136.423C208.348 136.479 208.195 136.507 208.021 136.507C207.841 136.507 207.684 136.479 207.55 136.423C207.417 136.365 207.306 136.284 207.218 136.181C207.13 136.076 207.064 135.95 207.021 135.804C206.978 135.658 206.957 135.495 206.957 135.317C206.957 135.08 206.996 134.874 207.073 134.697C207.15 134.521 207.268 134.384 207.425 134.285C207.584 134.186 207.784 134.136 208.025 134.136C208.255 134.136 208.448 134.186 208.605 134.285C208.762 134.381 208.88 134.519 208.96 134.697C209.042 134.874 209.082 135.081 209.082 135.32ZM207.263 135.32C207.263 135.513 207.29 135.68 207.344 135.82C207.398 135.96 207.481 136.067 207.592 136.142C207.706 136.218 207.849 136.255 208.021 136.255C208.195 136.255 208.337 136.218 208.447 136.142C208.559 136.067 208.642 135.96 208.695 135.82C208.749 135.68 208.776 135.513 208.776 135.32C208.776 135.03 208.716 134.803 208.595 134.639C208.475 134.474 208.285 134.391 208.025 134.391C207.85 134.391 207.706 134.429 207.592 134.504C207.481 134.577 207.398 134.683 207.344 134.823C207.29 134.961 207.263 135.126 207.263 135.32ZM211.438 135.301C211.438 135.559 211.389 135.775 211.293 135.949C211.198 136.123 211.061 136.254 210.883 136.342C210.704 136.431 210.488 136.475 210.235 136.475H209.593V134.172H210.302C210.535 134.172 210.736 134.215 210.906 134.301C211.075 134.387 211.207 134.514 211.299 134.681C211.391 134.847 211.438 135.053 211.438 135.301ZM211.131 135.31C211.131 135.106 211.097 134.938 211.028 134.807C210.961 134.676 210.863 134.579 210.731 134.517C210.602 134.452 210.445 134.42 210.26 134.42H209.883V136.226H210.196C210.508 136.226 210.741 136.15 210.896 135.997C211.053 135.842 211.131 135.613 211.131 135.31ZM213.236 136.475H211.949V134.172H213.236V134.427H212.239V135.146H213.178V135.397H212.239V136.22H213.236V136.475Z" fill="white"/>
<path d="M33.9057 125.078H33.3467V125.949H32.8898V125.078H31.0513V124.675L32.8575 122.089H33.3467V124.653H33.9057V125.078ZM32.8898 123.444C32.8898 123.351 32.8898 123.266 32.8898 123.191C32.8933 123.112 32.8969 123.039 32.9005 122.971C32.9041 122.903 32.9059 122.838 32.9059 122.777C32.9095 122.713 32.9131 122.652 32.9166 122.594H32.8951C32.8665 122.663 32.8306 122.736 32.7876 122.815C32.7446 122.894 32.7034 122.96 32.664 123.014L31.5136 124.653H32.8898V123.444ZM36.8261 124.024C36.8261 124.336 36.8028 124.614 36.7562 124.858C36.7096 125.101 36.6343 125.309 36.5304 125.481C36.4301 125.649 36.2975 125.779 36.1326 125.868C35.9713 125.958 35.776 126.002 35.5467 126.002C35.26 126.002 35.0217 125.924 34.8317 125.766C34.6454 125.608 34.5056 125.383 34.4125 125.089C34.3229 124.791 34.2781 124.436 34.2781 124.024C34.2781 123.609 34.3193 123.254 34.4017 122.96C34.4877 122.666 34.6239 122.442 34.8102 122.288C34.9966 122.13 35.2421 122.051 35.5467 122.051C35.8334 122.051 36.0717 122.13 36.2616 122.288C36.4516 122.442 36.5931 122.666 36.6863 122.96C36.7795 123.254 36.8261 123.609 36.8261 124.024ZM34.7511 124.024C34.7511 124.376 34.7762 124.668 34.8264 124.901C34.8801 125.133 34.9643 125.309 35.079 125.427C35.1973 125.542 35.3532 125.599 35.5467 125.599C35.7402 125.599 35.8943 125.542 36.009 125.427C36.1272 125.313 36.2132 125.139 36.267 124.906C36.3208 124.669 36.3476 124.376 36.3476 124.024C36.3476 123.673 36.3208 123.383 36.267 123.153C36.2132 122.921 36.1272 122.747 36.009 122.632C35.8943 122.514 35.7402 122.455 35.5467 122.455C35.3532 122.455 35.1973 122.514 35.079 122.632C34.9643 122.747 34.8801 122.921 34.8264 123.153C34.7762 123.383 34.7511 123.673 34.7511 124.024ZM39.9023 124.024C39.9023 124.336 39.879 124.614 39.8324 124.858C39.7858 125.101 39.7105 125.309 39.6066 125.481C39.5063 125.649 39.3737 125.779 39.2088 125.868C39.0476 125.958 38.8522 126.002 38.6229 126.002C38.3362 126.002 38.0979 125.924 37.908 125.766C37.7216 125.608 37.5818 125.383 37.4887 125.089C37.3991 124.791 37.3543 124.436 37.3543 124.024C37.3543 123.609 37.3955 123.254 37.4779 122.96C37.5639 122.666 37.7001 122.442 37.8865 122.288C38.0728 122.13 38.3183 122.051 38.6229 122.051C38.9096 122.051 39.1479 122.13 39.3378 122.288C39.5278 122.442 39.6693 122.666 39.7625 122.96C39.8557 123.254 39.9023 123.609 39.9023 124.024ZM37.8273 124.024C37.8273 124.376 37.8524 124.668 37.9026 124.901C37.9563 125.133 38.0405 125.309 38.1552 125.427C38.2735 125.542 38.4294 125.599 38.6229 125.599C38.8164 125.599 38.9705 125.542 39.0852 125.427C39.2034 125.313 39.2895 125.139 39.3432 124.906C39.397 124.669 39.4238 124.376 39.4238 124.024C39.4238 123.673 39.397 123.383 39.3432 123.153C39.2895 122.921 39.2034 122.747 39.0852 122.632C38.9705 122.514 38.8164 122.455 38.6229 122.455C38.4294 122.455 38.2735 122.514 38.1552 122.632C38.0405 122.747 37.9563 122.921 37.9026 123.153C37.8524 123.383 37.8273 123.673 37.8273 124.024ZM42.9785 124.024C42.9785 124.336 42.9552 124.614 42.9086 124.858C42.862 125.101 42.7867 125.309 42.6828 125.481C42.5825 125.649 42.4499 125.779 42.285 125.868C42.1238 125.958 41.9285 126.002 41.6991 126.002C41.4124 126.002 41.1741 125.924 40.9842 125.766C40.7978 125.608 40.6581 125.383 40.5649 125.089C40.4753 124.791 40.4305 124.436 40.4305 124.024C40.4305 123.609 40.4717 123.254 40.5541 122.96C40.6401 122.666 40.7763 122.442 40.9627 122.288C41.149 122.13 41.3945 122.051 41.6991 122.051C41.9858 122.051 42.2241 122.13 42.414 122.288C42.604 122.442 42.7455 122.666 42.8387 122.96C42.9319 123.254 42.9785 123.609 42.9785 124.024ZM40.9035 124.024C40.9035 124.376 40.9286 124.668 40.9788 124.901C41.0325 125.133 41.1168 125.309 41.2314 125.427C41.3497 125.542 41.5056 125.599 41.6991 125.599C41.8926 125.599 42.0467 125.542 42.1614 125.427C42.2797 125.313 42.3657 125.139 42.4194 124.906C42.4732 124.669 42.5001 124.376 42.5001 124.024C42.5001 123.673 42.4732 123.383 42.4194 123.153C42.3657 122.921 42.2797 122.747 42.1614 122.632C42.0467 122.514 41.8926 122.455 41.6991 122.455C41.5056 122.455 41.3497 122.514 41.2314 122.632C41.1168 122.747 41.0325 122.921 40.9788 123.153C40.9286 123.383 40.9035 123.673 40.9035 124.024Z" fill="white"/>
<path d="M278.879 82.2451L313.848 117.215L212.979 219.589L165.943 219.589L278.879 82.2451Z" fill="url(#paint5_linear_726_1080)"/>
<rect x="29.834" y="65.8498" width="33.991" height="24.7273" rx="2.95652" fill="url(#paint6_linear_726_1080)" stroke="black" stroke-width="0.537549"/>
<rect x="29.834" y="73.8503" width="9.56838" height="7.88406" fill="url(#paint7_linear_726_1080)" stroke="black" stroke-width="0.537549"/>
<path d="M39.4606 81.582V86.635C41.294 87.9706 41.0322 89.0158 39.25 90.6353" stroke="black" stroke-width="0.537549"/>
<rect x="-0.268775" y="0.268775" width="9.56838" height="7.88406" transform="matrix(-1 0 0 1 63.5562 73.5815)" fill="url(#paint8_linear_726_1080)" stroke="black" stroke-width="0.537549"/>
<path d="M54.1671 65.7915C52.3035 66.4231 52.3469 67.8358 54.1671 70.0023V86.7525C52.062 88.1191 52.5141 88.9509 53.7773 90.6352" stroke="black" stroke-width="0.537549"/>
<path d="M39.4605 65.7915C39.6711 66.9144 39.4605 68.1074 37.5657 68.9496" stroke="black" stroke-width="0.537549"/>
</g>
<defs>
<filter id="filter0_d_726_1080" x="31.5391" y="104.438" width="218.47" height="14.2557" filterUnits="userSpaceOnUse" color-interpolation-filters="sRGB">
<feFlood flood-opacity="0" result="BackgroundImageFix"/>
<feColorMatrix in="SourceAlpha" type="matrix" values="0 0 0 0 0 0 0 0 0 0 0 0 0 0 0 0 0 0 127 0" result="hardAlpha"/>
<feOffset dy="1.61265"/>
<feColorMatrix type="matrix" values="0 0 0 0 0 0 0 0 0 0 0 0 0 0 0 0 0 0 0.25 0"/>
<feBlend mode="normal" in2="BackgroundImageFix" result="effect1_dropShadow_726_1080"/>
<feBlend mode="normal" in="SourceGraphic" in2="effect1_dropShadow_726_1080" result="shape"/>
</filter>
<filter id="filter1_d_726_1080" x="29.8474" y="145.632" width="91.6798" height="14.1778" filterUnits="userSpaceOnUse" color-interpolation-filters="sRGB">
<feFlood flood-opacity="0" result="BackgroundImageFix"/>
<feColorMatrix in="SourceAlpha" type="matrix" values="0 0 0 0 0 0 0 0 0 0 0 0 0 0 0 0 0 0 127 0" result="hardAlpha"/>
<feOffset dy="1.0751"/>
<feGaussianBlur stdDeviation="1.0751"/>
<feColorMatrix type="matrix" values="0 0 0 0 0 0 0 0 0 0 0 0 0 0 0 0 0 0 0.25 0"/>
<feBlend mode="normal" in2="BackgroundImageFix" result="effect1_dropShadow_726_1080"/>
<feBlend mode="normal" in="SourceGraphic" in2="effect1_dropShadow_726_1080" result="shape"/>
</filter>
<filter id="filter2_d_726_1080" x="109.164" y="129.213" width="30.3087" height="9.76699" filterUnits="userSpaceOnUse" color-interpolation-filters="sRGB">
<feFlood flood-opacity="0" result="BackgroundImageFix"/>
<feColorMatrix in="SourceAlpha" type="matrix" values="0 0 0 0 0 0 0 0 0 0 0 0 0 0 0 0 0 0 127 0" result="hardAlpha"/>
<feOffset dy="1.0751"/>
<feColorMatrix type="matrix" values="0 0 0 0 0 0 0 0 0 0 0 0 0 0 0 0 0 0 0.25 0"/>
<feBlend mode="normal" in2="BackgroundImageFix" result="effect1_dropShadow_726_1080"/>
<feBlend mode="normal" in="SourceGraphic" in2="effect1_dropShadow_726_1080" result="shape"/>
</filter>
<filter id="filter3_d_726_1080" x="217.685" y="128.687" width="18.5732" height="9.75527" filterUnits="userSpaceOnUse" color-interpolation-filters="sRGB">
<feFlood flood-opacity="0" result="BackgroundImageFix"/>
<feColorMatrix in="SourceAlpha" type="matrix" values="0 0 0 0 0 0 0 0 0 0 0 0 0 0 0 0 0 0 127 0" result="hardAlpha"/>
<feOffset dy="1.0751"/>
<feColorMatrix type="matrix" values="0 0 0 0 0 0 0 0 0 0 0 0 0 0 0 0 0 0 0.25 0"/>
<feBlend mode="normal" in2="BackgroundImageFix" result="effect1_dropShadow_726_1080"/>
<feBlend mode="normal" in="SourceGraphic" in2="effect1_dropShadow_726_1080" result="shape"/>
</filter>
<linearGradient id="paint0_linear_726_1080" x1="3.76285" y1="0.837944" x2="267.431" y2="164.522" gradientUnits="userSpaceOnUse">
<stop stop-color="#303030"/>
<stop offset="1" stop-color="#262B2E"/>
</linearGradient>
<linearGradient id="paint1_linear_726_1080" x1="109.122" y1="95.1464" x2="233.565" y2="198.087" gradientUnits="userSpaceOnUse">
<stop stop-color="#3E3E3E" stop-opacity="0.2"/>
<stop offset="1" stop-opacity="0"/>
</linearGradient>
<linearGradient id="paint2_linear_726_1080" x1="67.3031" y1="94.6088" x2="191.746" y2="197.549" gradientUnits="userSpaceOnUse">
<stop stop-color="#3E3E3E" stop-opacity="0.2"/>
<stop offset="1" stop-opacity="0"/>
</linearGradient>
<linearGradient id="paint3_linear_726_1080" x1="155.999" y1="104.285" x2="280.441" y2="207.225" gradientUnits="userSpaceOnUse">
<stop stop-color="#4B4B4B" stop-opacity="0.2"/>
<stop offset="1" stop-opacity="0"/>
</linearGradient>
<linearGradient id="paint4_linear_726_1080" x1="200.615" y1="114.498" x2="325.058" y2="217.439" gradientUnits="userSpaceOnUse">
<stop stop-color="#4B4B4B" stop-opacity="0.2"/>
<stop offset="1" stop-opacity="0"/>
</linearGradient>
<linearGradient id="paint5_linear_726_1080" x1="228.03" y1="143.526" x2="352.473" y2="246.466" gradientUnits="userSpaceOnUse">
<stop stop-color="#4B4B4B" stop-opacity="0.2"/>
<stop offset="1" stop-opacity="0"/>
</linearGradient>
<linearGradient id="paint6_linear_726_1080" x1="46.8295" y1="65.5811" x2="46.8295" y2="90.8459" gradientUnits="userSpaceOnUse">
<stop stop-color="#B7B7B7"/>
<stop offset="0.505208" stop-color="#DFD6D6"/>
<stop offset="1" stop-color="#EFE1E1"/>
</linearGradient>
<linearGradient id="paint7_linear_726_1080" x1="34.6181" y1="73.5815" x2="34.6181" y2="82.0031" gradientUnits="userSpaceOnUse">
<stop stop-color="#B7B7B7"/>
<stop offset="0.505208" stop-color="#DFD6D6"/>
<stop offset="1" stop-color="#EFE1E1"/>
</linearGradient>
<linearGradient id="paint8_linear_726_1080" x1="5.05296" y1="0" x2="5.05296" y2="8.42161" gradientUnits="userSpaceOnUse">
<stop stop-color="#B7B7B7"/>
<stop offset="0.505208" stop-color="#DFD6D6"/>
<stop offset="1" stop-color="#EFE1E1"/>
</linearGradient>
<clipPath id="clip0_726_1080">
<rect width="272" height="172.016" rx="13.4387" fill="white"/>
</clipPath>
</defs>
</svg>
