<svg width="39" height="39" viewBox="0 0 39 39" fill="none" xmlns="http://www.w3.org/2000/svg">
<path fill-rule="evenodd" clip-rule="evenodd" d="M19.4999 0.000244141C30.2695 0.000244141 39 8.73066 39 19.5002C39 30.2697 30.2695 39.0002 19.4999 39.0002C8.73042 39.0002 0 30.2697 0 19.5002C0 8.73066 8.73042 0.000244141 19.4999 0.000244141Z" fill="#171717"/>
<path fill-rule="evenodd" clip-rule="evenodd" d="M19.4623 8.25C25.6755 8.25 30.7123 13.2868 30.7123 19.5C30.7123 25.7132 25.6755 30.75 19.4623 30.75C13.2491 30.75 8.21234 25.7132 8.21234 19.5C8.21234 13.2868 13.2491 8.25 19.4623 8.25Z" fill="#000008"/>
<path opacity="0.67" fill-rule="evenodd" clip-rule="evenodd" d="M19.7636 6.08913C19.6351 5.97086 19.5688 5.96862 19.5576 5.96862C19.5465 5.96862 19.4802 5.97086 19.3517 6.08913C19.2197 6.21054 19.062 6.42001 18.8921 6.74322C18.553 7.38833 18.2284 8.36342 17.9486 9.6216C17.634 11.0365 17.3854 12.7659 17.2286 14.7018C17.9861 15.0683 18.765 15.4668 19.5574 15.8946C20.3499 15.4667 21.129 15.0682 21.8867 14.7016C21.7298 12.7658 21.4812 11.0365 21.1666 9.6216C20.8869 8.36342 20.5623 7.38833 20.2232 6.74322C20.0532 6.42001 19.8955 6.21054 19.7636 6.08913ZM18.8945 16.2578C18.3126 15.9486 17.7392 15.6561 17.1779 15.3813C17.1354 16.0045 17.1022 16.647 17.0792 17.3052C17.3761 17.1274 17.6773 16.9503 17.9826 16.7742C18.2879 16.598 18.592 16.4258 18.8945 16.2578ZM16.6174 14.4108C17.0721 9.10223 18.217 5.33545 19.5576 5.33545C20.8982 5.33545 22.0432 9.10214 22.4978 14.4106C27.3252 12.1499 31.1617 11.2576 31.832 12.4179C32.5023 13.5781 29.8107 16.4524 25.4379 19.5001C29.8107 22.5478 32.5023 25.4221 31.832 26.5823C31.1617 27.7426 27.3252 26.8503 22.4978 24.5896C22.0432 29.8981 20.8982 33.6647 19.5576 33.6647C18.217 33.6647 17.0721 29.898 16.6174 24.5894C11.7899 26.8502 7.95319 27.7426 7.28288 26.5823C6.61257 25.4221 9.30416 22.5478 13.677 19.5001C9.30416 16.4524 6.61257 13.5781 7.28288 12.4179C7.95319 11.2576 11.7899 12.15 16.6174 14.4108ZM14.2349 19.1165C12.6356 18.0127 11.2612 16.9328 10.1923 15.953C9.24185 15.0817 8.55917 14.3132 8.16967 13.6971C7.97456 13.3885 7.87192 13.1473 7.83269 12.9725C7.79448 12.8023 7.8257 12.744 7.83114 12.7346C7.83659 12.7251 7.87163 12.6688 8.03844 12.6167C8.20968 12.5632 8.47014 12.5315 8.83526 12.546C9.56398 12.575 10.5714 12.7817 11.8016 13.1686C13.185 13.6038 14.808 14.2534 16.564 15.0856C16.5029 15.9243 16.4587 16.7976 16.4333 17.6972C15.6662 18.1691 14.9314 18.6441 14.2349 19.1165ZM14.2349 19.8837C12.6356 20.9875 11.2612 22.0674 10.1923 23.0472C9.24185 23.9185 8.55917 24.687 8.16967 25.303C7.97456 25.6117 7.87192 25.8529 7.83269 26.0277C7.79448 26.1979 7.8257 26.2562 7.83114 26.2656C7.83656 26.275 7.87157 26.3313 8.03844 26.3835C8.20968 26.437 8.47014 26.4687 8.83526 26.4542C9.56398 26.4251 10.5714 26.2185 11.8016 25.8315C13.185 25.3964 14.808 24.7468 16.564 23.9146C16.5029 23.0759 16.4587 22.2026 16.4333 21.303C15.6662 20.8311 14.9314 20.3561 14.2349 19.8837ZM16.4165 20.5477C15.8575 20.1986 15.3173 19.8486 14.7984 19.5001C15.3173 19.1516 15.8575 18.8016 16.4165 18.4525C16.4109 18.7984 16.4081 19.1478 16.4081 19.5001C16.4081 19.8524 16.4109 20.2017 16.4165 20.5477ZM17.0575 20.9425C17.0467 20.4686 17.0412 19.9874 17.0412 19.5001C17.0412 19.0128 17.0467 18.5316 17.0575 18.0577C17.4627 17.8115 17.8769 17.5662 18.299 17.3226C18.7214 17.0789 19.1413 16.843 19.5574 16.6153C19.9736 16.843 20.3934 17.0789 20.8158 17.3226C21.2381 17.5663 21.6524 17.8117 22.0577 18.058C22.0685 18.5318 22.074 19.0129 22.074 19.5001C22.074 19.9873 22.0685 20.4684 22.0577 20.9422C21.6524 21.1885 21.2381 21.4339 20.8158 21.6776C20.3934 21.9213 19.9736 22.1572 19.5574 22.3849C19.1413 22.1572 18.7214 21.9213 18.2991 21.6776C17.8769 21.434 17.4627 21.1887 17.0575 20.9425ZM17.0792 21.695C17.1022 22.3532 17.1354 22.9957 17.1779 23.6189C17.7392 23.3441 18.3126 23.0516 18.8945 22.7424C18.592 22.5743 18.2879 22.4022 17.9826 22.226C17.6773 22.0499 17.3761 21.8728 17.0792 21.695ZM19.5574 23.1056C18.765 23.5334 17.9861 23.9319 17.2286 24.2984C17.3854 26.2343 17.634 27.9637 17.9486 29.3786C18.2284 30.6368 18.553 31.6119 18.8921 32.257C19.062 32.5802 19.2197 32.7897 19.3517 32.911C19.4802 33.0293 19.5465 33.0316 19.5576 33.0316C19.5688 33.0316 19.6351 33.0293 19.7636 32.911C19.8955 32.7897 20.0532 32.5802 20.2232 32.257C20.5623 31.6119 20.8869 30.6368 21.1666 29.3786C21.4812 27.9637 21.7298 26.2344 21.8867 24.2986C21.129 23.932 20.3499 23.5335 19.5574 23.1056ZM22.5512 23.9148C24.3071 24.7469 25.9299 25.3964 27.3132 25.8315C28.5435 26.2185 29.5509 26.4251 30.2796 26.4542C30.6447 26.4687 30.9052 26.437 31.0764 26.3835C31.2433 26.3313 31.2783 26.275 31.2837 26.2656C31.2891 26.2563 31.3204 26.198 31.2822 26.0277C31.243 25.8529 31.1403 25.6117 30.9452 25.303C30.5557 24.687 29.873 23.9185 28.9226 23.0472C27.8537 22.0674 26.4792 20.9875 24.8799 19.8837C24.1836 20.356 23.4489 20.8309 22.682 21.3027C22.6565 22.2025 22.6124 23.0759 22.5512 23.9148ZM24.8799 19.1165C26.4792 18.0127 27.8537 16.9328 28.9226 15.953C29.873 15.0817 30.5557 14.3132 30.9452 13.6971C31.1403 13.3885 31.243 13.1473 31.2822 12.9725C31.3204 12.8022 31.2891 12.7439 31.2837 12.7346C31.2783 12.7252 31.2433 12.6689 31.0764 12.6167C30.9052 12.5632 30.6447 12.5315 30.2796 12.546C29.5509 12.575 28.5435 12.7817 27.3132 13.1686C25.9299 13.6038 24.3071 14.2533 22.5512 15.0854C22.6124 15.9243 22.6565 16.7977 22.682 17.6974C23.4489 18.1693 24.1836 18.6442 24.8799 19.1165ZM22.6987 18.4528C23.2576 18.8018 23.7977 19.1517 24.3164 19.5001C23.7977 19.8485 23.2576 20.1984 22.6987 20.5474C22.7043 20.2016 22.7072 19.8523 22.7072 19.5001C22.7072 19.1479 22.7043 18.7986 22.6987 18.4528ZM22.0361 17.3055C22.0131 16.647 21.9799 16.0045 21.9373 15.3811C21.3759 15.656 20.8024 15.9485 20.2204 16.2578C20.5229 16.4258 20.827 16.598 21.1322 16.7742C21.4377 16.9504 21.7391 17.1276 22.0361 17.3055ZM21.9373 23.6191C21.3759 23.3442 20.8024 23.0517 20.2204 22.7424C20.5229 22.5743 20.827 22.4022 21.1322 22.226C21.4377 22.0498 21.7391 21.8726 22.0361 21.6947C22.0131 22.3531 21.9799 22.9957 21.9373 23.6191Z" fill="white"/>
<path d="M27.3315 13.1174C27.3315 12.567 26.8853 12.1208 26.3349 12.1208C25.7846 12.1208 25.3384 12.567 25.3384 13.1174C25.3384 13.6678 25.7846 14.114 26.3349 14.114C26.8853 14.114 27.3315 13.6678 27.3315 13.1174Z" fill="white"/>
<path d="M11.5004 16.53C11.5004 15.9796 11.0544 15.5335 10.5043 15.5335C9.95418 15.5335 9.50824 15.9796 9.50824 16.53C9.50824 17.0804 9.95418 17.5265 10.5043 17.5265C11.0544 17.5265 11.5004 17.0804 11.5004 16.53Z" fill="white"/>
<path d="M17.5504 27.7623C18.1008 27.7623 18.547 28.2083 18.547 28.7584C18.547 29.3085 18.1008 29.7545 17.5504 29.7545C17.0001 29.7545 16.5539 29.3085 16.5539 28.7584C16.5539 28.2083 17.0001 27.7623 17.5504 27.7623Z" fill="white"/>
<path d="M21.1895 19.4928C21.1895 18.561 20.4341 17.8056 19.5023 17.8056C18.5705 17.8056 17.8151 18.561 17.8151 19.4928C17.8151 20.4246 18.5705 21.18 19.5023 21.18C20.4341 21.18 21.1895 20.4246 21.1895 19.4928Z" fill="white"/>
</svg>
