<svg width="24" height="24" viewBox="0 0 24 24" fill="none" xmlns="http://www.w3.org/2000/svg">
<path d="M23.6433 14.8962C22.042 21.3208 15.5349 25.244 9.0985 23.6417C2.67383 22.0356 -1.24298 15.5285 0.358284 9.1038C1.95955 2.67916 8.46271 -1.24396 14.8835 0.358273C21.3238 1.94087 25.2406 8.46762 23.6433 14.8962Z" fill="#F7931A"/>
<path d="M17.6825 10.4237C17.8981 8.82373 16.6825 7.98843 15.0158 7.42373L15.5334 5.25902L14.2158 4.94137L13.7138 7.05902C13.3648 6.97667 13.0119 6.89432 12.6628 6.82373L13.1648 4.70608L11.8315 4.38843L11.3138 6.55314C11.0315 6.48647 10.7452 6.43549 10.4628 6.36882L8.64716 5.93353L8.31383 7.33353C8.31383 7.33353 9.29814 7.54922 9.26285 7.56883C9.79618 7.70216 9.89814 8.05118 9.87853 8.31785L9.29422 10.7845C9.32951 10.8002 9.37657 10.8002 9.42755 10.8355C9.37657 10.8198 9.3452 10.8198 9.29422 10.8041L8.49422 14.2551C8.42755 14.4198 8.25893 14.6551 7.89422 14.5728C7.90991 14.5884 6.92559 14.3375 6.92559 14.3375L6.30206 15.8551L8.01971 16.2551C8.33736 16.3375 8.655 16.4041 8.95304 16.4904L8.4354 18.6747L9.75304 18.9924L10.2707 16.8277C10.6393 16.9257 10.9883 17.012 11.3217 17.0943L10.804 19.2434L12.1217 19.561L12.6393 17.3767C14.8903 17.7767 16.5726 17.5924 17.255 15.5414C17.804 13.9061 17.204 12.9728 16.004 12.3571C16.8825 12.1571 17.5177 11.5884 17.6825 10.4237ZM14.7177 14.6708C14.3334 16.3061 11.5687 15.4551 10.6825 15.2394L11.3648 12.3375C12.2668 12.5571 15.1177 12.9571 14.7177 14.6708ZM15.0825 10.4237C14.7334 11.9061 12.4315 11.1924 11.6825 11.008L12.3177 8.37667C13.0511 8.55706 15.4511 8.87471 15.0825 10.4237Z" fill="white"/>
</svg>
