<svg width="27" height="27" viewBox="0 0 27 27" fill="none" xmlns="http://www.w3.org/2000/svg">
<path d="M25.1539 16.3957C23.5526 22.8204 17.0455 26.7435 10.6091 25.1412C4.18439 23.5351 0.267582 17.028 1.86884 10.6033C3.4701 4.17867 9.97327 0.255551 16.394 1.85779C22.8344 3.44038 26.7512 9.96713 25.1539 16.3957Z" fill="#0033AD"/>
<path d="M13.602 7.40047C13.684 7.40514 13.7656 7.38537 13.8365 7.34365C13.9073 7.30194 13.9642 7.24016 13.9999 7.16612C14.0356 7.09208 14.0485 7.00912 14.0371 6.92772C14.0256 6.84632 13.9903 6.77015 13.9355 6.70883C13.8808 6.64752 13.8091 6.60382 13.7295 6.58327C13.6499 6.56272 13.566 6.56623 13.4884 6.59336C13.4108 6.62049 13.343 6.67003 13.2936 6.7357C13.2442 6.80138 13.2153 6.88024 13.2107 6.96231C13.2045 7.07228 13.2423 7.18021 13.3157 7.26237C13.389 7.34453 13.492 7.3942 13.602 7.40047Z" fill="white"/>
<path d="M17.2164 7.60615C17.1518 7.60674 17.0884 7.58813 17.0344 7.5527C16.962 7.50524 16.9114 7.43099 16.8937 7.34625C16.876 7.26151 16.8927 7.17321 16.94 7.10075C16.9754 7.04664 17.026 7.00425 17.0855 6.97892C17.1449 6.95359 17.2106 6.94647 17.2741 6.95846C17.3376 6.97044 17.3961 7.001 17.4422 7.04626C17.4884 7.09151 17.5201 7.14944 17.5333 7.21271C17.5465 7.27598 17.5406 7.34174 17.5165 7.40168C17.4923 7.46162 17.4509 7.51304 17.3975 7.54944C17.3441 7.58584 17.2811 7.60557 17.2164 7.60615Z" fill="white"/>
<path d="M10.1868 7.58701C10.2441 7.55756 10.2915 7.51181 10.3229 7.45551C10.3543 7.39922 10.3683 7.33489 10.3632 7.27063C10.3582 7.20637 10.3342 7.14505 10.2943 7.09439C10.2545 7.04373 10.2005 7.006 10.1392 6.98594C10.078 6.96587 10.0122 6.96438 9.95005 6.98165C9.88795 6.99892 9.83234 7.03417 9.79023 7.08297C9.74812 7.13177 9.72139 7.19194 9.7134 7.25591C9.70541 7.31987 9.71652 7.38476 9.74533 7.44243C9.7647 7.48102 9.79151 7.5154 9.82423 7.54359C9.85695 7.57177 9.89492 7.5932 9.93596 7.60664C9.977 7.62008 10.0203 7.62527 10.0633 7.6219C10.1064 7.61853 10.1484 7.60667 10.1868 7.58701Z" fill="white"/>
<path d="M10.5054 14.1791C10.327 13.9788 10.2354 13.7158 10.2508 13.448L10.248 13.4486C10.2593 13.2517 10.3281 13.0624 10.4457 12.9041C10.5633 12.7459 10.7247 12.6255 10.91 12.5579C11.0953 12.4903 11.2963 12.4784 11.4882 12.5237C11.6802 12.569 11.8546 12.6695 11.9901 12.8128C12.1256 12.9562 12.2161 13.136 12.2506 13.3302C12.285 13.5244 12.2618 13.7244 12.1839 13.9056C12.106 14.0867 11.9767 14.2411 11.812 14.3497C11.6474 14.4582 11.4545 14.5162 11.2573 14.5164H11.2021C10.9344 14.5008 10.6837 14.3794 10.5054 14.1791Z" fill="white"/>
<path d="M6.30106 13.2367C6.3566 13.204 6.4206 13.1884 6.48499 13.192C6.52781 13.1943 6.56976 13.2051 6.60842 13.2237C6.64707 13.2423 6.68168 13.2683 6.71024 13.3003C6.7388 13.3323 6.76076 13.3696 6.77485 13.4101C6.78894 13.4506 6.79489 13.4935 6.79236 13.5364C6.78866 13.6007 6.76596 13.6626 6.72712 13.714C6.68829 13.7655 6.63507 13.8043 6.57418 13.8256C6.5133 13.8468 6.44749 13.8495 6.38506 13.8334C6.32263 13.8172 6.2664 13.7829 6.22346 13.7348C6.18052 13.6867 6.1528 13.627 6.14381 13.5631C6.13482 13.4993 6.14496 13.4342 6.17295 13.3761C6.20094 13.318 6.24552 13.2695 6.30106 13.2367Z" fill="white"/>
<path d="M11.4234 9.17181C11.3743 9.25863 11.3005 9.32895 11.2115 9.37387C11.1523 9.40371 11.0878 9.42161 11.0218 9.42653C10.9557 9.43145 10.8893 9.42329 10.8263 9.40254C10.7634 9.38178 10.7052 9.34883 10.655 9.30556C10.6048 9.26229 10.5636 9.20956 10.5338 9.15037C10.489 9.06129 10.4715 8.9609 10.4837 8.86191C10.4959 8.76291 10.5372 8.66975 10.6023 8.59421C10.6674 8.51866 10.7535 8.46412 10.8496 8.43748C10.9457 8.41084 11.0476 8.41329 11.1423 8.44453C11.237 8.47577 11.3203 8.5344 11.3817 8.61299C11.4432 8.69159 11.4799 8.78662 11.4873 8.88609C11.4947 8.98556 11.4724 9.08499 11.4234 9.17181Z" fill="white"/>
<path d="M7.76308 10.6028C7.83176 10.648 7.91231 10.6717 7.99451 10.6711C8.07672 10.6705 8.1569 10.6455 8.2249 10.5993C8.2929 10.5531 8.34567 10.4878 8.37653 10.4116C8.40739 10.3354 8.41496 10.2518 8.39827 10.1713C8.38159 10.0908 8.3414 10.017 8.28279 9.95937C8.22418 9.90171 8.14979 9.86274 8.06903 9.84738C7.98827 9.83202 7.90476 9.84096 7.82908 9.87307C7.75341 9.90518 7.68895 9.95902 7.64388 10.0278C7.58351 10.1199 7.56216 10.2321 7.58451 10.3399C7.60686 10.4478 7.67108 10.5423 7.76308 10.6028Z" fill="white"/>
<path d="M8.0926 13.0773C8.17852 13.0266 8.27753 13.0026 8.37711 13.0082C8.5107 13.0159 8.63578 13.0763 8.72487 13.1762C8.81396 13.276 8.85977 13.4071 8.85224 13.5407C8.84652 13.6403 8.8114 13.7359 8.75134 13.8156C8.69127 13.8952 8.60895 13.9552 8.51477 13.988C8.4206 14.0209 8.31881 14.0251 8.22226 14.0001C8.12571 13.9751 8.03874 13.922 7.97234 13.8476C7.90594 13.7732 7.86309 13.6807 7.84922 13.582C7.83534 13.4832 7.85106 13.3825 7.89438 13.2927C7.9377 13.2029 8.00668 13.1279 8.0926 13.0773Z" fill="white"/>
<path d="M7.81817 16.3992C7.74483 16.4363 7.68413 16.4943 7.64374 16.5658C7.60335 16.6374 7.58508 16.7193 7.59124 16.8012C7.5974 16.8832 7.62771 16.9615 7.67835 17.0262C7.72898 17.0909 7.79767 17.1391 7.87572 17.1648C7.95377 17.1905 8.03769 17.1925 8.11685 17.1705C8.19602 17.1485 8.26689 17.1035 8.3205 17.0412C8.37412 16.9789 8.40806 16.9022 8.41805 16.8206C8.42804 16.7391 8.41363 16.6564 8.37663 16.583C8.35204 16.5342 8.31809 16.4908 8.27672 16.4552C8.23534 16.4196 8.18735 16.3925 8.13548 16.3754C8.08362 16.3583 8.0289 16.3516 7.97445 16.3557C7.92001 16.3598 7.8669 16.3746 7.81817 16.3992Z" fill="white"/>
<path d="M10.1096 12.063C9.99216 12.064 9.87706 12.0302 9.77884 11.9658C9.71356 11.9231 9.65733 11.868 9.61339 11.8035C9.56945 11.7391 9.53865 11.6666 9.52276 11.5902C9.50687 11.5138 9.5062 11.4351 9.52079 11.3584C9.53538 11.2818 9.56494 11.2088 9.60777 11.1436C9.67217 11.0454 9.76424 10.9685 9.87233 10.9226C9.98043 10.8767 10.0997 10.8639 10.2151 10.8859C10.3304 10.9078 10.4367 10.9634 10.5205 11.0457C10.6042 11.128 10.6617 11.2333 10.6856 11.3483C10.7096 11.4632 10.6989 11.5827 10.6549 11.6916C10.6109 11.8005 10.5356 11.8939 10.4386 11.96C10.3415 12.0261 10.227 12.0619 10.1096 12.063Z" fill="white"/>
<path d="M15.9992 9.33415C16.0828 9.38869 16.1807 9.41723 16.2806 9.41613C16.3804 9.41504 16.4777 9.38437 16.5601 9.328C16.6425 9.27164 16.7063 9.1921 16.7436 9.09945C16.7808 9.0068 16.7897 8.9052 16.7692 8.80748C16.7487 8.70977 16.6996 8.62033 16.6283 8.55047C16.557 8.48061 16.4665 8.43347 16.3684 8.41501C16.2703 8.39654 16.1689 8.40758 16.077 8.44673C15.9852 8.48589 15.907 8.55139 15.8524 8.63496C15.816 8.69048 15.7909 8.75263 15.7786 8.81785C15.7663 8.88306 15.767 8.95007 15.7806 9.01502C15.7943 9.07998 15.8206 9.1416 15.8581 9.19636C15.8956 9.25112 15.9435 9.29795 15.9992 9.33415Z" fill="white"/>
<path d="M16.0786 12.4867C15.9462 12.4791 15.8135 12.4977 15.6883 12.5413C15.563 12.585 15.4476 12.6529 15.3485 12.7411C15.1486 12.9194 15.0276 13.1698 15.0122 13.4373C14.9968 13.7047 15.0883 13.9673 15.2666 14.1673C15.4449 14.3673 15.6953 14.4883 15.9627 14.5037H16.0212C16.2161 14.5036 16.4067 14.4471 16.5702 14.3411C16.7337 14.2351 16.863 14.0841 16.9426 13.9062C17.0221 13.7284 17.0485 13.5313 17.0186 13.3387C16.9887 13.1462 16.9037 12.9665 16.7739 12.8211C16.686 12.722 16.5793 12.6414 16.4599 12.584C16.3405 12.5266 16.2109 12.4935 16.0786 12.4867Z" fill="white"/>
<path d="M11.9155 12.3022C11.756 12.204 11.627 12.0632 11.5432 11.8958C11.4661 11.7418 11.4296 11.5708 11.4372 11.3988C11.4448 11.2268 11.4962 11.0596 11.5865 10.9131C11.6768 10.7665 11.8031 10.6455 11.9533 10.5614C12.1036 10.4774 12.2728 10.4331 12.4449 10.4328C12.6318 10.4319 12.8152 10.4831 12.9747 10.5805C13.1341 10.678 13.2633 10.8179 13.3477 10.9847C13.4257 11.1387 13.4629 11.3102 13.4558 11.4827C13.4487 11.6553 13.3974 11.8231 13.307 11.9702C13.2166 12.1173 13.09 12.2388 12.9392 12.323C12.7885 12.4073 12.6187 12.4515 12.446 12.4515C12.2587 12.4521 12.075 12.4004 11.9155 12.3022Z" fill="white"/>
<path d="M19.4619 10.6016C19.5353 10.5646 19.596 10.5067 19.6364 10.4352C19.6769 10.3637 19.6952 10.2818 19.6891 10.1998C19.683 10.1179 19.6527 10.0396 19.6022 9.97487C19.5516 9.91012 19.483 9.86182 19.4049 9.83607C19.3269 9.81032 19.243 9.80828 19.1638 9.8302C19.0847 9.85212 19.0137 9.89702 18.9601 9.95923C18.9064 10.0214 18.8724 10.0982 18.8623 10.1797C18.8522 10.2612 18.8665 10.3439 18.9035 10.4173C18.9531 10.5158 19.0398 10.5905 19.1445 10.6251C19.2493 10.6596 19.3634 10.6512 19.4619 10.6016Z" fill="white"/>
<path d="M16.6512 11.1612C16.7091 11.059 16.7959 10.9762 16.9008 10.9234C16.9704 10.8883 17.0463 10.8672 17.1241 10.8614C17.2019 10.8556 17.28 10.8652 17.3541 10.8897C17.4282 10.9141 17.4967 10.9529 17.5557 11.0039C17.6148 11.0548 17.6632 11.1169 17.6982 11.1866C17.751 11.2915 17.7716 11.4097 17.7572 11.5263C17.7429 11.6428 17.6943 11.7525 17.6176 11.8415C17.5409 11.9304 17.4396 11.9946 17.3264 12.026C17.2132 12.0573 17.0933 12.0544 16.9818 12.0176C16.8703 11.9808 16.7722 11.9117 16.6999 11.8191C16.6276 11.7266 16.5844 11.6147 16.5757 11.4975C16.5671 11.3804 16.5933 11.2634 16.6512 11.1612Z" fill="white"/>
<path d="M13.9324 9.93418C13.8313 9.99382 13.7148 10.0221 13.5975 10.0156C13.4402 10.0066 13.2929 9.93554 13.188 9.81798C13.083 9.70042 13.0291 9.54601 13.038 9.38869C13.0447 9.27148 13.086 9.15889 13.1567 9.06516C13.2274 8.97143 13.3243 8.90076 13.4352 8.86209C13.546 8.82342 13.6659 8.81847 13.7795 8.84788C13.8932 8.87729 13.9956 8.93974 14.0738 9.02732C14.1519 9.11491 14.2024 9.22371 14.2188 9.33997C14.2351 9.45622 14.2167 9.57472 14.1657 9.68049C14.1147 9.78625 14.0336 9.87454 13.9324 9.93418Z" fill="white"/>
<path d="M10.3804 16.077C10.4853 16.0242 10.5721 15.9414 10.63 15.8391C10.6878 15.7369 10.714 15.6198 10.7053 15.5027C10.6965 15.3856 10.6533 15.2737 10.5809 15.1812C10.5086 15.0886 10.4105 15.0196 10.2989 14.9829C10.1873 14.9461 10.0674 14.9433 9.95424 14.9747C9.84107 15.0061 9.73977 15.0704 9.66314 15.1594C9.58651 15.2484 9.538 15.3582 9.52374 15.4747C9.50948 15.5913 9.53011 15.7095 9.58303 15.8144C9.65396 15.9549 9.77781 16.0615 9.92735 16.1108C10.0769 16.1601 10.2399 16.1479 10.3804 16.077Z" fill="white"/>
<path d="M13.8194 11.5175C13.8011 11.2935 13.8581 11.0699 13.9812 10.882C14.0733 10.7417 14.1988 10.6265 14.3465 10.5468C14.4942 10.4671 14.6594 10.4255 14.8272 10.4256C15.0519 10.4259 15.27 10.5011 15.4472 10.6393C15.6243 10.7776 15.7503 10.9709 15.8052 11.1888C15.86 11.4067 15.8407 11.6367 15.7501 11.8423C15.6596 12.048 15.5031 12.2176 15.3053 12.3242C15.1076 12.4309 14.8799 12.4686 14.6583 12.4313C14.4368 12.3941 14.2339 12.2839 14.082 12.1184C13.93 11.9529 13.8376 11.7414 13.8194 11.5175Z" fill="white"/>
<path d="M15.737 15.1052C15.6561 14.9447 15.5339 14.8088 15.3829 14.7114C15.2319 14.6139 15.0577 14.5586 14.8782 14.5509C14.6986 14.5433 14.5203 14.5837 14.3616 14.668C14.2029 14.7523 14.0696 14.8774 13.9754 15.0304C13.8812 15.1835 13.8295 15.3588 13.8257 15.5385C13.8219 15.7181 13.8661 15.8955 13.9537 16.0524C14.0414 16.2093 14.1693 16.3399 14.3242 16.4309C14.4792 16.5218 14.6557 16.5698 14.8353 16.5698C14.9934 16.5687 15.1491 16.5309 15.2901 16.4594C15.5285 16.3387 15.7094 16.1284 15.7932 15.8746C15.877 15.6208 15.8568 15.3441 15.737 15.1052Z" fill="white"/>
<path d="M17.1712 14.9372C17.2886 14.9362 17.4037 14.9701 17.5019 15.0346C17.6333 15.1212 17.725 15.2563 17.757 15.4104C17.7889 15.5646 17.7585 15.7251 17.6724 15.8568C17.6079 15.955 17.5158 16.0318 17.4077 16.0776C17.2996 16.1235 17.1803 16.1362 17.0649 16.1142C16.9496 16.0923 16.8433 16.0366 16.7596 15.9542C16.6759 15.8718 16.6185 15.7665 16.5946 15.6515C16.5708 15.5365 16.5816 15.417 16.6256 15.3082C16.6697 15.1993 16.745 15.106 16.8421 15.0399C16.9392 14.9739 17.0538 14.9381 17.1712 14.9372Z" fill="white"/>
<path d="M19.4356 13.5175C19.4412 13.418 19.4172 13.319 19.3665 13.233C19.3159 13.1471 19.2409 13.0781 19.1511 13.0348C19.0612 12.9915 18.9606 12.9758 18.8618 12.9896C18.763 13.0035 18.6706 13.0464 18.5962 13.1128C18.5218 13.1792 18.4687 13.2661 18.4437 13.3627C18.4187 13.4592 18.4229 13.561 18.4557 13.6552C18.4886 13.7494 18.5486 13.8317 18.6282 13.8918C18.7078 13.9518 18.8035 13.987 18.903 13.9927C19.0366 14.0002 19.1678 13.9544 19.2676 13.8653C19.3675 13.7762 19.4279 13.6511 19.4356 13.5175Z" fill="white"/>
<path d="M20.6484 13.2029C20.7041 13.1701 20.7682 13.1546 20.8327 13.1583C20.9192 13.1634 21.0001 13.2026 21.0577 13.2673C21.1153 13.3319 21.1449 13.4168 21.1401 13.5032C21.1364 13.5677 21.1137 13.6297 21.0747 13.6813C21.0358 13.7328 20.9825 13.7717 20.9214 13.793C20.8604 13.8142 20.7945 13.8169 20.7319 13.8007C20.6694 13.7845 20.6131 13.7501 20.5701 13.7018C20.5271 13.6536 20.4994 13.5937 20.4904 13.5297C20.4815 13.4657 20.4917 13.4005 20.5198 13.3423C20.5479 13.2841 20.5927 13.2356 20.6484 13.2029Z" fill="white"/>
<path d="M19.5173 16.3977C19.4485 16.3527 19.368 16.329 19.2858 16.3298C19.2036 16.3305 19.1235 16.3556 19.0556 16.4019C18.9877 16.4481 18.9351 16.5135 18.9043 16.5897C18.8735 16.6659 18.866 16.7495 18.8828 16.8299C18.8995 16.9104 18.9397 16.9841 18.9983 17.0416C19.0569 17.0992 19.1313 17.1382 19.212 17.1535C19.2927 17.1689 19.3762 17.1599 19.4519 17.1278C19.5275 17.0957 19.5919 17.0419 19.637 16.9732C19.667 16.9276 19.6876 16.8765 19.6978 16.8229C19.708 16.7692 19.7075 16.7141 19.6964 16.6606C19.6853 16.6072 19.6637 16.5565 19.633 16.5113C19.6023 16.4662 19.5629 16.4276 19.5173 16.3977Z" fill="white"/>
<path d="M10.0644 19.3941C10.129 19.3936 10.1923 19.4122 10.2463 19.4477C10.2822 19.4712 10.3131 19.5016 10.3372 19.5371C10.3614 19.5726 10.3783 19.6125 10.387 19.6545C10.3957 19.6965 10.3961 19.7398 10.388 19.782C10.38 19.8241 10.3637 19.8643 10.3402 19.9002C10.3047 19.9542 10.254 19.9964 10.1945 20.0216C10.135 20.0468 10.0694 20.0538 10.0059 20.0417C9.94247 20.0296 9.88402 19.999 9.83797 19.9537C9.79192 19.9083 9.76035 19.8504 9.74723 19.7871C9.73412 19.7239 9.74005 19.6581 9.76429 19.5982C9.78853 19.5384 9.82998 19.487 9.8834 19.4507C9.93682 19.4143 9.99981 19.3947 10.0644 19.3941Z" fill="white"/>
<path d="M17.0935 19.4135C17.0358 19.4426 16.988 19.4881 16.9562 19.5443C16.9244 19.6006 16.91 19.665 16.9148 19.7294C16.9196 19.7939 16.9434 19.8555 16.9831 19.9064C17.0229 19.9573 17.0769 19.9953 17.1383 20.0155C17.1997 20.0357 17.2657 20.0373 17.3279 20.02C17.3902 20.0027 17.4459 19.9674 17.4881 19.9184C17.5303 19.8694 17.557 19.8091 17.5648 19.7449C17.5727 19.6808 17.5613 19.6157 17.5322 19.5581C17.513 19.5197 17.4863 19.4855 17.4538 19.4575C17.4213 19.4295 17.3836 19.4081 17.3429 19.3947C17.3021 19.3813 17.2591 19.376 17.2163 19.3792C17.1735 19.3825 17.1318 19.3941 17.0935 19.4135Z" fill="white"/>
<path d="M13.4609 15.4812C13.4792 15.7052 13.4223 15.9288 13.2991 16.1168C13.2075 16.2574 13.0821 16.3728 12.9345 16.4525C12.7868 16.5323 12.6215 16.5737 12.4537 16.5731C12.229 16.573 12.0107 16.4979 11.8335 16.3597C11.6563 16.2215 11.5302 16.0282 11.4752 15.8103C11.4203 15.5924 11.4396 15.3624 11.53 15.1567C11.6205 14.951 11.777 14.7814 11.9747 14.6746C12.1725 14.5679 12.4002 14.5301 12.6218 14.5674C12.8434 14.6046 13.0462 14.7147 13.1982 14.8802C13.3502 15.0457 13.4427 15.2572 13.4609 15.4812Z" fill="white"/>
<path d="M11.281 17.6669C11.1975 17.6123 11.0997 17.5837 11 17.5846C10.9003 17.5856 10.8031 17.6161 10.7207 17.6723C10.6383 17.7285 10.5744 17.8079 10.5371 17.9004C10.4998 17.9929 10.4907 18.0943 10.5111 18.192C10.5314 18.2896 10.5803 18.379 10.6514 18.4489C10.7226 18.5188 10.8129 18.566 10.9109 18.5846C11.0089 18.6031 11.1102 18.5922 11.202 18.5533C11.2938 18.5143 11.372 18.449 11.4266 18.3655C11.4999 18.2536 11.5257 18.1171 11.4984 17.9861C11.4711 17.8551 11.3929 17.7403 11.281 17.6669Z" fill="white"/>
<path d="M13.4012 19.6568C13.472 19.6151 13.5536 19.5953 13.6357 19.6C13.6902 19.6031 13.7435 19.6169 13.7927 19.6406C13.8418 19.6643 13.8859 19.6975 13.9222 19.7383C13.9585 19.779 13.9865 19.8265 14.0044 19.878C14.0224 19.9296 14.03 19.9842 14.0269 20.0387C14.0222 20.1207 13.9933 20.1995 13.9438 20.2651C13.8943 20.3307 13.8264 20.3802 13.7488 20.4072C13.6713 20.4343 13.5874 20.4377 13.5078 20.4171C13.4283 20.3965 13.3566 20.3527 13.3019 20.2914C13.2472 20.2301 13.212 20.1539 13.2006 20.0725C13.1891 19.9912 13.2021 19.9082 13.2378 19.8342C13.2736 19.7602 13.3304 19.6985 13.4012 19.6568Z" fill="white"/>
<path d="M13.64 16.9853C13.5227 16.9782 13.4059 17.006 13.3044 17.0653C13.2029 17.1246 13.1213 17.2127 13.0699 17.3184C13.0185 17.4241 12.9997 17.5427 13.0158 17.6592C13.0318 17.7756 13.0821 17.8846 13.1602 17.9725C13.2383 18.0603 13.3407 18.123 13.4544 18.1526C13.5682 18.1822 13.6882 18.1774 13.7992 18.1388C13.9102 18.1001 14.0072 18.0294 14.078 17.9356C14.1488 17.8417 14.1901 17.729 14.1968 17.6116C14.2058 17.4548 14.1523 17.3007 14.0479 17.1833C13.9435 17.0659 13.7968 16.9947 13.64 16.9853Z" fill="white"/>
<path d="M15.8569 17.8295C15.9059 17.7424 15.9796 17.6718 16.0687 17.6266C16.1277 17.5965 16.1921 17.5783 16.2581 17.5731C16.3241 17.5679 16.3906 17.5758 16.4536 17.5963C16.5166 17.6168 16.5749 17.6495 16.6252 17.6926C16.6756 17.7357 16.7169 17.7882 16.7469 17.8473C16.7923 17.9363 16.8103 18.0368 16.7986 18.136C16.7869 18.2352 16.746 18.3288 16.6811 18.4047C16.6162 18.4807 16.5303 18.5357 16.4341 18.5629C16.3379 18.59 16.2359 18.5879 16.1409 18.557C16.0459 18.5261 15.9622 18.4677 15.9004 18.3891C15.8386 18.3106 15.8015 18.2155 15.7937 18.1159C15.786 18.0163 15.808 17.9166 15.8569 17.8295Z" fill="white"/>
</svg>
