<svg width="27" height="27" viewBox="0 0 27 27" fill="none" xmlns="http://www.w3.org/2000/svg">
<path d="M13.5 27C20.9558 27 27 20.9558 27 13.5C27 6.04416 20.9558 0 13.5 0C6.04416 0 0 6.04416 0 13.5C0 20.9558 6.04416 27 13.5 27Z" fill="#988430"/>
<path d="M13.5 26.2925C20.565 26.2925 26.2922 20.5652 26.2922 13.5002C26.2922 6.43529 20.565 0.708008 13.5 0.708008C6.43504 0.708008 0.707764 6.43529 0.707764 13.5002C0.707764 20.5652 6.43504 26.2925 13.5 26.2925Z" fill="#BA9F33"/>
<path d="M8.93179 2.95372C8.96882 2.23173 9.14241 2.22724 9.14241 2.22724C9.14241 2.22724 9.20852 2.19672 9.11623 2.27802C9.02751 2.35617 9.02007 2.66944 9.00986 3.09899L9.0086 3.15146C9.00434 3.32829 9.03107 3.51236 9.06069 3.71632C9.10751 4.03881 9.16155 4.41101 9.11175 4.88288C9.06362 5.35431 8.85929 5.69236 8.67937 5.99003C8.66082 6.02073 8.64252 6.051 8.62468 6.08094C8.48856 6.30921 8.38542 6.50884 8.38542 6.50884L7.79507 6.89941C7.79507 6.89941 7.24638 6.97406 6.74832 7.31632C6.44324 7.52694 6.14047 7.91318 5.89021 8.36306C5.74529 8.61681 5.62435 8.9111 5.52572 9.15111C5.51684 9.17271 5.50815 9.19387 5.49963 9.21452C5.36361 9.55076 5.31169 9.81555 5.26769 10.0399C5.22584 10.2533 5.19116 10.4301 5.09806 10.597C4.93464 10.8836 4.90027 11.0671 4.89341 11.1193C4.96016 11.007 5.37181 10.3175 5.33192 10.4588C5.29474 10.6277 5.19145 10.8713 5.02249 11.1478C4.91906 11.3184 4.89955 11.4857 4.87883 11.6634C4.8657 11.7759 4.85209 11.8926 4.81635 12.0169C4.75069 12.2508 4.6658 12.5129 4.58954 12.7485C4.50267 13.0167 4.42699 13.2505 4.40365 13.3686C4.35984 13.5902 4.3926 13.8773 4.44086 14.3004L4.44097 14.3013C4.4546 14.433 4.45233 14.5795 4.45003 14.7285C4.44788 14.8673 4.4457 15.0084 4.4563 15.1418C4.4738 15.3261 4.53311 15.5104 4.58143 15.5807C4.66415 15.7058 4.69031 15.8618 4.71251 15.9942C4.72106 16.0452 4.72902 16.0927 4.7394 16.1335C4.76349 16.2273 4.8031 16.3039 4.84129 16.3778C4.8657 16.425 4.88952 16.4711 4.90836 16.5198C4.93946 16.5908 4.96 16.7105 4.98277 16.8432C5.00014 16.9445 5.01882 17.0533 5.04448 17.154C5.08855 17.3098 5.14886 17.4606 5.22444 17.6039L5.2091 17.6368C5.2091 17.6368 4.7595 16.7854 4.58591 16.173C4.48494 15.8043 4.35981 15.2887 4.29399 14.4481C4.2289 13.6143 4.32119 12.9671 4.42419 12.3546C4.49812 11.915 4.70331 11.4779 4.81323 11.2662L4.80397 11.2817C4.80397 11.2817 5.19455 9.10704 5.58512 8.33674C5.83972 7.82103 6.19298 7.39313 6.45857 7.15401C6.56657 7.05302 6.66609 7.00498 6.73735 6.97059C6.75438 6.96237 6.7698 6.95493 6.78333 6.94773C6.93625 6.86362 7.2592 6.81559 7.44539 6.7879C7.50225 6.77944 7.54636 6.77288 7.56897 6.76777C7.62408 6.75678 7.98804 6.60966 8.23165 6.39904C8.41179 6.24072 8.50632 6.03864 8.5581 5.92795C8.56877 5.90514 8.57763 5.88621 8.58505 5.87234C8.66457 5.73078 8.69137 5.51665 8.71491 5.32853C8.72057 5.28328 8.72604 5.23954 8.73202 5.19867C8.74192 5.1309 8.75499 5.06248 8.76902 4.98894C8.79865 4.83375 8.83263 4.65575 8.85049 4.41303C8.87293 4.10816 8.88927 3.78743 8.91653 3.25244L8.91686 3.246C8.9215 3.15506 8.92645 3.05796 8.93179 2.95372Z" fill="#806638"/>
<path d="M16.0086 5.24907C16.296 5.24907 16.465 5.17891 16.465 5.17891L16.588 5.18542L16.3882 5.59191L15.8506 5.63531L13.1755 5.59799C13.1755 5.59799 12.1287 5.49051 12.368 5.49485C12.5343 5.49707 13.0526 5.42769 13.6268 5.35084C14.326 5.25725 15.108 5.15259 15.4381 5.15259C15.655 5.15259 15.7298 5.18236 15.7963 5.20883C15.8495 5.23001 15.8974 5.24907 16.0086 5.24907Z" fill="#806638"/>
<path d="M22.8284 17.7631L22.8288 17.764L22.8283 17.7642L22.8284 17.7631Z" fill="#806638"/>
<path d="M22.8284 17.7631C22.8226 17.7471 22.74 17.5172 22.7146 17.3076C22.7042 17.2212 22.7089 17.1624 22.7133 17.1073C22.72 17.0236 22.726 16.9484 22.6773 16.7985C22.641 16.6847 22.5825 16.6684 22.5463 16.6583C22.5344 16.655 22.5248 16.6523 22.5193 16.647C22.4974 16.6258 22.482 16.3969 22.4864 16.2718C22.4907 16.1467 22.482 15.9844 22.46 15.9141C22.4272 15.8877 22.4052 15.8657 22.3569 15.7034C22.3538 15.6943 22.3508 15.6854 22.3479 15.6768L22.3426 15.6611C22.2973 15.5265 22.2733 15.4555 22.2494 15.4117C22.2388 15.3923 22.22 15.3735 22.2013 15.3549C22.1736 15.3274 22.1461 15.3001 22.1461 15.2712C22.1461 15.2078 22.1839 15.1644 22.2099 15.1344C22.2235 15.1187 22.2339 15.1068 22.2339 15.0976C22.2312 15.0629 22.2038 15.0678 22.1796 15.0721C22.1655 15.0746 22.1526 15.077 22.1461 15.0713C22.1357 15.0587 22.1478 15.0159 22.1602 14.9723C22.1737 14.9249 22.1875 14.8765 22.1726 14.865C22.1681 14.8606 22.1528 14.8732 22.1349 14.8879C22.1086 14.9094 22.0767 14.9356 22.065 14.92C22.0529 14.9055 22.0396 14.8208 22.0236 14.7187C22.0102 14.6341 21.9951 14.5376 21.9772 14.4591C21.9598 14.3802 21.9419 14.3113 21.9273 14.2552C21.9107 14.1912 21.8983 14.1437 21.896 14.1168C21.8917 14.0686 21.5944 13.2207 21.5212 13.0121L21.5208 13.0108C21.4625 12.8365 21.4134 12.6592 21.3738 12.4797C21.364 12.4336 21.3554 12.3659 21.3481 12.3071C21.339 12.2346 21.3316 12.1757 21.3255 12.1878C21.3208 12.1971 21.3193 12.2218 21.3178 12.2467C21.3158 12.2808 21.3137 12.3154 21.3035 12.3129C21.2945 12.3103 21.2719 12.1801 21.2512 12.0609C21.2367 11.977 21.2231 11.8986 21.2158 11.8741C21.2109 11.8551 21.1981 11.8216 21.1823 11.78C21.1486 11.6917 21.101 11.5671 21.0856 11.4681C21.0654 11.333 21.0231 10.9979 20.9908 10.7419L20.9825 10.6758C20.9771 10.6332 20.9722 10.5947 20.9677 10.5598C20.9449 10.3808 20.9342 10.2966 20.9342 10.2419C20.9396 10.0819 20.9308 9.92186 20.9079 9.76349C20.8645 9.4869 20.7777 9.15115 20.7016 8.95601C20.6661 8.86706 20.6165 8.74467 20.5606 8.60684C20.3848 8.17331 20.147 7.58701 20.094 7.40889C20.094 7.34958 20.1708 7.38256 20.1708 7.38256C20.1708 7.38256 20.3616 7.86095 20.5021 8.22953C20.6382 8.59827 20.7677 8.92303 20.8007 8.95601C20.827 8.98884 21.0333 9.35092 21.1254 9.94344C21.1781 10.2822 21.2114 10.6059 21.2405 10.8891C21.2624 11.1012 21.2818 11.2906 21.3054 11.4466C21.3094 11.473 21.3133 11.4996 21.3172 11.5265C21.3391 11.6762 21.362 11.8324 21.4085 11.9886C21.4481 12.1224 21.5025 12.259 21.5704 12.4296C21.6039 12.5138 21.6407 12.6062 21.6806 12.7106C21.7838 12.9762 21.8606 13.1978 21.9022 13.3888C21.9286 13.5217 21.9406 13.637 21.9506 13.7339C21.959 13.8146 21.9661 13.8826 21.979 13.9375C21.9858 13.9636 21.9933 13.9964 22.0023 14.0357C22.0289 14.1511 22.0683 14.3225 22.1372 14.545C22.2295 14.8433 22.3653 15.2275 22.4574 15.4666C22.6375 15.945 22.7178 16.3444 22.745 16.5574C22.769 16.7764 22.85 17.5335 22.8284 17.7631Z" fill="#806638"/>
<path fill-rule="evenodd" clip-rule="evenodd" d="M6.62021 11.3679C6.64033 11.3253 6.6637 11.2944 6.68311 11.2734C6.72724 11.2835 6.77031 11.2981 6.81166 11.3168C6.78821 11.317 6.76478 11.3185 6.7415 11.3213C6.78085 11.3275 6.82917 11.3647 6.82917 11.3647C6.82917 11.3647 6.8445 11.3319 6.89498 11.3384C6.91089 11.3401 6.92551 11.3479 6.93575 11.3602C6.94598 11.3725 6.95103 11.3882 6.94981 11.4042C6.94981 11.4138 6.93231 11.4291 6.91458 11.4447C6.89967 11.4578 6.88461 11.471 6.87965 11.481C6.8688 11.503 6.90149 11.5228 6.93448 11.5403C6.94466 11.5457 6.96047 11.5474 6.97747 11.547C6.97747 11.547 6.78659 11.5471 6.74927 11.5735C6.72203 11.5927 6.83624 11.6272 6.92723 11.6546C6.9609 11.6648 6.99143 11.674 7.01038 11.6811C7.08054 11.7074 7.232 11.8281 7.27149 11.9247C7.30881 12.0169 8.64299 12.5544 8.64299 12.5544L8.83638 12.5445L8.59369 13.5642L8.38741 14.5737L8.79998 15.5718L9.63755 15.9041H10.5544L10.7762 14.8245L11.274 14.1864L11.1105 14.8718L11.547 15.7674L11.0138 16.5286L8.17687 16.4464L6.57695 15.9197C6.57695 15.9197 6.46295 15.9137 6.42997 15.957C6.54375 16.0891 6.59364 16.2064 6.65994 16.3622C6.70491 16.4679 6.75742 16.5914 6.84254 16.7492C6.90272 16.8596 6.97534 16.9793 7.04278 17.0905C7.08394 17.1583 7.12316 17.223 7.15645 17.2804C7.21419 17.3786 7.26691 17.4796 7.31441 17.5832C7.31441 17.5832 7.76864 17.8712 7.85645 17.9146C7.78483 17.9475 7.74386 17.9769 7.68243 18.0211C7.67425 18.027 7.6657 18.0331 7.65667 18.0395C7.7476 18.0879 7.81619 18.0747 7.88901 18.0607C7.95508 18.0481 8.02465 18.0347 8.11755 18.066C8.15973 18.0803 8.19516 18.1516 8.24211 18.2462C8.33929 18.4419 8.48585 18.7371 8.84388 18.8318C9.05682 18.8867 9.67567 18.5994 9.78315 18.5444C9.8364 18.5172 9.90853 18.449 9.96777 18.3872L10.2657 18.9512L11.9949 19.4932L13.6342 20.178L13.7731 20.2742L13.638 20.3074L11.8956 20.9197L10.4626 22.2386L9.20969 23.3775C9.20969 23.3775 9.10056 23.7065 8.67811 23.8609L8.81076 23.6888L8.7406 21.6764L8.04711 20.9217L6.9412 20.1779L6.19288 19.4514L5.61135 18.3674L5.4599 18.1831L5.23828 17.5534C5.22998 17.5486 5.22114 17.545 5.21195 17.5424C5.21629 18.7889 4.7664 19.0983 4.7664 19.0983C4.7664 19.0983 4.81906 19.1751 4.88488 19.2673C4.88663 19.2697 4.88839 19.2722 4.89016 19.2746L4.89567 19.2823C4.95882 19.3703 5.02776 19.4663 5.032 19.6095C5.03542 19.7099 4.97399 19.8339 4.91017 19.9627C4.85255 20.0789 4.79298 20.1992 4.7774 20.3095C4.75849 20.4605 4.76878 20.605 4.78179 20.7876C4.78391 20.8173 4.7861 20.8481 4.78825 20.8801C4.79574 20.9769 4.77567 21.0734 4.73991 21.2452C4.72321 21.3254 4.70309 21.4221 4.68077 21.5429C4.65505 21.6859 4.63989 21.8744 4.62134 22.1049C4.60516 22.3062 4.58639 22.5395 4.55578 22.8024C4.5539 22.8193 4.55203 22.8358 4.55015 22.8523C5.38634 23.6659 6.3286 24.3618 7.35081 24.9212L7.35098 24.922C8.61779 25.6151 9.99306 26.0881 11.4182 26.321L17.7803 25.3457L22.37 22.9485C22.3762 22.9427 22.3823 22.9367 22.3884 22.9307C22.393 22.9262 22.3976 22.9217 22.4022 22.9173L22.489 20.0835L22.3266 18.9994L21.3171 18.9336C21.3171 18.9336 20.4703 19.1924 19.6517 19.4612L19.7151 19.4099C20.099 19.0083 20.8365 18.4005 20.9945 18.2863C20.9819 18.3754 20.9238 18.539 20.8542 18.7351C20.826 18.8144 20.7959 18.8991 20.7662 18.9863C20.81 18.9095 20.9835 18.7471 21.0866 18.6549C21.1897 18.5616 21.5391 18.358 21.7102 18.2583L21.7376 18.2424C21.7209 18.3151 21.7121 18.3895 21.7112 18.4641C21.7112 18.4641 21.8465 18.1329 21.9716 17.8936C22.0968 17.6543 22.1669 17.2747 22.1669 17.2747L22.1663 17.2743C22.1663 17.2743 22.0852 17.3841 21.9952 17.4454C21.9404 17.1908 21.9404 17.011 22.0215 16.7125C21.9049 17.0128 21.7351 17.0281 21.5685 17.0432L21.5607 17.0439C21.4799 16.6576 21.4953 15.8986 21.5173 15.725C21.4962 15.7861 21.4411 15.8627 21.3898 15.9338C21.3712 15.9596 21.3531 15.9847 21.3373 16.0081C21.3263 15.9555 21.2517 15.9003 21.1968 15.8677C21.1618 15.8467 21.1518 15.8014 21.1405 15.7502C21.1342 15.7213 21.1274 15.6906 21.1155 15.6614C20.9247 15.7755 20.7953 15.7975 20.7953 15.7975C20.7953 15.7975 21.0564 15.6635 21.256 15.115C21.437 14.6238 21.3785 14.3389 21.324 14.0727C21.311 14.0095 21.2983 13.9474 21.289 13.8838C21.0499 14.6541 20.545 15.2663 20.545 15.2663C20.545 15.2663 20.5495 15.2225 20.5342 15.0974C20.4916 15.1826 20.4639 15.2582 20.4324 15.3447C20.3712 15.5124 20.2952 15.7207 20.0666 16.1178C19.7852 16.6066 19.5099 16.6696 19.3466 16.656L19.4324 16.3504C19.8933 15.5422 20.2865 14.3056 20.2729 13.3623C20.2579 12.4509 19.8824 11.9708 19.6894 11.7455L19.421 10.2831L15.9668 10.022L14.3672 11.5472L12.1902 11.8894L11.9387 12.3925C11.9391 12.387 11.9395 12.3825 11.9397 12.3794L11.9402 12.3736L11.87 11.6078L11.4751 11.3685L11.154 11.0585L10.851 11.629L10.7958 11.6841C10.8182 11.5896 10.8311 11.4928 10.8341 11.3954L10.7199 10.5549L10.2219 9.92509L9.63629 10.2498L9.15219 10.3274L7.76969 11.1519L7.63782 11.2024L8.23626 10.6893L8.15463 10.5249L8.23054 10.4738L7.55687 9.64429L7.23645 8.06636L7.17063 7.2259L6.6111 7.18858L6.0734 7.78992L5.52052 8.79269L5.20661 9.77376L5.06615 10.3596L4.84916 11.0706L4.88214 11.1254C4.83897 11.3052 4.83652 11.3461 4.82994 11.4561C4.82817 11.4858 4.82609 11.5205 4.82283 11.5643C4.85952 11.2604 5.10086 10.9274 5.29575 10.6584C5.33443 10.6051 5.3713 10.5542 5.40436 10.5066C5.50316 10.364 5.55798 10.2455 5.56247 10.2235C5.569 10.199 5.56546 10.1692 5.56154 10.1362C5.55495 10.0807 5.54727 10.0161 5.58446 9.9514C5.60407 9.91703 5.6474 9.90244 5.70149 9.88423C5.76829 9.86174 5.8515 9.83373 5.92672 9.75611C5.99902 9.68207 6.06313 9.57817 6.12522 9.47755C6.21765 9.32775 6.3056 9.18522 6.40944 9.15926C6.65739 9.09561 6.85933 9.18775 6.90765 9.40937C6.94035 9.56702 6.79496 9.68039 6.67067 9.77731C6.61135 9.82357 6.55683 9.86608 6.52879 9.90786C6.45793 10.0134 6.45986 10.0948 6.46532 10.3253C6.46655 10.3771 6.46796 10.4365 6.46875 10.5054C6.47309 10.8807 6.57681 11.2977 6.62021 11.3679ZM9.91193 12.0566L9.72024 11.8887C9.84868 11.8621 9.95914 11.8446 10.033 11.8605C10.0407 11.8624 10.0483 11.8643 10.0558 11.8661C10.2154 11.9057 10.3107 11.9293 10.428 12.1327C10.531 12.2993 10.6235 12.3548 10.6576 12.3707L10.6602 12.3766C10.683 12.3836 10.7066 12.3874 10.7304 12.3876C10.7041 12.4096 10.6491 12.4578 10.6711 12.5829C10.6768 12.6154 10.6857 12.65 10.6948 12.6852C10.7203 12.7839 10.7469 12.8871 10.7065 12.9584C10.6405 12.8839 10.5501 12.8479 10.4608 12.8124C10.3742 12.7779 10.2886 12.7438 10.2276 12.6753C10.1321 12.5696 10.0892 12.4583 10.0518 12.3611C10.0087 12.2491 9.97282 12.156 9.87185 12.112L9.91193 12.0566Z" fill="#D8C47C"/>
<path fill-rule="evenodd" clip-rule="evenodd" d="M5.01354 10.9175L4.62296 12.1002L4.34652 13.4717L4.36185 14.591L4.43043 14.8904C4.42327 14.9242 4.41874 14.9458 4.41874 14.9458L4.45606 15.4286L4.63602 16.0913L4.80961 16.5253L4.97857 17.0563L5.1254 17.4131L5.24387 17.6852L5.34701 18.2975L5.84507 18.824L6.11066 18.9427L6.26349 18.8644L7.79631 20.2608L10.8729 21.0419L12.6965 20.5047L14.9809 19.5391L15.5535 18.925C15.5432 18.9296 15.1957 19.0845 14.6008 19.0782C14.6355 19.0506 14.6808 18.9936 14.7316 18.9296C14.8143 18.8256 14.9115 18.7032 15.0011 18.6591C15.0411 18.6388 15.0785 18.6228 15.1144 18.6074C15.2143 18.5647 15.3025 18.5269 15.4026 18.4155C15.4257 18.3887 15.446 18.3636 15.4652 18.3399C15.5589 18.2238 15.6269 18.1397 15.8744 18.036C16.2914 17.8559 16.0046 17.6232 16.0046 17.6232C16.0505 17.5781 16.0996 17.5364 16.1515 17.4983C16.2592 17.4171 16.3842 17.3183 16.3733 17.1449C16.358 16.8531 16.3031 16.4295 16.0639 16.1838C16.1619 16.1634 16.2976 16.1458 16.4425 16.127C16.6418 16.1012 16.8584 16.073 17.0186 16.0324C17.3389 15.9511 17.486 15.837 17.486 15.837C17.486 15.837 17.3017 15.5232 17.6001 15.2073C17.6719 15.1313 17.7405 15.0627 17.8059 14.9973C18.0121 14.791 18.1855 14.6176 18.3221 14.3492C18.298 14.3461 18.2724 14.3419 18.2448 14.3373C18.0357 14.3029 17.7076 14.2489 16.9988 14.5182C17.0421 14.5385 17.0839 14.562 17.1239 14.5883C17.1239 14.5883 16.6302 14.7244 16.4503 14.8759C16.3234 14.9832 16.2413 15.0826 16.1661 15.1738C16.0553 15.3081 15.9594 15.4243 15.7568 15.5211C15.5772 15.6068 15.3971 15.6351 15.2253 15.662C15.0717 15.686 14.9249 15.709 14.7913 15.7712C14.6147 15.8533 14.5321 15.9278 14.4698 15.984C14.4322 16.0178 14.4021 16.0449 14.3633 16.0631C14.3725 16.0741 14.3732 16.0882 14.374 16.1036C14.3751 16.125 14.3764 16.1489 14.4006 16.1706C14.3984 16.1737 14.3953 16.1783 14.3914 16.1841C14.3486 16.2479 14.2077 16.458 14.0648 16.458C14.0802 16.5173 14.2118 16.5612 14.2118 16.5612C14.2118 16.5612 14.1153 16.6315 13.8696 16.649C13.8828 16.6628 13.8959 16.6767 13.9093 16.6908C14.022 16.8099 14.1478 16.9429 14.4401 17.1274C14.433 17.1421 14.42 17.1587 14.4055 17.1771C14.3659 17.2274 14.3158 17.2911 14.3479 17.3666C14.3963 17.4698 14.5215 17.6102 15.0216 17.7244C14.954 17.7272 14.8834 17.7335 14.8085 17.7402C14.6014 17.7587 14.3621 17.78 14.0669 17.7397C13.9967 17.7313 13.9368 17.7234 13.8843 17.7166C13.6367 17.6842 13.5562 17.6736 13.3515 17.7244C13.3613 17.7341 13.3771 17.7403 13.3963 17.7477C13.4287 17.7603 13.4708 17.7767 13.5095 17.8209C13.4989 17.8215 13.4794 17.8208 13.4536 17.8198C13.3183 17.8144 13.0086 17.8021 12.8907 17.957C12.7477 18.1426 12.6836 18.4447 12.6903 18.6549C12.6074 18.6523 12.4677 18.665 12.2797 18.7427C12.0815 18.8233 11.89 18.8479 11.7058 18.8715C11.5922 18.8861 11.4814 18.9003 11.3734 18.927C11.1911 18.9722 11.0097 18.8355 10.8456 18.7119C10.7549 18.6435 10.6695 18.5791 10.5923 18.5518C10.3753 18.4706 10.0876 18.2753 10.0876 18.2753L9.47999 18.216L8.25994 17.7003L6.78592 16.2318L6.67642 15.5169L6.27037 14.4593L5.54838 13.4937L5.53279 13.1114L6.52768 11.3409L6.97756 10.0286L5.4789 10.1537L5.01354 10.9175ZM5.98857 18.349L6.06988 18.5167L6.01649 18.4422C6.01649 18.4422 6.00151 18.4049 5.98857 18.349ZM6.56974 16.0164L6.52177 15.9686C6.53749 15.9804 6.55357 15.9967 6.56974 16.0164Z" fill="#E6DB9D"/>
<path fill-rule="evenodd" clip-rule="evenodd" d="M7.79664 8.36787C7.7747 8.38338 7.75162 8.39713 7.72762 8.40902C7.68323 8.47982 7.63735 8.56599 7.60334 8.66139C7.51105 8.92033 7.49572 9.20342 7.49572 9.20342L7.49138 9.28458C7.49138 9.28458 7.32459 9.53918 7.25877 9.61599C6.9193 9.23009 6.96683 8.66386 6.97491 8.56761C6.97524 8.5637 6.9755 8.56056 6.97567 8.55825C6.86154 8.7058 6.75391 8.7492 6.72107 8.7492C6.70342 8.7492 6.69338 8.7283 6.68375 8.70828C6.67547 8.69104 6.6675 8.67446 6.65525 8.67238C6.64529 8.67238 6.5983 8.69093 6.54256 8.71293C6.51251 8.72479 6.4798 8.7377 6.44912 8.7492C6.3277 7.81395 6.70525 7.49291 6.78051 7.42891C6.78558 7.4246 6.7893 7.42144 6.79138 7.41935C6.73207 7.35802 6.73207 7.25039 6.73207 7.25039C6.73207 7.25039 6.72122 7.23954 6.69923 7.21322C6.97582 7.13828 7.32444 7.00245 7.64949 6.85548C7.77462 6.80051 7.90394 6.74134 8.04007 6.67118C8.44496 6.45794 8.66594 6.40117 8.67402 6.39914L8.6959 6.47262C8.74894 6.41215 8.81072 6.34944 8.88288 6.2848C9.40958 5.81292 9.61572 5.65061 9.61572 5.65061L10.4672 5.22272L11.5139 5.63528L10.9939 7.67351L10.5901 8.62826L10.5483 8.62037C10.5226 8.72082 10.4907 8.79398 10.4644 8.84289L10.5069 8.83481V9.41417L10.2851 10.0483C10.2851 10.0483 10.2666 10.0898 10.2418 10.1375L10.3026 10.0504L11.2023 8.63929L11.5247 8.1927C11.5262 8.18825 11.527 8.18589 11.527 8.18589L11.9439 7.18775L13.1311 6.02686L14.9745 5.90188L15.1544 6.85662L16.0542 7.16605L16.3799 7.66283L16.6027 7.50513L18.5342 9.19329L18.8273 10.0449L18.8349 10.0595L19.0785 10.764C18.9802 10.7174 18.8735 10.6913 18.7648 10.6872C18.6918 10.6851 18.5397 10.696 18.377 10.7078C18.1676 10.7229 17.9408 10.7392 17.8431 10.7306C17.8093 10.7276 17.7737 10.7241 17.7358 10.7204C17.5792 10.705 17.3835 10.6859 17.1167 10.6824C16.7856 10.6824 16.6383 10.5794 16.6383 10.5794C16.6383 10.5794 16.5571 10.6124 16.4167 10.6167C16.3565 10.6167 16.2991 10.6099 16.2336 10.602C16.1461 10.5916 16.0439 10.5794 15.901 10.5794C15.7616 10.5794 15.6629 10.6596 15.5822 10.7252L15.5805 10.7265C15.5193 10.7763 15.4767 10.816 15.4596 10.8324C15.5266 10.834 15.5936 10.8287 15.6596 10.8167C15.6428 10.8198 15.6261 10.8251 15.6094 10.8325C15.6267 10.831 15.645 10.8293 15.664 10.8272C15.589 10.8395 15.5112 10.8994 15.4346 10.9879C15.4362 10.9879 15.4379 10.9878 15.4396 10.9877C15.3865 11.0479 15.3335 11.1222 15.2798 11.2037C15.2725 11.2156 15.2652 11.2276 15.258 11.2398L15.2568 11.2392C15.236 11.2713 15.2152 11.3044 15.1943 11.338C15.0802 11.5333 14.955 11.6651 14.8849 11.7243C14.7552 11.8422 14.5761 11.9021 14.3683 11.9716C14.3441 11.9797 14.3194 11.9879 14.2945 11.9964C14.1879 12.0324 14.0688 12.0952 13.9396 12.1632C13.6753 12.3025 13.3688 12.4639 13.0415 12.4639C12.9379 12.4639 12.855 12.4344 12.7761 12.4062C12.7013 12.3796 12.63 12.3542 12.5478 12.3563C12.4952 12.3574 12.4436 12.3702 12.3965 12.3936L12.3944 12.3888C12.3426 12.4113 12.2934 12.4406 12.2482 12.4689C12.0974 12.5603 11.971 12.6868 11.8796 12.8375C11.8912 12.7015 11.8411 12.4578 11.8362 12.436C11.8317 12.4158 11.8132 12.4198 11.7931 12.424C11.7914 12.4244 11.7896 12.4247 11.7879 12.4251C11.777 12.3 11.7222 11.9971 11.7222 11.9971C11.7214 12.0283 11.7162 12.0593 11.7069 12.0892C11.6804 11.9356 11.6102 11.736 11.6102 11.736H11.6146V11.1238L11.9723 10.7222L13.6839 10.088L14.6403 9.13164L14.4176 8.35577L14.1119 8.77107L13.7586 8.69007L13.8405 8.94234L13.5576 9.50202L13.0045 9.7938L12.4297 10.1032C12.4297 10.1032 12.2739 10.1839 12.1158 10.1405C12.0214 10.1153 12.022 10.0273 12.0226 9.94862C12.0229 9.89738 12.0232 9.85012 11.9973 9.82678C11.9843 9.81572 11.9537 9.82326 11.912 9.83349C11.899 9.83667 11.885 9.84012 11.8701 9.84334L11.6108 10.2473L11.4923 10.5831L11.3621 11.1251L11.3401 11.3644C11.3401 11.3644 11.237 11.3929 11.2325 11.338C11.225 11.2926 11.2103 11.2487 11.1891 11.2078C11.1688 11.3147 11.1394 11.4197 11.1013 11.5216C11.0356 11.7016 10.9279 11.7827 10.862 11.8092C10.8158 11.829 10.7723 11.8548 10.7327 11.886C10.7327 11.886 10.7217 11.7785 10.7371 11.7017C10.7454 11.6432 10.7499 11.5672 10.7516 11.5387C10.7519 11.5337 10.7521 11.53 10.7522 11.5284C10.7522 11.5272 10.7523 11.5271 10.7522 11.5284C10.7447 11.5415 10.7359 11.5539 10.7261 11.5654C10.6668 11.3859 10.6559 11.0387 10.6559 11.0387C10.6623 11.045 10.6697 11.0502 10.6777 11.0541C10.6622 11.0313 10.6531 11.0048 10.6514 10.9773C10.6442 10.9906 10.6405 11.0055 10.6406 11.0206C10.5635 10.9504 10.5215 10.8644 10.5022 10.8248C10.4945 10.8089 10.4904 10.8005 10.4891 10.8037C10.485 10.8107 10.4813 10.818 10.4781 10.8255C10.4631 10.7949 10.4521 10.7624 10.4453 10.729C10.4397 10.7013 10.4426 10.668 10.4454 10.6357C10.4481 10.6039 10.4507 10.573 10.4453 10.5491C10.4283 10.567 10.4082 10.5817 10.386 10.5925C10.386 10.5925 10.3795 10.5376 10.3751 10.5003C10.3685 10.4631 10.3685 10.4565 10.3905 10.4082C10.1885 10.3973 10.1402 10.2832 10.1402 10.2832L10.1447 10.2766C10.1325 10.2583 10.1223 10.2251 10.1138 10.1974C10.107 10.1751 10.1012 10.1564 10.0963 10.1515C10.0854 10.1405 10.07 10.1625 10.07 10.1625C10.0655 10.1735 10.0437 10.1845 10.0437 10.1845C10.0467 10.1913 10.0522 10.1968 10.059 10.1998C9.76653 10.2436 9.53826 10.4061 9.53826 10.4061C9.53437 10.3961 9.52782 10.3873 9.5193 10.3807C9.51078 10.3741 9.50063 10.37 9.48994 10.3688C9.45088 10.3621 9.44654 10.4279 9.44654 10.4279C9.44654 10.4279 9.37841 10.4479 9.24677 10.5356C9.19101 10.5727 9.14155 10.6193 9.08487 10.6727C9.00776 10.7454 8.91729 10.8307 8.77938 10.9218C8.73097 10.9557 8.71611 10.9966 8.69874 11.0445C8.67125 11.1201 8.63747 11.2131 8.45462 11.3234C8.17972 11.4931 7.97 11.471 7.8786 11.4614C7.8708 11.4606 7.8638 11.4599 7.85776 11.4593C7.78095 11.4528 7.73929 11.3782 7.74363 11.3124C7.68039 11.3124 7.56826 11.3603 7.44829 11.4116C7.31028 11.4706 7.16189 11.534 7.06562 11.534C7.15111 11.5121 7.40137 11.3387 7.4342 11.2795C7.46487 11.2137 7.55268 11.0776 7.64483 10.9701C7.70101 10.9012 7.78593 10.8297 7.8467 10.7785C7.8809 10.7497 7.90745 10.7273 7.91693 10.7155C7.93892 10.6827 7.88409 10.6607 7.85125 10.6562C7.90608 10.597 8.14968 10.4346 8.14968 10.4346H8.14911L8.24125 10.2393L8.78711 9.67376C8.79116 9.66796 8.79516 9.66219 8.79911 9.6565C8.81406 9.63497 8.82834 9.61441 8.84227 9.5963C9.11871 9.24521 9.05304 9.08724 9.05304 9.08724C8.92863 9.11386 8.83605 9.02143 8.79265 8.94027C8.7727 8.90379 8.76141 8.8632 8.75967 8.82165C8.78046 8.83059 8.80368 8.83217 8.82549 8.82614C8.849 8.81632 8.84806 8.77317 8.84759 8.75158C8.84753 8.74899 8.84748 8.74671 8.84748 8.74484C8.84748 8.72734 8.82607 8.723 8.80408 8.723C8.81299 8.71652 8.8205 8.70831 8.82617 8.69887C8.83183 8.68942 8.83554 8.67893 8.83706 8.66803C8.82108 8.67066 8.80494 8.67216 8.78875 8.67251C8.76864 8.67095 8.74876 8.66727 8.72944 8.66152C8.71325 8.66185 8.69711 8.6633 8.68112 8.66586C8.68707 8.65997 8.69094 8.6523 8.69212 8.64401C8.69212 8.63869 8.68798 8.63594 8.68321 8.63278C8.67814 8.62942 8.67237 8.62559 8.67013 8.61768C8.52316 8.75366 8.04029 8.68784 8.04029 8.68784H8.03971C8.18274 8.62813 8.2269 8.59461 8.34011 8.50868C8.38158 8.4772 8.43232 8.43868 8.50059 8.38927C8.52189 8.37358 8.54268 8.35728 8.56296 8.34053L7.79664 8.36787ZM9.42021 8.40766C9.41704 8.65825 9.38628 8.9175 9.31298 9.18029C9.36531 9.08941 9.47165 8.9322 9.66131 8.75366C9.76025 8.66053 9.84666 8.57776 9.91973 8.50185L9.42021 8.40766Z" fill="#CAAE5B"/>
<path d="M10.512 25.6782C10.5063 25.6834 10.5006 25.6886 10.495 25.6938C10.5042 25.7087 10.5133 25.7326 10.5133 25.7694C10.5695 25.7371 10.6212 25.7257 10.6669 25.7156C10.705 25.7072 10.7389 25.6996 10.7679 25.6818C10.7752 25.6974 10.7825 25.7211 10.791 25.7487C10.8209 25.8454 10.8658 25.9909 10.9785 26.013C11.1298 26.046 11.2922 25.9472 11.4569 25.8222C11.4886 25.7969 11.5212 25.7703 11.5541 25.7435C11.6897 25.6329 11.8314 25.5174 11.9439 25.4645C11.9952 25.5588 12.0407 25.6563 12.08 25.7563C12.1296 25.7167 12.1891 25.6445 12.2584 25.5604C12.4467 25.332 12.7076 25.0153 13.0412 25.0233C13.1731 24.7115 13.3935 24.4453 13.675 24.2574C14.0986 23.97 14.3641 23.948 14.6955 23.9743C14.8271 23.8034 14.9893 23.6583 15.1739 23.5465C15.1803 23.549 15.188 23.5525 15.1969 23.5566C15.2646 23.5875 15.4022 23.6503 15.5689 23.5728C15.6434 23.5386 15.7216 23.4659 15.8061 23.3874C15.938 23.2647 16.0853 23.1278 16.2579 23.101C16.4105 23.0801 16.5656 23.1126 16.6968 23.1932C16.6968 23.1932 17.5214 22.3746 18.0903 22.1025C18.0683 22.0367 18.0245 21.7887 18.6915 21.24C18.7116 21.2578 18.7133 21.2928 18.7146 21.3221C18.7157 21.3471 18.7167 21.3679 18.7288 21.3702C18.7397 21.3702 18.9024 21.3001 19.1084 21.1419C19.363 20.9511 19.6679 20.7514 19.8522 20.6965C20.1994 20.5934 20.5677 20.804 20.5677 20.804C20.599 20.7821 20.6339 20.7657 20.6709 20.7557L20.6749 20.755C20.7605 20.74 20.8229 20.7291 20.8705 20.7123C20.8691 20.7494 20.8749 20.7952 20.8813 20.8458C20.8946 20.9507 20.9105 21.0767 20.8705 21.1907C20.9392 21.2293 21.012 21.2602 21.0875 21.2828C21.0837 21.291 21.0796 21.3004 21.0749 21.3108C21.0334 21.4043 20.9553 21.5802 20.833 21.6691C20.8798 21.6916 20.9099 21.7155 20.9404 21.7398C20.9843 21.7747 21.029 21.8102 21.1248 21.8427C21.059 21.9348 20.9512 22.0929 20.9032 22.1898C20.8824 22.2342 20.8385 22.3387 20.789 22.4563L20.7889 22.4566L20.7886 22.4572L20.7885 22.4576C20.7231 22.613 20.6483 22.791 20.6046 22.8832C20.5724 22.9476 20.5358 23.0334 20.5 23.1172C20.4455 23.2448 20.3929 23.3678 20.361 23.404C20.3485 23.4181 20.3283 23.4432 20.3028 23.4748C20.2204 23.5768 20.0826 23.7473 19.9704 23.8427C20.1006 23.7944 20.6333 23.6321 20.8592 23.5706C20.7919 23.6693 20.451 24.1751 20.1232 24.6616C18.5537 25.6023 16.8018 26.1977 14.9841 26.4081C13.1665 26.6186 11.3248 26.4392 9.58195 25.882L9.58244 25.8809C8.76355 25.6183 7.97263 25.2735 7.22189 24.8514V24.8258C7.24035 24.8143 7.25666 24.7996 7.27006 24.7824C7.27579 24.7742 7.28094 24.7654 7.2857 24.7572C7.29368 24.7435 7.30059 24.7317 7.30738 24.7276C7.32937 24.7166 7.43251 24.6842 7.48733 24.6946C7.50538 24.698 7.53319 24.7068 7.56513 24.7169C7.6302 24.7374 7.71239 24.7633 7.76392 24.7604C7.81894 24.7589 7.87715 24.7433 7.94199 24.7259C8.06332 24.6933 8.20785 24.6544 8.3981 24.6903C8.68943 24.7441 8.83283 24.8937 8.97078 25.0377C9.04065 25.1106 9.10913 25.182 9.19473 25.2388C9.34331 25.3403 9.49633 25.3163 9.55386 25.3072C9.56354 25.3057 9.57052 25.3046 9.57432 25.3046H9.63348C9.63701 25.3046 9.64779 25.2951 9.66225 25.2824C9.69279 25.2554 9.73976 25.2139 9.76961 25.217C9.81901 25.2194 9.84336 25.2434 9.86498 25.2647C9.88178 25.2813 9.89694 25.2962 9.92092 25.2981C9.9793 25.305 10.0622 25.2923 10.1472 25.2793C10.2506 25.2635 10.3571 25.2472 10.4258 25.2653C10.4629 25.2769 10.4966 25.2973 10.5241 25.3248C10.5516 25.3523 10.5721 25.386 10.5837 25.4231C10.6101 25.5043 10.5881 25.6074 10.5244 25.6667L10.512 25.6782Z" fill="#CAAE5B"/>
<path d="M8.45286 21.848C8.45286 21.848 8.40947 21.6856 8.00732 21.2665C7.95409 21.2112 7.91043 21.1603 7.8712 21.1146C7.82631 21.0623 7.7872 21.0166 7.74621 20.9791C7.61814 20.8583 7.5256 20.7968 7.43752 20.7383C7.39427 20.7096 7.35209 20.6816 7.30732 20.6476C7.17765 20.5514 7.04302 20.4969 6.9117 20.4438C6.74077 20.3747 6.57545 20.3078 6.43401 20.1539C6.1839 19.8818 5.89241 19.3619 5.68989 18.8306C5.49026 18.2996 5.43529 18.1306 5.43529 18.1153C5.43529 18.0999 5.49026 17.9968 5.56042 18.0121C5.61033 18.023 5.62474 18.095 5.63525 18.1475C5.63951 18.1688 5.64314 18.1869 5.64823 18.1964C5.68319 18.2502 5.72283 18.3009 5.76671 18.3477C5.7817 18.365 5.79761 18.3827 5.81409 18.401C5.911 18.509 6.02771 18.639 6.09146 18.8196C6.07613 18.6396 6.01465 18.44 6.01465 18.44C6.01465 18.44 6.40089 18.6836 6.72998 18.9381C6.77899 18.9757 6.82373 19.0097 6.86469 19.0409L6.86558 19.0415C7.10101 19.2205 7.21179 19.3047 7.29415 19.4428C7.31987 19.4859 7.35484 19.5478 7.39439 19.6178C7.50369 19.8112 7.64794 20.0664 7.72813 20.1583C7.83734 20.2834 9.33383 20.7551 9.33383 20.7551L10.0457 21.2859L10.3991 22.0605L10.1225 22.4945L9.59147 22.6086L8.72902 22.2224L8.45286 21.848Z" fill="#CAAE5B"/>
<path d="M19.5147 10.7928C19.6025 11.0751 19.6389 11.3709 19.6223 11.6661L19.9618 12.4437L19.9845 13.349L18.9926 16.5989C18.9926 16.5989 19.4863 19.55 19.3678 19.783C19.2492 20.0091 18.9069 20.4655 18.9069 20.4655L18.9078 20.4648C19.0989 20.3849 19.2825 20.288 19.4563 20.1755C19.6781 20.0243 19.8887 19.8941 20.0797 19.8507C20.1346 19.8379 20.2034 19.828 20.2788 19.8172C20.4625 19.7907 20.685 19.7587 20.8388 19.6664C20.97 19.5917 21.1099 19.4492 21.2035 19.3539L21.2037 19.3536C21.2338 19.323 21.2591 19.2972 21.2777 19.2802C21.3466 19.2206 21.5366 19.1833 21.6691 19.1572C21.693 19.1525 21.715 19.1482 21.7341 19.1442C21.8593 19.1112 22.0809 19.153 22.195 19.3548C22.3091 19.5566 22.2608 19.7784 22.2608 19.7784L22.5044 19.9407C22.5044 19.9407 22.5899 19.1963 22.726 19.0717C22.8467 18.9613 22.8604 18.8421 22.8773 18.6956C22.8784 18.6858 22.8795 18.676 22.8807 18.666C22.8818 18.6567 22.883 18.6473 22.8842 18.6377C22.8964 18.4998 22.8752 18.3259 22.8661 18.2505C22.8637 18.2312 22.8622 18.2182 22.8622 18.2142C22.8622 18.2088 22.8636 18.1999 22.8657 18.1876C22.8711 18.1548 22.8807 18.0974 22.8775 18.0144C22.8678 17.9321 22.8516 17.8506 22.8292 17.7708L22.726 16.7284L22.5959 16.1535L22.3742 15.4535L22.2974 15.155L22.2161 14.8785L22.1196 14.7205L21.9507 14.0644L21.6676 13.1141L21.413 12.2143L21.2177 11.3674C21.2177 11.3674 21.1292 10.7975 21.0466 10.3869L20.9914 9.98459L20.8882 9.32842L20.557 8.47031L20.1772 7.52019L19.9271 7.70449C19.9271 7.70449 19.5205 7.72011 19.3894 8.19821C19.2596 8.67172 19.0237 8.80992 18.9573 8.84879L18.9555 8.84989C18.8918 8.88721 18.8478 8.91354 18.9071 9.24495C19.054 9.54411 19.37 10.3429 19.5147 10.7928Z" fill="#CAAE5B"/>
<path fill-rule="evenodd" clip-rule="evenodd" d="M6.58141 10.891C6.58141 10.891 6.39712 10.946 6.30931 11.0425C6.2215 11.1346 6.18418 11.2115 6.06571 11.3672C5.94723 11.523 5.94058 11.6503 5.84394 11.8456C5.74746 12.0366 5.53452 12.324 5.50819 12.4272C5.48186 12.5303 5.43803 13.013 5.38321 13.2413C5.33489 13.4696 5.43803 13.7505 5.43803 13.7505L5.56302 13.724C5.56302 13.724 5.56302 13.8865 5.68815 13.9963C5.81313 14.1037 5.83512 13.6319 5.83512 13.6319L6.30251 12.0541L7.00685 11.5757L7.08366 11.1895L6.58141 10.891Z" fill="#E6DB9D"/>
<path fill-rule="evenodd" clip-rule="evenodd" d="M6.92319 11.6065C6.92319 11.6065 6.59178 11.6283 6.42948 11.7469C6.36366 11.7951 6.33733 11.8346 6.26717 11.8939C6.1377 12.0014 6.00592 12.1002 5.94241 12.2411C5.87211 12.3814 5.7953 12.5943 5.74264 12.9959C5.72065 13.1649 5.72065 13.3207 5.70532 13.4568C5.68333 13.6411 5.65049 13.7881 5.668 13.8908C5.68998 14.1014 5.90726 14.2112 5.92838 14.4503L6.37827 14.2222L6.80183 12.5521L7.7016 11.9879L7.1924 11.4174L6.92262 11.6054L6.92319 11.6065Z" fill="#E6DB9D"/>
<path fill-rule="evenodd" clip-rule="evenodd" d="M9.05006 11.9707C9.0637 11.9928 9.08291 12.0109 9.10576 12.0232C9.12862 12.0356 9.15431 12.0416 9.18025 12.0409C9.37554 12.0409 9.55535 12.0892 9.63 12.1879C9.75513 12.346 10.1019 12.8507 10.1019 12.8507L10.9313 13.1491L10.9849 12.1724L10.0786 11.5427L9.04717 11.9223V11.9706H9.04948L9.05006 11.9707Z" fill="#D8C47C"/>
<path fill-rule="evenodd" clip-rule="evenodd" d="M6.53692 19.1796C6.53692 19.1796 6.71687 19.467 7.15577 19.7391C7.55083 19.9784 8.17619 20.1957 8.7337 20.3251C9.05397 20.4019 9.37439 20.4611 9.66183 20.4656C10.4365 20.4764 10.9697 20.255 11.6303 20.1825C11.9881 20.1452 12.427 20.1167 12.8834 20.0089C13.4692 19.8684 13.816 19.7103 14.2878 19.4881C14.6301 19.3302 14.944 19.2117 15.1985 19.0602C15.5562 18.8496 15.8173 18.6148 16.1202 18.5447C16.0829 18.6478 16.0434 18.8321 15.745 19.0231C15.903 19.0186 16.1202 19.0077 16.1202 19.0077C16.1202 19.0077 15.9096 19.1327 15.5387 19.4136C15.3104 19.5872 15.0077 19.881 14.6982 20.0763C14.4985 20.2014 14.2812 20.2933 14.1386 20.3682C13.7914 20.5592 13.6514 20.6557 13.4232 20.889C13.5044 20.8847 13.511 20.889 13.511 20.889C13.511 20.889 13.2235 20.9263 13.0173 21.036C12.9739 21.036 12.8987 21.0206 12.7671 21.058C12.6639 21.0908 12.5278 21.1656 12.3875 21.2049C12.1877 21.2642 12.122 21.2379 12.122 21.2379L12.1549 21.3037C12.1549 21.3037 11.8945 21.2992 11.8077 21.3081C11.823 21.3124 11.8187 21.3191 11.8187 21.3191C11.8034 21.3216 11.7887 21.3268 11.7753 21.3344C11.7335 21.3615 11.6876 21.3815 11.6393 21.3936C11.613 21.3979 11.591 21.3979 11.558 21.4046C11.569 21.4309 11.6546 21.5781 11.6941 21.6649C11.6613 21.6869 11.1674 22.06 11.1674 22.06C11.1827 22.0841 11.1953 22.1099 11.2047 22.1368C11.2201 22.185 11.2267 22.2553 11.2421 22.2881C11.2792 22.354 11.3012 22.3649 11.3012 22.3649C11.3012 22.3649 11.2421 22.3759 11.1388 22.4023C11.0511 22.4243 10.9435 22.4614 10.7916 22.4834C10.745 22.4895 10.6981 22.4932 10.6511 22.4944C10.6731 22.5427 10.7696 22.727 10.5918 22.9398C10.414 23.1526 10.3592 23.1836 10.3044 23.3195C10.2768 23.2987 10.2474 23.2803 10.2166 23.2646C10.1574 23.2382 10.0761 23.1989 10.0476 23.1461C10.031 23.2164 10.009 23.2854 9.98181 23.3524C9.92698 23.4994 9.84583 23.6443 9.8305 23.754C9.77119 23.6881 9.66154 23.5587 9.51008 23.585C9.35862 23.6113 9.23798 23.8176 9.21165 23.8769C9.21165 23.8396 9.18532 23.8111 9.17881 23.8549C9.17433 23.9032 9.091 24.4078 8.62578 24.816C8.62144 24.7129 8.62144 24.4846 8.61045 24.4101C8.56705 24.4535 8.51396 24.5176 8.19788 24.6537C7.88846 24.7897 7.9375 24.9258 7.9375 24.9258C7.9375 24.9258 7.91117 24.7088 8.07796 24.4803C8.24692 24.2522 8.35006 24.1445 8.35006 24.127C8.34734 24.1092 8.33973 24.0925 8.32808 24.0787C8.30609 24.0567 8.26226 24.0304 8.26226 24.0129C8.28859 24.002 8.54969 23.8769 8.53436 23.6178C8.51903 23.3854 8.42037 23.2646 8.35006 23.1791C8.33922 23.1681 8.45335 23.0869 8.43787 23.0606C8.42688 23.0453 8.28656 22.942 8.26891 22.887C8.27306 22.8542 8.28042 22.8219 8.2909 22.7905C8.30623 22.7422 8.31723 22.7092 8.31289 22.6764C8.30189 22.6216 8.24258 22.4701 8.22508 22.4548C8.24041 22.4591 8.35006 22.4548 8.35006 22.4548C8.35006 22.4548 8.2624 22.3143 8.24692 22.2485C8.23145 22.1827 8.19861 22.0092 8.1811 21.9764C8.21843 21.9807 8.31057 21.9872 8.31057 21.9764C8.31506 21.9434 8.22942 21.8886 8.26718 21.8462C8.2935 21.8505 8.34399 21.8725 8.39216 21.934C8.36583 21.8637 8.322 21.7277 8.22971 21.6729C8.27311 21.6576 8.42066 21.6179 8.55013 21.6947C8.6796 21.7716 8.72372 21.879 8.72372 21.879C8.72372 21.879 8.80053 21.9383 8.91915 22.0262C9.05513 22.1336 9.22843 22.2865 9.50502 22.3947C9.56432 22.4277 9.71564 22.4277 9.82543 22.4057C9.87324 22.3943 9.91908 22.3759 9.96141 22.3509C9.9767 22.3419 9.99289 22.3345 10.0097 22.3289C9.98614 22.2816 9.95901 22.2361 9.92857 22.1928C9.9659 22.1928 10.0097 22.1973 10.0097 22.1973C10.0097 22.1973 10.0361 22.138 9.91758 22.0237C9.94391 21.9974 9.97689 21.9803 9.97689 21.9359C9.93957 21.9316 9.87375 21.8767 9.85842 21.8547C9.88026 21.8394 9.91324 21.7889 9.95056 21.7736C9.91758 21.7473 9.83643 21.6375 9.79911 21.6266C9.83476 21.6134 9.86926 21.5972 9.90225 21.5783C9.90225 21.5783 9.71795 21.53 9.65864 21.4905C9.59933 21.4471 9.51167 21.372 9.45901 21.35C9.40404 21.328 9.30756 21.3172 9.26807 21.2732C9.30524 21.2842 9.36455 21.2732 9.40853 21.2732C9.44137 21.2732 9.45684 21.2776 9.46769 21.2776C9.46335 21.2622 9.46335 21.2292 9.54899 21.2184C9.59018 21.2122 9.63015 21.1996 9.66747 21.1811C9.66747 21.1811 9.58617 21.1767 9.49388 21.0889C9.40159 21.0011 9.32492 20.9309 9.27226 20.92C9.21744 20.909 9.11429 20.9573 9.05064 20.9528C8.96284 20.9419 8.92551 20.898 8.92551 20.898C8.92551 20.898 8.63374 20.9243 7.98639 20.5294C7.42671 20.187 7.18311 19.8842 7.18311 19.8842C7.13073 19.8652 7.0801 19.8417 7.0318 19.8139C6.82117 19.7042 6.52925 19.476 6.53808 19.1774L6.53692 19.1796Z" fill="#B79947"/>
<path fill-rule="evenodd" clip-rule="evenodd" d="M14.6107 6.0084C14.6614 6.02489 14.7065 6.05532 14.7409 6.09621C14.844 6.21468 14.9098 6.43847 14.675 6.67773C14.7672 6.71057 14.8052 6.72113 14.8857 6.71057C14.8045 6.8072 14.6202 7.01348 14.6092 7.19344C14.5982 7.34041 14.6904 7.38439 14.6904 7.38439C14.6904 7.38439 14.5499 7.54669 14.5434 7.81836C14.6097 7.74356 14.6823 7.67455 14.7604 7.61208C14.9228 7.48261 15.1466 7.33564 15.2981 7.24349C15.296 7.28211 15.3012 7.32078 15.3134 7.35748C15.3134 7.35748 15.5964 7.12487 15.8342 7.22816C15.9417 7.27647 15.8933 7.42778 15.8933 7.42778C15.8933 7.42778 16.0405 7.37296 16.1436 7.4761C16.2467 7.57924 16.3926 7.84527 16.4673 7.94841C16.5002 7.99672 16.5858 8.08887 16.6735 8.23151C16.7932 8.4312 16.8932 8.64209 16.9721 8.8612C16.9764 8.74707 17.0049 8.56943 17.3298 8.68125C17.6546 8.79538 18.0231 9.03465 18.3326 9.5058C18.642 9.97695 18.7187 10.5089 18.8745 10.7114C19.0324 10.9067 19.1949 11.2314 19.2059 11.3675C19.2169 11.5037 19.1576 11.9424 19.4823 13.1296C19.5745 12.761 19.7149 11.9424 19.7149 11.9424L19.7917 11.2204L19.8795 8.98648L17.5468 7.04849L15.7232 5.72516L14.536 5.83929L14.6107 6.0084Z" fill="#B79947"/>
<path fill-rule="evenodd" clip-rule="evenodd" d="M18.9448 9.33294C18.9448 9.33294 18.9119 9.11595 18.3633 8.74707C17.8146 8.38282 17.3867 8.38282 16.9918 8.0734C16.6889 7.82979 16.373 7.27011 16.1673 7.08581C15.9675 6.90369 15.9346 6.37699 15.9346 6.37699L16.6083 5.81282L17.6102 4.36465L18.4572 3.43204L18.8631 3.99621L19.4273 4.65889L19.741 5.98873L19.8552 7.93525L18.9438 9.33308L18.9448 9.33294Z" fill="#B79947"/>
<path fill-rule="evenodd" clip-rule="evenodd" d="M18.9068 25.2603C18.9068 25.2603 18.9213 25.2697 18.9492 25.285C20.5083 24.5546 21.9052 23.5192 23.0575 22.24C23.0449 21.7959 23.0286 21.3406 23.0106 21.172C22.9734 20.8142 22.9998 20.45 22.9888 20.2393C22.9778 20.0287 22.8593 19.1706 22.8045 18.949C22.7452 18.7274 22.6309 18.6176 22.6135 18.6176C22.5982 18.6221 22.5059 19.0346 22.5059 19.1383C22.5059 19.2421 22.4839 19.4917 22.4839 19.5554C22.4686 19.5509 22.4621 19.512 22.4621 19.4961C22.4401 19.5509 22.4138 19.6475 22.4028 19.6585C22.3918 19.6695 22.4181 19.5664 22.4028 19.5444C22.3874 19.5224 22.3594 19.5334 22.3655 19.4786C22.368 19.4461 22.3732 19.4138 22.3808 19.3821C22.3808 19.3821 22.315 19.4786 22.2668 19.7244C22.2185 19.968 22.2185 19.9746 22.201 19.9965C22.1856 20.0229 22.0978 20.1106 22.0933 20.1436C22.089 20.2027 22.1746 20.2621 22.1812 20.2949C22.1855 20.3499 22.1043 20.6043 22.078 20.7289C22.0517 20.8534 22.0627 21.0975 22.0346 21.2226C22.0126 21.3367 21.9912 21.4025 21.9161 21.4507C21.971 21.4617 22.0236 21.477 22.0236 21.477C22.0236 21.477 22.1004 21.8018 21.9051 22.0784C21.835 22.1749 21.8175 22.2188 21.7428 22.3067C21.5957 22.469 21.4816 22.6538 21.4706 22.774C21.463 22.7386 21.4579 22.7026 21.4553 22.6664C21.4553 22.6664 21.2271 22.932 21.1305 23.0835C21.0055 23.2788 20.8321 23.2678 20.7833 23.3161C20.7346 23.3644 20.724 23.4521 20.7399 23.5224C20.6965 23.5332 20.6149 23.5487 20.56 23.7176C20.5336 23.8053 20.4678 23.8912 20.3647 23.9503C20.2615 24.0093 20.1364 24.0271 20.0728 24.0424C20.1276 24.0577 20.1496 24.0577 20.1759 24.0752C20.1431 24.1301 19.9916 24.2157 19.8226 24.3255C19.6537 24.4286 19.5724 24.58 19.5307 24.6788C19.4873 24.7709 19.4232 24.8302 19.3201 24.8412C19.3635 24.8675 19.4277 24.9289 19.4606 24.9487C19.4123 24.9597 19.3304 24.9597 19.1841 25.0848C19.0305 25.2121 18.9778 25.2494 18.9075 25.2604L18.9068 25.2603Z" fill="#B79947"/>
<path fill-rule="evenodd" clip-rule="evenodd" d="M15.854 26.2773C15.938 26.2184 16.029 26.1702 16.1249 26.1337C16.4672 25.9977 16.8293 25.9714 16.9719 25.9276C17.108 25.8842 17.2155 25.8243 17.3845 25.7914C17.38 25.8299 17.3762 25.8661 17.3722 25.9002C16.874 26.0568 16.3668 26.1828 15.8533 26.2773H15.854Z" fill="#E6DB9D"/>
<path fill-rule="evenodd" clip-rule="evenodd" d="M16.9144 8.24229L16.1398 7.12539L15.5977 6.70834C15.5977 6.70834 15.2115 5.99749 15.1852 5.9755C15.1632 5.96017 14.7989 5.92067 14.5663 5.90534L14.6097 6.01282C14.6605 6.02931 14.7056 6.05974 14.7399 6.10063C14.843 6.2191 14.9089 6.44289 14.6741 6.68216C14.7662 6.71499 14.8043 6.72555 14.8847 6.71499C14.8036 6.81162 14.6193 7.01791 14.6083 7.19786C14.5973 7.34483 14.6894 7.38867 14.6894 7.38867C14.6894 7.38867 14.549 7.55112 14.5424 7.82264C14.6088 7.74784 14.6814 7.67882 14.7594 7.61636C14.9219 7.48617 15.1457 7.33977 15.2971 7.24762C15.2951 7.28629 15.3003 7.32501 15.3125 7.36176C15.3125 7.36176 15.5954 7.12915 15.8332 7.23229C15.9407 7.28061 15.8924 7.43206 15.8924 7.43206C15.8924 7.43206 16.0395 7.37724 16.1427 7.48038C16.2458 7.58352 16.3928 7.84897 16.4674 7.95225C16.5002 8.00057 16.5859 8.09272 16.6735 8.23521C16.7933 8.43493 16.8933 8.64588 16.9721 8.86505C16.9765 8.77724 16.9941 8.65442 17.1457 8.65442L16.9153 8.24186L16.9144 8.24229Z" fill="#B79947"/>
<path fill-rule="evenodd" clip-rule="evenodd" d="M5.30116 11.4156C5.30116 11.4156 5.24634 11.2795 5.30116 11.0141C5.35599 10.7486 5.44163 10.6235 5.47012 10.2329C5.49862 9.84233 5.75322 9.35512 5.75322 9.35512L6.45756 9.03485L6.95576 9.17083L7.10274 9.83799L6.4729 10.1852C6.4729 10.1852 6.44006 10.3321 6.26227 10.4506C6.08449 10.5691 5.83871 10.6612 5.77955 10.782C5.74418 10.856 5.71837 10.9342 5.70274 11.0146C5.70274 11.0146 5.52278 10.9773 5.4153 11.0958C5.30116 11.2166 5.3055 11.3241 5.30116 11.4162V11.4156Z" fill="#E6DB9D"/>
<path fill-rule="evenodd" clip-rule="evenodd" d="M11.8976 7.59284C11.968 7.57576 12.0355 7.54836 12.0979 7.51154C12.0716 7.58185 12.0716 7.65866 11.9575 7.82545C11.8433 7.99224 11.839 8.0164 11.7469 8.1897C11.6547 8.36966 11.6437 8.6286 11.5559 8.74259C11.5953 8.72346 11.6375 8.7109 11.6809 8.70541C11.6809 8.70541 11.5932 8.78222 11.5559 8.86337C11.5186 8.94453 11.4528 9.11349 11.2905 9.21677C11.1282 9.32006 10.9217 9.38574 10.7001 9.62934C10.4783 9.86846 10.2502 10.1714 10.1359 10.2803C10.1953 10.1772 10.2764 9.97088 10.2984 9.8349C10.3204 9.69892 10.2939 9.53633 10.3312 9.35652C10.3686 9.17671 10.3686 9.04709 10.5482 8.73318C10.7279 8.41927 11.0354 7.3287 11.0354 7.3287L11.6981 7.11807L11.8979 7.59212L11.8976 7.59284Z" fill="#B79947"/>
<path fill-rule="evenodd" clip-rule="evenodd" d="M11.4198 7.19126C11.4198 7.19126 11.2202 7.4787 11.1654 7.7333C11.1106 7.98789 11.1609 7.96591 11.1281 8.09104C11.1084 8.16733 11.1084 8.24735 11.1281 8.32365C11.1972 8.21227 11.2919 8.11894 11.4042 8.0514C11.593 7.93741 11.7466 7.85611 11.8382 7.75962C11.9303 7.65648 12.0072 7.48752 12.2068 7.35805C12.1256 7.34706 12.0115 7.30974 11.9898 7.31465C12.0711 7.22251 12.3146 7.08204 12.5603 6.91308C12.8039 6.73949 12.7886 6.66948 13.1837 6.49618C13.0542 6.51817 12.9927 6.48518 12.8851 6.49618C12.9285 6.40403 13.0804 6.36006 13.2323 6.20874C13.3842 6.05743 13.1358 5.8335 13.1358 5.8335L11.9785 6.5335L11.419 7.19184L11.4198 7.19126Z" fill="#B79947"/>
<path fill-rule="evenodd" clip-rule="evenodd" d="M8.27967 6.66896L8.306 6.45834L8.63741 5.9273L8.98416 4.99469V3.71967L8.95783 2.98235L9.01265 2.49948L9.05432 2.34599L9.09829 2.28668L9.38124 2.43366L9.77197 2.9647L9.80929 3.9896L9.42956 5.60688L8.34549 6.78975L8.27967 6.66896Z" fill="#CAAE5B"/>
<path fill-rule="evenodd" clip-rule="evenodd" d="M9.14204 5.67259C9.14204 5.67259 9.40242 5.03175 9.52162 4.46339C9.54361 4.34926 9.58744 4.23527 9.59843 4.14312C9.65326 3.60542 9.66859 3.38381 9.59843 3.08972C9.54361 2.87273 9.33298 2.67715 9.22319 2.52555C9.11571 2.36744 9.06522 2.30856 9.08721 2.27529C9.1092 2.24202 9.19469 2.18763 9.27801 2.19414C9.36659 2.19672 9.45371 2.21728 9.53408 2.25458C9.61446 2.29189 9.6864 2.34515 9.74555 2.41113C9.91451 2.60641 10.0483 3.26924 10.0483 3.26924L10.1891 4.14384L10.5468 5.24541L9.14232 5.67346L9.14204 5.67259Z" fill="#B79947"/>
<path fill-rule="evenodd" clip-rule="evenodd" d="M11.5886 5.0056C11.5886 5.0056 11.5403 5.02744 11.4526 5.0056C11.4563 5.04142 11.4501 5.07758 11.4346 5.1101C11.4191 5.14261 11.395 5.17023 11.3648 5.18989C11.2726 5.15257 10.41 5.22721 10.41 5.22721C10.41 5.22721 10.0085 5.15691 9.88334 4.62587C9.79567 4.27247 9.94916 3.7854 9.89867 3.46499C9.82186 2.99311 9.71438 2.90082 9.70338 2.75399C9.69239 2.60716 9.68139 2.5697 9.68139 2.47755C9.63308 2.46656 9.60458 2.45122 9.55641 2.45122C9.54542 2.40782 9.56726 2.36992 9.51909 2.29311C9.54542 2.3041 9.72537 2.32609 9.93599 2.52572C10.1096 2.68817 10.1096 2.74734 10.1358 2.78032C10.1686 2.81316 10.4342 3.0407 10.5483 3.26753C10.6625 3.49435 10.8841 4.21764 10.9346 4.33612C10.9499 4.38443 10.9829 4.43275 11.0648 4.5424C11.1921 4.70051 11.3785 4.96191 11.5891 5.00531L11.5886 5.0056Z" fill="#987938"/>
<path fill-rule="evenodd" clip-rule="evenodd" d="M10.1666 2.79136C10.2996 3.0061 10.419 3.22892 10.5242 3.45852C10.6537 3.7503 10.7305 3.98956 10.893 4.18485C10.8052 3.9304 10.6494 3.43002 10.5572 3.25224C10.4541 3.06418 10.2435 2.86152 10.1666 2.79136Z" fill="#A88F33"/>
<path fill-rule="evenodd" clip-rule="evenodd" d="M8.41032 7.8144L8.6101 7.56428V7.3865C8.6101 7.3865 8.83171 7.32719 9.07083 7.08358C9.30995 6.83998 9.64137 6.37259 9.93329 6.40109C10.2252 6.43407 10.2537 7.03527 10.2647 7.20437C10.2757 7.37348 10.313 7.75726 10.3722 7.96368C10.438 8.16997 9.66118 8.95112 9.66118 8.95112L9.13362 9.35269L8.41032 7.8144Z" fill="#D8C47C"/>
<path fill-rule="evenodd" clip-rule="evenodd" d="M16.3241 5.62863C16.0649 5.53414 15.7924 5.48084 15.5166 5.47067C15.0558 5.45533 14.3821 5.48166 13.7216 5.486C13.0106 5.49034 12.3654 5.2424 11.4701 5.19857C11.3231 5.11076 10.9493 4.72669 9.78254 5.54083C9.8527 5.53649 10.6297 5.36087 10.8994 5.69894C11.1715 6.03469 11.0947 6.60522 11.0576 6.7412C10.9872 7.04411 10.759 7.48518 10.667 7.7946C10.575 8.10402 10.5967 8.26662 10.5309 8.48361C10.465 8.70059 10.3202 8.80836 10.4057 9.05848C10.5199 8.98832 10.5793 8.98832 10.77 8.56042C10.9606 8.13252 10.9214 7.82744 11.2375 7.46536C11.5469 7.10111 12.0621 6.60291 12.2579 6.47778C12.4538 6.35265 14.009 5.54517 15.6374 6.31547C16.0302 6.27381 16.3241 5.62863 16.3241 5.62863Z" fill="#B79947"/>
<path fill-rule="evenodd" clip-rule="evenodd" d="M10.4387 5.33007C10.4371 5.31358 10.4334 5.29735 10.4278 5.28175C10.4126 5.24966 10.3926 5.22006 10.3685 5.19395C10.3685 5.19395 9.9823 5.12379 9.78701 5.14563C9.4446 5.18295 9.13518 5.60651 8.99038 5.82379C8.84557 6.04106 8.66562 6.37667 8.47033 6.55012C8.47247 6.53322 8.46858 6.51611 8.45934 6.5018C8.45934 6.5018 8.47033 6.51713 8.44849 6.53912C8.42664 6.56111 8.4265 6.57196 8.43749 6.58252L8.47048 6.61536C8.48132 6.61536 8.78424 6.47923 9.1968 6.09459C9.6357 5.69302 9.97145 5.48702 10.1471 5.41643C10.2407 5.37663 10.3385 5.34766 10.4387 5.33007Z" fill="#B79947"/>
<path fill-rule="evenodd" clip-rule="evenodd" d="M17.9306 3.68005C17.9306 3.68005 17.8603 3.76771 17.7725 3.86434C17.5772 4.07062 17.3226 4.30309 17.1054 4.54235C16.8992 4.77063 16.6666 4.94841 16.4054 5.24684C16.1441 5.54527 15.8412 5.87654 15.7645 5.97317C15.6944 6.0698 15.6395 6.22777 15.6395 6.30892C15.6022 6.28259 15.5584 6.2541 15.5584 6.2541C15.5768 6.28855 15.5989 6.32094 15.6242 6.35073C15.679 6.42754 15.7645 6.52432 15.8085 6.58334C15.8625 6.65847 15.9012 6.74344 15.9225 6.83345C15.9488 6.83779 16.1178 6.87077 16.3286 6.52403C16.5393 6.17728 16.8156 5.7977 16.8156 5.7977L17.2545 5.14587L17.5311 4.59299L17.8783 3.97414L17.9311 3.68005H17.9306Z" fill="#987938"/>
<path fill-rule="evenodd" clip-rule="evenodd" d="M18.3805 3.23695C18.3805 3.23695 18.1149 3.45394 18.0117 3.58413C17.9086 3.71432 17.6645 4.05601 17.6645 4.05601L17.7524 4.04501L18.1979 3.6501L18.3715 3.34067L18.3803 3.23753L18.3805 3.23695Z" fill="#A88F33"/>
<path fill-rule="evenodd" clip-rule="evenodd" d="M18.2997 20.6761C18.2997 20.6761 18.2954 20.4962 18.3963 20.3887C18.4995 20.2811 18.7606 20.1231 19.0152 19.5306C19.2698 18.9381 19.2981 18.8043 19.2981 18.8043C19.2981 18.8043 18.8417 19.1948 18.5604 19.287C18.6262 19.1509 18.6635 19.0544 18.6965 18.9841C18.6592 18.9512 18.5012 18.9139 18.4859 18.8964C18.5735 18.8086 18.6218 18.5935 18.7996 18.4509C19.0279 18.2773 19.4448 17.979 19.7688 17.7131C20.0929 17.4472 20.7299 16.8288 20.8112 16.6489C20.8596 16.719 20.8704 16.7629 20.8704 16.7629C20.8704 16.7629 20.5501 17.1799 20.3833 17.4454C20.2362 17.6736 20.2472 17.8031 20.2472 17.8031L20.5501 17.6729C20.5501 17.6729 20.6378 17.9977 20.2407 18.4915C20.4143 18.4257 20.4843 18.4652 20.583 18.4102C20.4205 18.5135 20.1967 18.654 19.9861 19.0401C19.7798 19.4263 19.4989 19.8762 19.025 20.157C18.5641 20.4532 18.2985 20.6748 18.2985 20.6748L18.2997 20.6761Z" fill="#A67A2E"/>
<path fill-rule="evenodd" clip-rule="evenodd" d="M17.1102 5.85705C17.1102 5.85705 16.9303 6.23215 16.9039 6.52407C16.8996 6.59438 16.882 6.6492 16.882 6.73036C16.8776 6.99146 16.8973 7.28338 16.8386 7.41936C16.8166 7.36454 16.8056 7.32722 16.7836 7.30537C16.7507 7.39752 16.6914 7.68495 16.6431 7.79244C16.6213 7.72228 16.573 7.47867 16.5774 7.19124C16.5819 6.9038 16.5883 6.84883 16.5883 6.78967C16.5774 6.87733 16.5181 6.99595 16.4961 7.06611C16.4633 7.00694 16.426 6.93013 16.382 6.86648C16.3557 6.90988 16.3228 6.97396 16.2943 7.00694C16.2899 6.98061 16.279 6.91031 16.2724 6.81165C16.268 6.69752 16.2614 6.55055 16.268 6.51973C16.2789 6.46057 16.3712 6.22796 16.5665 6.01502C16.7991 5.76042 17.0383 5.27119 17.1085 5.11973C17.1786 4.96827 17.4771 4.33858 17.4771 4.33858H17.7053L17.3739 5.0934C17.3739 5.0934 17.1743 5.50597 17.0712 5.65757C16.968 5.80917 16.7507 6.24358 16.6541 6.41254C16.7243 6.32039 16.7836 6.27208 16.8539 6.18427C16.9219 6.12279 17.1105 5.85734 17.1105 5.85734L17.1102 5.85705Z" fill="#806638"/>
<path fill-rule="evenodd" clip-rule="evenodd" d="M18.3847 3.20831C18.3474 3.32307 18.2885 3.42962 18.2111 3.52221C18.075 3.68466 17.7831 3.9018 17.6406 4.0751C17.5104 4.24406 17.25 4.70494 17.3683 5.25131C17.4117 5.13284 17.4935 4.89806 17.7107 4.63246C17.928 4.36687 18.1606 4.06193 18.2749 3.82498C18.3889 3.58572 18.4042 3.39708 18.4042 3.39708L18.4476 3.34226L18.4213 3.21713L18.384 3.20831H18.3847Z" fill="#B79947"/>
<path fill-rule="evenodd" clip-rule="evenodd" d="M18.3965 3.18181L18.3855 3.20814C18.3855 3.20814 18.4184 3.21913 18.4119 3.26311C18.4123 3.32328 18.4087 3.3834 18.4009 3.44306C18.39 3.51988 18.368 3.57904 18.3637 3.62736C18.3637 3.7305 18.379 3.84898 18.2335 4.14307C18.1901 4.22422 18.1634 4.29438 18.1414 4.34269C18.0865 4.46117 18.0755 4.47882 18.0272 4.53364C18.104 4.49025 18.3806 4.31666 18.521 4.34269C18.4245 4.39752 18.2773 4.50515 18.1852 4.64561C18.2072 4.64995 18.2993 4.6676 18.4456 4.64561C18.6892 4.60829 18.9613 4.52048 19.2004 4.53798C19.4617 4.55332 19.3585 4.22422 19.3585 4.22422L19.0571 3.56154L18.4865 3.16011L18.3965 3.18181Z" fill="#B79947"/>
<path fill-rule="evenodd" clip-rule="evenodd" d="M19.8841 8.1458C19.8841 8.1458 19.6295 7.8912 19.5264 7.01747C19.4232 6.13968 19.4452 4.8476 19.4452 4.8476L19.2389 4.34288C19.2389 4.34288 19.1956 4.00713 19.0875 3.88215C18.9794 3.75716 18.7672 3.5464 18.6706 3.44325C18.574 3.34011 18.4643 3.19965 18.3985 3.17766C18.4313 3.12284 18.5784 2.81341 19.1423 2.80907C19.7062 2.80473 19.8801 3.1185 19.9389 3.23263C19.9978 3.34677 20.2637 3.8402 20.3624 4.78047C20.4545 5.7196 20.459 5.7899 20.4437 6.11466C20.4327 6.29461 20.3734 6.71152 20.2701 7.15692C20.1758 7.53448 20.0726 7.95587 19.8838 8.14667L19.8841 8.1458Z" fill="#987938"/>
<path fill-rule="evenodd" clip-rule="evenodd" d="M19.0854 8.89422C19.1703 8.90034 19.255 8.88122 19.329 8.83925C19.4102 8.83491 19.7043 8.87223 19.9302 8.5848C19.9456 8.65047 19.9852 8.8284 19.8819 8.98637C19.9369 8.9314 20.018 8.90955 20.029 8.89422C20.0334 8.97537 20.1102 9.22549 19.7854 9.83334C19.8731 9.73685 19.9762 9.74119 20.0684 9.7302C20.0729 9.84433 20.1342 10.2283 19.9719 10.4347C19.8644 10.5751 19.6888 10.5312 19.6888 10.5312C19.6914 10.5005 19.6914 10.4697 19.6888 10.439C19.6844 10.3797 19.6625 10.3205 19.6779 10.2811C19.5931 10.2423 19.5158 10.1888 19.4497 10.1229C19.2587 9.94299 19.0108 9.63588 18.9933 9.40761C18.9713 9.15301 19.1996 9.09819 19.1996 9.09819C19.1804 9.08108 19.1641 9.06106 19.1512 9.03888C19.1402 9.0017 19.1292 8.94239 19.0854 8.89422Z" fill="#806638"/>
<path fill-rule="evenodd" clip-rule="evenodd" d="M17.3934 6.13351C17.3934 6.13351 17.3824 6.11818 17.3233 6.18834C17.3343 6.11818 17.3453 6.05221 17.3496 5.98856C17.3776 5.92964 17.4138 5.87499 17.4572 5.82626C17.4242 5.89193 17.4023 5.95124 17.4023 5.95124C17.4023 5.95124 17.4836 5.79978 17.602 5.70764C17.6832 5.64182 17.7863 5.61115 17.8302 5.54967C17.8785 5.48385 17.8675 5.47286 17.8785 5.46186C17.8785 5.46186 17.9861 5.3917 18.1507 5.18528C18.1726 5.15895 18.2055 5.13045 18.2275 5.10412C18.2647 5.08879 18.3525 5.0493 18.4557 4.9965C18.5633 4.93733 18.6839 4.85618 18.7586 4.82291C18.9055 4.75709 19.0615 4.76374 19.1338 4.66046C19.1886 4.64512 19.2478 4.4805 19.237 4.34018C19.3181 4.37302 19.735 4.63196 19.8778 5.19815C19.9809 5.59972 19.7965 6.21857 19.7197 6.51714C19.6429 6.81572 19.632 7.03719 19.5244 7.17317C19.3883 7.35327 18.9495 7.60714 18.8419 7.73285C18.7498 7.83599 18.4733 8.0971 18.4842 8.28574C18.4952 8.4262 18.6685 8.50272 18.7059 8.52934C18.7434 8.55596 18.7431 8.58865 18.8134 8.57274C18.8837 8.55682 18.9099 8.52442 18.9385 8.52442C18.9714 8.52876 18.9714 8.53542 18.9867 8.53542C18.9978 8.53508 19.0089 8.53358 19.0197 8.53093C19.0197 8.53093 19.0087 8.7307 18.5413 8.79132C18.5083 8.7958 18.4755 8.80665 18.4337 8.8133C18.4886 8.78698 18.5215 8.78698 18.5808 8.70582C18.515 8.69483 18.3262 8.68384 18.2779 8.6685C18.2932 8.64217 18.3437 8.57187 18.3854 8.53903C18.4227 8.50619 18.381 8.49563 18.3482 8.5127C18.2916 8.55117 18.2374 8.5929 18.1857 8.63769C18.1309 8.686 18.0826 8.75182 17.9948 8.81128C17.9685 8.72347 17.9728 8.55668 18.0761 8.43604C18.0496 8.44037 17.9991 8.51719 17.9509 8.50185C17.9422 8.42181 17.9474 8.34087 17.9663 8.26259C17.9926 8.16379 18.1352 7.99049 18.1352 7.99049L18.8243 6.7593L18.9712 5.82669L17.3934 6.13351Z" fill="#806638"/>
<path fill-rule="evenodd" clip-rule="evenodd" d="M17.3554 6.18616C17.3554 6.18616 17.3181 6.21248 17.3928 6.26297C17.3818 6.2783 17.3554 6.33313 17.3225 6.37045C17.2853 6.41385 17.2456 6.44076 17.2303 6.47808C17.1975 6.55489 17.1711 6.60755 17.1711 6.64053C17.1711 6.67351 17.1601 6.88413 17.068 7.02011C17.035 7.06843 16.9977 7.14958 16.9714 7.20441C16.9165 7.30089 16.8682 7.378 16.8572 7.42139C16.8354 7.49821 16.8201 7.70883 16.8201 7.70883C16.8201 7.70883 16.8684 7.64952 16.8859 7.62768C16.8594 7.6825 16.8309 7.74167 16.7892 7.78564C16.8156 7.76365 16.8924 7.70883 17.0219 7.59469C17.2018 7.44338 17.4827 7.18878 17.8251 6.98713C17.7219 7.02445 17.6342 7.02445 17.564 7.03545C17.6189 6.98062 18.1126 6.40126 18.3715 6.34644C18.3872 6.3265 18.3951 6.30148 18.3935 6.27613L18.1717 6.25429L17.7219 6.35078L17.6562 6.0036L17.3554 6.18572V6.18616Z" fill="#987938"/>
<path fill-rule="evenodd" clip-rule="evenodd" d="M18.0711 8.16123C18.0711 8.16123 18.0118 8.22039 17.9569 8.36751C17.9147 8.32343 17.8785 8.27397 17.8493 8.22039C17.7682 8.08441 17.6432 7.91097 17.3513 8.00977C17.3469 7.91762 17.3403 7.86931 17.3513 7.80349C17.3996 7.79264 17.5466 7.67416 17.6935 7.50072C17.7968 7.38224 17.8933 7.24612 17.9591 7.07282C18.0025 7.03984 18.0776 6.98501 18.1761 6.92136C18.3166 6.82487 18.4855 6.69309 18.5119 6.54612C18.446 6.57245 18.3056 6.63827 18.0948 6.62742C18.1761 6.59009 18.3011 6.5506 18.2858 6.38815C18.3187 6.36616 18.3451 6.35083 18.3451 6.35083C18.3203 6.34258 18.2943 6.33886 18.2682 6.33984C18.2638 6.3245 18.2573 6.30266 18.2199 6.31351C18.1826 6.32436 18.1765 6.3245 18.1716 6.33984C18.1563 6.34432 18.1058 6.33984 18.0685 6.36631C18.0312 6.39278 17.928 6.4803 17.8885 6.49563C17.9039 6.46931 17.9257 6.42996 17.9257 6.42996C17.9257 6.42996 17.8182 6.44081 17.7414 6.47336C17.6009 6.52167 17.4386 6.60948 17.274 6.69497C17.2893 6.66864 17.296 6.65157 17.3069 6.64666C17.3177 6.64174 17.3442 6.63581 17.3442 6.63132C17.3442 6.62684 17.3333 6.58792 17.3398 6.57216C17.389 6.46789 17.4471 6.36805 17.5134 6.27373C17.5902 6.17044 17.6056 6.02347 17.6056 6.02347L17.9413 5.85451L18.8849 5.63752L19.4973 5.67484L19.4205 6.0984L19.0588 6.83789L18.7494 7.51157L18.396 7.92428L18.0711 8.16123Z" fill="#483925"/>
<path fill-rule="evenodd" clip-rule="evenodd" d="M19.601 6.32821C19.601 6.32821 19.2323 6.78461 19.1291 6.85491C19.195 6.71445 19.601 5.87832 19.748 5.64571C19.7152 5.61939 19.6712 5.61939 19.7743 5.21174C19.6867 5.41788 19.6558 5.5255 19.5835 5.58033C19.5112 5.63515 19.5022 5.61765 19.4533 5.61765C19.4626 5.60095 19.4663 5.58178 19.4642 5.56282C19.4642 5.56282 19.1547 5.5255 18.9434 5.5255C18.7321 5.5255 18.3137 5.63964 18.0809 5.73178C17.8967 5.8086 17.7935 5.8086 17.7277 5.85677C17.6619 5.91159 17.6246 5.9709 17.5916 5.98624C17.5652 6.00157 17.4403 6.04106 17.4116 6.08273C17.3853 6.12612 17.3415 6.17487 17.3415 6.18587C17.3415 6.19686 17.3305 6.21234 17.3634 6.2012C17.3743 6.19686 17.4556 6.15288 17.5477 6.09806C17.6727 6.0279 17.8242 5.94675 17.934 5.89843C18.2477 5.7733 18.3465 5.79529 18.4869 5.76896C18.6338 5.74263 18.8446 5.68115 18.9849 5.68115C19.1254 5.67681 19.391 5.68115 19.4525 5.69215C19.4261 5.71414 19.4041 5.74046 19.4151 5.83261C19.4151 5.85894 19.3931 5.88744 19.3717 5.95109C19.3061 6.13104 19.1809 6.42947 19.1114 6.58093C19.0149 6.78707 18.9052 6.96051 18.851 7.06799C18.7967 7.17547 18.6774 7.45857 18.5592 7.61003C18.441 7.76148 18.3792 7.85363 18.3422 7.88661C18.3052 7.91959 18.0393 8.11474 18.0591 8.18504C18.1074 8.16971 18.4125 8.05485 18.634 7.80546C18.8554 7.55607 18.8996 7.40389 19.0729 7.26777C19.2462 7.13164 19.3823 6.90352 19.4634 6.71488C19.5314 6.53927 19.5161 6.48444 19.6016 6.32864L19.601 6.32821Z" fill="#62593C"/>
<path fill-rule="evenodd" clip-rule="evenodd" d="M11.6546 9.73471C11.6546 9.73471 11.6063 9.93434 11.4965 10.0331C11.389 10.1298 11.1981 10.2131 11.1762 10.3756C11.1499 10.5379 11.3672 10.6192 11.3672 10.6192C11.3672 10.6192 11.2486 10.8144 11.2486 10.9614C11.2486 11.1129 11.2442 11.1414 11.2596 11.2862C11.2422 11.2974 11.2274 11.3122 11.2162 11.3296C11.2162 11.3296 11.227 11.47 11.3346 11.5577C11.4423 11.6454 11.5343 11.6982 11.5891 11.6762C11.5975 11.6941 11.6048 11.7124 11.6111 11.7311C11.6111 11.7311 11.6924 11.5249 11.7472 11.3449C11.802 11.1606 11.8503 11.1868 11.8722 10.9388C11.894 10.6909 12.1326 10.2652 12.1326 10.2652L12.2953 9.90136L12.0299 9.69508L11.6546 9.73471Z" fill="#806638"/>
<path fill-rule="evenodd" clip-rule="evenodd" d="M12.1489 10.0922C12.0941 10.1484 12.0436 10.2086 11.9977 10.2722C11.9275 10.3688 11.8727 10.4565 11.7696 10.4939C11.6664 10.5314 11.6006 10.5311 11.6071 10.6344C11.6136 10.7377 11.7103 10.7814 11.7651 10.834C11.8244 10.8888 11.8727 10.981 11.8464 11.0843C11.8792 11.0689 11.9385 11.0513 11.9934 10.9328C12.0482 10.8143 12.4317 10.0924 12.4317 10.0924L12.1489 10.0922Z" fill="#483925"/>
<path fill-rule="evenodd" clip-rule="evenodd" d="M13.1181 9.76306C13.1181 9.76306 13.0215 9.61608 13.1401 9.48647C13.2587 9.35686 13.4275 9.30218 13.4933 9.22102C13.4808 9.20557 13.464 9.19415 13.445 9.18819C13.4887 9.11 13.5554 9.04713 13.636 9.00809C13.6031 8.97525 13.5592 8.94892 13.511 8.94892C13.4034 8.94892 13.3374 9.01474 13.2387 9.01474C13.1422 9.01474 13.1313 8.96642 13.1313 8.96642C13.1313 8.96642 13.2937 8.95109 13.2782 8.87862C13.2629 8.8018 13.2348 8.8018 13.2348 8.8018C13.2348 8.8018 13.5486 8.67161 13.6034 8.60218C13.6582 8.53274 13.6517 8.45072 13.6627 8.41788C13.6999 8.41788 13.9172 8.30375 14.005 8.35206C14.0928 8.40038 14.0313 8.53202 14.0313 8.53202C14.0313 8.53202 14.2971 8.33224 14.4325 8.13638C14.5509 8.14737 14.606 8.05522 14.6928 8.05522C14.8005 8.05522 14.9694 8.2022 15.0023 8.51596C15.0243 8.69591 15.0571 8.79906 15.0243 9.1173C15.0089 9.29726 15.0133 9.68147 15.0676 9.87213C15.1048 10.0236 15.1926 10.0083 15.1926 10.0083C15.1792 10.0544 15.1525 10.0956 15.1158 10.1267C15.0565 10.1816 15.05 10.3265 15.0565 10.3813C15.0653 10.4214 15.0763 10.461 15.0895 10.4998C15.0895 10.4998 15.0193 10.581 15.0017 10.6359C14.9864 10.6908 14.914 10.7281 14.8612 10.7281C14.8084 10.7281 14.8349 10.7236 14.7647 10.7281C14.6946 10.7326 14.6726 10.7434 14.6286 10.7281C14.5846 10.7127 14.5518 10.6951 14.5694 10.5545C14.5848 10.414 14.0274 10.0871 14.0274 10.0871L13.1161 9.76233L13.1181 9.76306Z" fill="#B79947"/>
<path fill-rule="evenodd" clip-rule="evenodd" d="M12.0708 11.1499C12.0708 11.1499 12.2704 11.4155 13.0912 11.4155C13.4818 11.4155 13.6179 11.3782 13.6987 11.3562C13.7865 11.3342 14.1156 11.2049 14.4471 10.8142C14.7455 10.4609 14.6797 10.3161 14.6797 10.3161L14.5061 10.2898L13.9419 10.3666L12.2726 11.0776L12.07 11.1499H12.0708Z" fill="#62593C"/>
<path fill-rule="evenodd" clip-rule="evenodd" d="M12.6839 11.2158C12.6839 11.2158 11.9729 11.3739 11.9729 10.924C11.9729 10.4851 12.4118 10.0242 12.5216 9.9431C12.6358 9.8618 12.9079 9.76951 12.9079 9.76951H13.564L13.689 10.1009L13.6342 10.8163L12.6839 11.2158Z" fill="#222014"/>
<path fill-rule="evenodd" clip-rule="evenodd" d="M13.3403 9.90361C13.3403 9.90361 13.2043 9.77848 12.8949 9.94701C12.5855 10.1155 12.3352 10.4678 12.3199 10.7876C12.3045 11.0706 12.5525 11.2813 12.9387 11.2923C13.2262 11.3032 13.3996 11.2703 13.4874 11.2489C13.4654 11.2226 13.3513 11.08 13.3513 11.08L13.3403 9.90361Z" fill="#D8C47C"/>
<path fill-rule="evenodd" clip-rule="evenodd" d="M13.2063 9.97359C13.2063 9.97359 13.1734 9.94726 13.0761 9.99991C12.9949 10.0433 12.8764 10.158 12.7843 10.2392C12.725 10.2875 12.6877 10.3093 12.6541 10.3467C12.518 10.5091 12.4038 10.7747 12.4698 10.9063C12.5358 11.038 12.7529 11.1894 13.3059 11.0863L13.2047 9.97373L13.2063 9.97359Z" fill="#E6DB9D"/>
<path fill-rule="evenodd" clip-rule="evenodd" d="M13.0262 10.2458C13.0262 10.2458 12.9384 10.3819 12.9384 10.5992C12.9384 10.8208 13.0635 11.1741 13.5244 11.2004C13.8776 11.2224 14.1146 10.6913 14.3714 10.4851C14.5667 10.3271 14.6851 10.3226 14.6851 10.3226C14.6851 10.3226 14.4855 10.1056 13.9523 9.82455C13.4256 9.54145 12.8352 9.50413 12.5148 9.93868C12.6663 9.92769 13.1557 9.80256 13.1557 9.80256L13.3949 9.87937L13.0262 10.2458Z" fill="#222014"/>
<path fill-rule="evenodd" clip-rule="evenodd" d="M13.7151 10.5334C13.6998 10.5005 13.6888 10.4565 13.7524 10.4457C13.8161 10.4348 13.8446 10.4412 13.8666 10.4891C13.8885 10.537 13.91 10.5769 13.8774 10.5967C13.8446 10.6142 13.7591 10.597 13.7151 10.5334ZM13.612 10.2239C13.612 10.2239 13.59 10.2393 13.601 10.2086C13.6053 10.1714 13.6339 10.1055 13.7041 10.1209C13.7743 10.1364 13.7591 10.2131 13.7475 10.2351C13.7359 10.2571 13.6773 10.2942 13.6334 10.2785C13.6278 10.277 13.6226 10.2743 13.6183 10.2705C13.614 10.2667 13.6106 10.262 13.6085 10.2566C13.6063 10.2513 13.6055 10.2455 13.606 10.2398C13.6065 10.2341 13.6083 10.2285 13.6114 10.2236L13.612 10.2239Z" fill="#62593C"/>
<path fill-rule="evenodd" clip-rule="evenodd" d="M7.67139 10.3642C7.67139 10.3642 7.84498 10.4944 8.04663 10.4893C8.24626 10.4848 8.50303 10.2787 8.6215 10.1469C8.69166 10.0701 8.75169 9.98895 8.81679 9.9253C8.87176 9.87047 8.90894 9.84414 8.93526 9.80682C8.97259 9.76342 9.01208 9.68184 9.0319 9.65536C8.98358 9.69269 8.91342 9.75865 8.84095 9.80248C8.77079 9.84588 8.61933 9.92747 8.55785 9.94945C8.49869 9.97144 7.88418 10.2966 7.88418 10.2966L7.67139 10.3642Z" fill="#9F8E57"/>
<path fill-rule="evenodd" clip-rule="evenodd" d="M7.93769 8.74273C7.93769 8.74273 8.03418 8.67691 8.22078 8.6351C8.40074 8.59171 8.76282 8.55829 8.76282 8.55829L9.06125 8.68848L9.17972 9.13837L8.96274 9.60591L8.6863 9.7795L8.37239 9.27478L7.93841 8.7436L7.93769 8.74273Z" fill="#9F8E57"/>
<path fill-rule="evenodd" clip-rule="evenodd" d="M7.54621 9.14425L7.44292 9.22136C7.44292 9.22136 7.46939 9.17304 7.49124 9.02607C7.51308 8.87909 7.62736 8.52135 7.79415 8.31507C7.96094 8.10879 7.9566 8.11978 7.9566 8.11978C7.94126 8.11698 7.92548 8.11747 7.91034 8.12124C7.8952 8.12501 7.88104 8.13196 7.8688 8.14163C7.89078 8.09302 8.03125 7.91943 8.17171 7.83264C8.31217 7.74584 8.367 7.7185 8.51397 7.78924C8.66094 7.85998 8.69826 7.89672 8.80589 7.89238C8.91352 7.88804 9.00552 7.77391 9.00552 7.77391C9.00552 7.77391 9.02751 7.84407 8.94635 8.00652C8.8652 8.16897 8.54478 8.50024 8.54478 8.50024L7.87762 8.95663L7.54621 9.14469V9.14425Z" fill="#D8C47C"/>
<path fill-rule="evenodd" clip-rule="evenodd" d="M7.46064 9.28045C7.46064 9.28045 7.36849 9.33527 7.32018 9.54083C7.27186 9.75145 7.36357 10.0082 7.41666 10.0894C7.46975 10.1705 7.59025 10.3923 7.84022 10.4033C7.90209 10.403 7.96328 10.3903 8.02018 10.366C8.10744 10.3259 8.18929 10.2751 8.26378 10.2145C8.37141 10.1334 8.45907 10.0632 8.44807 10.0565C8.42175 10.0455 7.7854 9.51884 7.7854 9.51884L7.54613 9.2518L7.46064 9.28045Z" fill="#62593C"/>
<path fill-rule="evenodd" clip-rule="evenodd" d="M8.06206 10.1537C8.06206 10.1537 8.19153 10.1428 8.26835 10.0945C8.34516 10.0462 7.81846 9.524 7.81846 9.524L7.85578 10.0882L8.06206 10.1537Z" fill="#483925"/>
<path fill-rule="evenodd" clip-rule="evenodd" d="M7.50235 9.24082C7.50235 9.24082 7.43653 9.36595 7.43653 9.39894C7.42553 9.50642 7.45852 9.84434 7.48484 9.95182C7.51117 10.066 7.6538 10.2393 7.83824 10.2393C7.95223 10.2393 8.11034 10.1691 8.11034 10.1516C8.11034 10.1296 7.94789 10.1082 7.90406 10.0265C7.87773 9.98307 7.86674 9.87515 7.86066 9.76608C7.85633 9.69592 7.85633 9.61911 7.88265 9.59249C7.94196 9.52667 7.95281 9.33789 7.95281 9.33789L8.16343 8.94659H7.88641L7.555 9.15287L7.50235 9.24082Z" fill="#987938"/>
<path fill-rule="evenodd" clip-rule="evenodd" d="M7.4215 9.36158C7.4215 9.36158 7.63849 9.07414 7.83407 9.00818C8.02965 8.94221 8.11717 8.98185 8.11717 8.98185L8.00303 9.27377L7.84058 9.45372L7.85157 9.54587C7.85157 9.54587 7.8251 9.78948 7.98755 9.95844C8.15 10.1274 8.27065 10.1209 8.34095 10.1209C8.41125 10.1209 8.61305 10.0616 8.71619 9.81797C8.80834 9.58985 8.88515 9.2972 8.70086 9.00384C8.52076 8.71192 8.20266 8.70063 8.14118 8.70063C8.0797 8.70063 7.59697 8.72479 7.4215 9.36114V9.36158Z" fill="#222014"/>
<path fill-rule="evenodd" clip-rule="evenodd" d="M12.9934 10.338C12.9123 10.3007 12.9891 10.0725 13.0702 10.0022C13.1514 9.93193 13.2545 9.85092 13.4346 9.83979C13.5003 9.83545 13.564 9.87711 13.5531 9.92108C13.5378 10.0022 13.4236 10.1164 13.3205 10.1975C13.1779 10.3095 13.0856 10.3797 12.9934 10.338Z" fill="white"/>
<path fill-rule="evenodd" clip-rule="evenodd" d="M8.60433 9.09376C8.66364 9.08942 8.74046 9.13716 8.75579 9.20138C8.77112 9.27154 8.71847 9.41201 8.60433 9.41201C8.51219 9.41201 8.46387 9.29787 8.46387 9.26503C8.46491 9.23803 8.47245 9.21168 8.48586 9.18822C8.4902 9.18157 8.50119 9.10475 8.60433 9.09376Z" fill="white"/>
<path fill-rule="evenodd" clip-rule="evenodd" d="M7.74839 9.14435C7.74839 9.14435 7.59694 9.21451 7.52678 9.36134C7.47665 9.46976 7.46148 9.59109 7.48338 9.70852C7.49437 9.76335 7.5492 9.89933 7.58652 9.94764C7.62384 9.99596 7.67433 10.0289 7.71165 10.0245C7.74897 10.02 7.82564 9.92131 7.82564 9.86215C7.82564 9.80298 7.83013 9.55272 7.90246 9.4166C7.96611 9.28062 7.74883 9.1445 7.74883 9.1445L7.74839 9.14435Z" fill="#D8C47C"/>
<path fill-rule="evenodd" clip-rule="evenodd" d="M7.77023 9.13325C7.7439 9.14858 7.70007 9.17057 7.71092 9.19907C7.72191 9.2254 7.81406 9.24247 7.84704 9.30669C7.88436 9.37251 7.88436 9.44267 7.87337 9.47566C7.90203 9.46204 7.92804 9.44342 7.95018 9.42068C7.9985 9.36586 8.05766 9.29136 8.10815 9.29136C8.14113 9.29136 8.17397 9.30669 8.20478 9.30669C8.2531 9.30669 8.30127 9.29136 8.30792 9.24087C8.31877 9.17506 8.21577 9.11575 8.15647 9.12674C8.16746 9.08334 8.18279 9.01926 8.13448 8.97528C8.08616 8.93131 7.93485 9.00826 7.90187 9.03025C7.86888 9.05224 7.77023 9.13325 7.77023 9.13325Z" fill="#E6DB9D"/>
<path fill-rule="evenodd" clip-rule="evenodd" d="M11.2577 13.7438L11.5824 13.6479L11.6746 13.7137C11.6746 13.7137 11.7403 13.8541 11.8435 13.8716C11.8106 13.9418 11.7249 14.0018 11.7294 14.0516C11.7339 14.1014 11.7777 14.1394 11.7777 14.1394C11.7777 14.1394 11.4858 14.6221 12.0608 15.1086C11.9247 15.1634 11.7514 15.2388 11.6592 15.2822C11.7249 15.2975 11.8654 15.3256 11.9247 15.3788C11.984 15.4321 11.984 15.449 12.0388 15.482C12.0937 15.515 12.1265 15.5588 12.1156 15.5785C12.0783 15.5565 11.9532 15.4908 11.9313 15.5521C11.9095 15.6135 11.3893 15.5895 11.3893 15.5895L10.5115 15.7584C10.5115 15.7584 10.5444 15.6706 10.4522 15.5895C10.3447 15.493 10.2131 15.5938 10.0726 15.4863C9.88834 15.3459 9.88168 15.1834 9.82252 15.1221C9.88168 15.0848 10.0025 15.0299 10.2899 14.9919C10.2789 14.9699 10.2416 14.9041 10.2636 14.8449C10.2899 14.7681 10.3996 14.7198 10.3667 14.6279C10.415 14.6169 10.4369 14.6169 10.5577 14.4655C10.6718 14.314 10.742 14.2812 10.8298 14.2702C10.9176 14.2592 10.9702 14.2702 11.1327 14.1187C11.2467 14.0112 11.2095 13.9191 11.2095 13.9191C11.2095 13.9191 11.2839 13.8952 11.2577 13.7438Z" fill="#CAAE5B"/>
<path fill-rule="evenodd" clip-rule="evenodd" d="M7.86272 17.1188C7.87984 17.1378 7.8998 17.1541 7.92189 17.1671C7.97686 17.2044 8.05801 17.2484 8.11284 17.3141C8.13483 17.2812 8.18965 17.2219 8.28643 17.3141C8.3832 17.4062 8.50342 17.3405 8.5782 17.3624C8.65502 17.3888 8.65936 17.3997 8.65936 17.3997C8.65936 17.3997 8.70275 17.3624 8.79982 17.3229C8.85913 17.3009 8.92929 17.2856 9.0061 17.2637C9.07626 17.2484 9.15308 17.2264 9.20588 17.2264C9.25419 17.2592 9.42749 17.4434 10.1232 17.1716C10.7793 16.917 10.9306 16.8885 11.0404 16.9278C11.0514 16.9015 11.0624 16.851 11.2314 16.8577C11.2314 16.7875 11.0909 16.5482 11.0909 16.5482L10.3163 16.2828H9.89257L8.62204 16.5154L7.91798 16.9171L7.86316 17.1196L7.86272 17.1188Z" fill="#CAAE5B"/>
<path fill-rule="evenodd" clip-rule="evenodd" d="M7.43935 16.6734C7.43935 16.6734 7.45468 16.7919 7.6303 16.917C7.80389 17.042 7.85843 17.1167 7.85843 17.1167C7.85843 17.1167 7.89141 17.0733 7.91774 17.029C7.94406 16.9807 7.96605 16.9259 8.00988 16.9105C8.09769 16.8732 8.29732 16.9434 8.3413 16.9324C8.37862 16.9215 8.36762 16.8447 8.40711 16.8447C8.49926 16.8402 8.55843 16.9039 8.59141 16.9039C8.62439 16.9039 8.7054 16.8995 8.71639 16.882C8.72739 16.8645 8.73173 16.6823 8.85686 16.5945C8.99298 16.498 9.15977 16.5396 9.20404 16.5616C9.20404 16.5945 9.20838 16.6758 9.29618 16.6801C9.38399 16.6844 9.39267 16.6691 9.46977 16.6954C9.54688 16.7218 9.63873 16.6911 9.6804 16.8204C9.71772 16.8096 9.80553 16.7986 9.78354 16.6734C9.82693 16.6406 9.86484 16.6186 9.95713 16.4891C9.97912 16.4563 10.0163 16.419 10.0449 16.3707C10.1217 16.3707 10.2139 16.3553 10.3367 16.4628C10.2994 16.4891 10.2774 16.5062 10.2666 16.533C10.2987 16.5648 10.328 16.5993 10.3542 16.6361C10.3872 16.6795 10.4092 16.7327 10.4508 16.7437C10.543 16.7701 10.6944 16.7327 10.8634 16.7437C11.0259 16.7547 11.1618 16.8139 11.2212 16.8512C11.2431 16.8404 11.2431 16.8359 11.298 16.8469C11.3528 16.8579 11.3945 16.8622 11.3353 16.7921C11.3681 16.8074 11.4054 16.8404 11.4384 16.8074C11.4714 16.7744 11.4976 16.7262 11.5897 16.7152C11.6819 16.7043 11.7149 16.7196 11.7522 16.6231C11.8005 16.5046 11.6337 16.5046 11.6337 16.5046C11.6337 16.5046 11.7105 16.4343 11.7962 16.3422C11.8993 16.2457 12.0178 16.1206 12.0463 15.9669C12.0946 15.6838 11.8182 15.6467 11.8182 15.6467L10.4773 16.0592L8.83805 15.9779L7.44022 16.6736L7.43935 16.6734Z" fill="#987938"/>
<path fill-rule="evenodd" clip-rule="evenodd" d="M6.23456 12.8002C6.23456 12.8002 6.19116 12.855 6.1644 12.9845C6.13764 13.114 6.14906 13.0986 6.12708 13.1908C6.10509 13.2829 5.83501 14.2002 5.93627 14.5096C6.03753 14.8191 6.21286 14.9332 6.32251 15.1833C6.3445 15.2381 6.36591 15.2711 6.37734 15.3194C6.41466 15.4817 6.38182 15.6069 6.42565 15.7693C6.44098 15.8241 6.48062 15.8878 6.53979 15.9536C6.66998 16.0896 6.88219 16.2191 6.97376 16.3112C7.10309 16.4473 7.28752 16.7239 7.5223 16.7501C7.64743 16.7654 7.82522 16.7128 7.97219 16.6251C8.10238 16.5438 8.18281 16.4298 8.31937 16.3647C8.41586 16.3164 8.519 16.2989 8.61115 16.2769C8.80209 16.2396 8.97554 16.2335 9.07868 16.2549C9.23665 16.2879 9.60972 16.4021 9.81644 16.4021C9.97797 16.3994 10.1386 16.3773 10.2948 16.3362C10.6086 16.2441 10.9882 16.086 11.2384 16.0158C11.3854 15.9724 11.5039 15.961 11.6247 15.9347C11.8309 15.8863 12.0042 15.8205 12.103 15.6954C12.0372 15.6186 11.9561 15.5001 11.517 15.5044C11.019 15.5154 10.444 15.7919 10.1609 15.8359C9.87777 15.8798 9.75496 15.917 9.43888 15.8029C9.12902 15.6876 9.11875 15.6114 9.11875 15.6114C9.11875 15.6114 8.79342 15.3838 8.65729 14.8037C8.52117 14.2236 8.65729 13.801 9.01069 13.3992C9.10284 13.2961 9.08085 13.204 9.08085 13.204C9.08085 13.204 9.31346 12.8902 9.24981 12.5964C9.17965 12.3045 8.72977 12.3638 8.72977 12.3638L6.23456 12.8002Z" fill="#62593C"/>
<path d="M6.34234 12.3179C6.32764 12.3338 6.31147 12.3484 6.29403 12.3613C6.36433 12.1483 6.47832 12.0124 6.74377 11.883C7.01587 11.7644 7.5404 11.743 8.12193 11.9163C8.70345 12.0896 9.09851 12.2631 9.09851 12.6493C9.09851 12.7844 9.02641 12.8509 8.91935 12.9496C8.87697 12.9887 8.82912 13.0328 8.7781 13.0882C8.69046 13.179 8.59467 13.3011 8.5034 13.4175C8.46901 13.4613 8.43527 13.5044 8.40285 13.5446C8.30176 13.668 8.20491 13.7776 8.10195 13.8682C8.23672 13.8349 8.29822 13.8492 8.31829 13.8825C8.32812 13.8987 8.25768 13.9265 8.16578 13.9627C8.01012 14.024 7.79289 14.1095 7.79981 14.2046C7.80247 14.2391 7.94387 14.2925 8.0845 14.3456C8.21151 14.3937 8.33789 14.4414 8.36082 14.4747C8.38705 14.5101 8.40909 14.5484 8.4265 14.5888C8.43098 14.6327 8.43098 14.7315 8.36082 14.7798C8.29154 14.8307 8.21091 14.7871 8.07857 14.7156C8.06834 14.71 8.05779 14.7043 8.04691 14.6985C7.88012 14.6063 7.68917 14.4111 7.68917 14.4111C7.64754 14.4352 7.60114 14.45 7.55319 14.4545C7.50028 14.4616 7.44903 14.478 7.40174 14.5028C7.40174 14.5028 7.2704 14.1278 7.10795 14.2046C6.9638 14.2721 6.93268 14.2824 6.92706 14.2824C6.92707 14.2813 6.927 14.2805 6.927 14.2805C6.927 14.2805 6.92462 14.2824 6.92706 14.2824C6.92696 14.2932 6.91976 14.3411 6.78318 14.2046C6.60554 14.0312 6.58789 13.9544 6.58355 13.8952C6.58195 13.8642 6.58674 13.8332 6.5975 13.8043C6.44755 13.6513 6.33132 13.4554 6.26104 13.2352C6.10635 12.7482 6.28063 12.4305 6.3351 12.3312C6.33784 12.3262 6.34027 12.3218 6.34234 12.3179Z" fill="#222014"/>
<path fill-rule="evenodd" clip-rule="evenodd" d="M9.1039 15.0122C9.1039 15.0122 9.06658 15.0342 9.06658 15.0452C9.06327 15.0558 9.0618 15.0669 9.06224 15.078C9.06224 15.0845 9.11055 15.0737 9.11706 15.067C9.11923 15.0627 9.1039 15.0236 9.1039 15.0122Z" fill="#62593C"/>
<path fill-rule="evenodd" clip-rule="evenodd" d="M8.77777 14.9091C8.79962 14.9136 8.83694 14.9091 8.86544 14.9201C8.88742 14.9311 8.90276 14.9531 8.88077 14.9794C8.85878 15.0057 8.83737 15.0452 8.78862 15.0386C8.7338 15.0342 8.68114 15.0057 8.68114 14.9837C8.68022 14.9698 8.68207 14.9559 8.68659 14.9427C8.69111 14.9295 8.69821 14.9174 8.70747 14.9069C8.72946 14.8894 8.74045 14.9004 8.77777 14.9091Z" fill="#62593C"/>
<path fill-rule="evenodd" clip-rule="evenodd" d="M6.24949 15.1044C6.26546 15.1074 6.28183 15.1074 6.2978 15.1044C6.33064 15.1 6.67305 14.9742 7.03079 14.9968C7.29859 15.013 7.56403 15.0566 7.82293 15.127C8.27282 15.2455 8.83236 15.4803 9.19444 15.6142C9.29093 15.6514 9.38539 15.7174 9.45482 15.7435C9.73141 15.8512 9.74226 15.8512 9.90471 15.8797C10.0957 15.906 10.2909 15.8423 10.4951 15.7985C10.7452 15.7435 11.1731 15.7172 11.5483 15.6624C11.6697 15.6456 11.7893 15.6184 11.9061 15.5812C11.9061 15.5812 11.6076 15.8797 10.8921 15.9871C10.6029 16.0311 10.3091 16.0348 10.0188 15.9981C9.79057 15.9761 9.63926 15.9432 9.52513 15.9103C9.39566 15.873 9.13006 15.7742 8.80314 15.6933C8.57487 15.634 8.32027 15.5902 8.02849 15.5354C7.30867 15.4036 6.52752 15.2523 6.2492 15.1053L6.24949 15.1044Z" fill="#222014"/>
<path d="M5.78376 12.1088C5.81491 12.1367 5.84614 12.1646 5.8766 12.1924C5.79979 12.1224 5.72529 12.0517 5.64848 11.9751C5.57166 11.8986 5.49702 11.8283 5.42021 11.7581L5.19208 11.5475C5.1732 11.5286 5.15377 11.5109 5.13435 11.4931C5.11537 11.4758 5.09638 11.4584 5.07794 11.44L4.97046 11.3324C4.66104 11.0451 4.35813 10.7641 4.0487 10.481C4.28098 10.7046 4.51685 10.9281 4.75269 11.1516L4.75369 11.1526C4.82082 11.2162 4.88794 11.2798 4.95498 11.3434C4.97473 11.3609 4.9963 11.3795 5.01777 11.3981C5.03685 11.4146 5.0559 11.4311 5.07346 11.4466C5.09233 11.4655 5.11175 11.4832 5.13116 11.501C5.15015 11.5184 5.16915 11.5357 5.1876 11.5542L5.41587 11.7712C5.49268 11.8413 5.56935 11.9116 5.64399 11.9818C5.68901 12.0241 5.73639 12.0665 5.78376 12.1088Z" fill="#B79947"/>
<path fill-rule="evenodd" clip-rule="evenodd" d="M5.32347 12.6143C5.30578 12.6111 5.28813 12.6079 5.27051 12.6048C5.20969 12.5938 5.1492 12.5829 5.08879 12.5724L4.62806 12.4956L3.7063 12.3486C3.67509 12.3442 3.64424 12.3397 3.61346 12.3352C3.5685 12.3287 3.52361 12.3222 3.47802 12.3158L3.24556 12.2893C3.18037 12.2827 3.11518 12.2757 3.04947 12.2687C2.96255 12.2593 2.87462 12.2499 2.78468 12.2412C2.47721 12.2084 2.16974 12.1758 1.86227 12.1495L1.85626 12.1486L1.85641 12.149L1.87732 12.1518C2.15486 12.1947 2.43239 12.2308 2.70993 12.2645L4.26596 12.4752L4.62806 12.5286L5.08879 12.5944C5.24025 12.6164 5.39822 12.6384 5.54967 12.6537C5.5055 12.6464 5.46183 12.6388 5.41852 12.6312L5.55184 12.6492C5.55184 12.6492 5.46405 12.6358 5.32347 12.6143ZM1.86438 12.1498L1.85641 12.149L1.86227 12.1495L1.86438 12.1498ZM5.32347 12.6143C4.87185 12.5452 3.8755 12.3934 3.49567 12.3398C2.98473 12.2668 1.96463 12.1603 1.86438 12.1498C1.8687 12.1505 1.87301 12.1512 1.87732 12.1518L2.70993 12.2645C2.7348 12.2676 2.75966 12.2706 2.78453 12.2736C2.84154 12.2802 2.89947 12.2875 2.95763 12.2947C3.05398 12.3068 3.15097 12.319 3.24541 12.3285L3.47802 12.3553C3.51699 12.3608 3.5554 12.3675 3.59382 12.3742C3.6311 12.3807 3.66849 12.3872 3.7063 12.3926L4.26596 12.4752L5.41852 12.6312C5.38666 12.6256 5.35499 12.6199 5.32347 12.6143Z" fill="#B79947"/>
<path d="M5.44182 12.9363L5.44219 12.9362L5.42515 12.9411C5.16966 13.0162 4.91541 13.0892 4.65618 13.158L4.49811 13.2003L3.27591 13.5421C3.21375 13.5603 3.15159 13.5785 3.08939 13.5969L2.69881 13.7043C2.63825 13.7218 2.57722 13.7383 2.51572 13.7547L2.2953 13.8163C2.2953 13.8163 2.32132 13.8084 2.36692 13.7946C2.34596 13.8003 2.32495 13.8061 2.30389 13.812L2.31509 13.8082C2.44082 13.766 2.56874 13.7231 2.69447 13.6868L3.08505 13.5619C3.21439 13.5216 3.34338 13.4824 3.47228 13.4433C3.60356 13.4034 3.73483 13.3635 3.8662 13.3226C3.97719 13.2951 4.08745 13.2668 4.19758 13.2385C4.35075 13.1992 4.50399 13.1598 4.65835 13.1228C4.90999 13.0593 5.17486 12.996 5.43977 12.9368L5.43869 12.9371L5.4412 12.9365L5.43977 12.9368L5.44182 12.9363Z" fill="#B79947"/>
<path fill-rule="evenodd" clip-rule="evenodd" d="M2.45969 14.5405C2.46095 14.54 2.46235 14.5395 2.46387 14.5389C2.5167 14.5186 2.56817 14.4963 2.61914 14.4732C2.65794 14.4567 2.69668 14.4401 2.7354 14.4235C2.86314 14.3689 2.99097 14.3142 3.12046 14.2617L3.78314 13.9699C3.84211 13.9445 3.90094 13.9197 3.95957 13.895C4.12358 13.8258 4.28614 13.7573 4.44597 13.678C4.54762 13.6308 4.65172 13.5865 4.75594 13.5421C4.87444 13.4917 4.99321 13.4411 5.10864 13.3862C5.08036 13.3935 5.05309 13.4014 5.0259 13.4092L5.10621 13.3738C5.10621 13.3738 5.03902 13.3976 4.94524 13.4319C4.94186 13.4328 4.93846 13.4337 4.93506 13.4346L4.76147 13.4894C4.64747 13.5267 4.53334 13.5662 4.4192 13.6144C4.27831 13.6754 4.14251 13.7431 4.0071 13.8107C3.92744 13.8504 3.84788 13.8901 3.76752 13.9283L3.11569 14.242L2.82572 14.3773C2.78107 14.3977 2.73923 14.4168 2.70086 14.4342L2.45969 14.5405ZM2.70086 14.4342L2.74958 14.4127C2.7398 14.4172 2.73002 14.4218 2.72024 14.4264L2.71911 14.4269C2.68585 14.4425 2.6526 14.458 2.61914 14.4732C2.58554 14.4875 2.55188 14.5018 2.51815 14.5159C2.56162 14.497 2.62432 14.4689 2.70086 14.4342Z" fill="#B79947"/>
<path d="M2.60452 15.1483L3.3268 14.7577L3.68454 14.5624C3.80519 14.4988 3.91932 14.433 4.0378 14.3628C4.1103 14.3246 4.1804 14.284 4.25048 14.2434C4.29711 14.2164 4.34388 14.1893 4.3912 14.163C4.45043 14.1301 4.51025 14.0988 4.57007 14.0676C4.62986 14.0363 4.68972 14.005 4.74894 13.9721C4.78318 13.9536 4.81742 13.9351 4.85165 13.9167C5.05644 13.8065 5.26063 13.6966 5.45993 13.5705C5.2257 13.6646 5.00242 13.7734 4.78011 13.8817C4.75879 13.8921 4.73727 13.9025 4.71595 13.9129L4.53166 14.0051C4.46931 14.0309 4.40914 14.0617 4.3517 14.0972C4.25874 14.1479 4.16964 14.2012 4.07944 14.2552C4.05264 14.2712 4.02557 14.2874 3.99845 14.3035C3.97363 14.3179 3.94909 14.3321 3.92474 14.3463L3.92364 14.3469C3.82995 14.4012 3.73873 14.4541 3.64505 14.5096L3.29787 14.7204C3.11503 14.8342 2.9322 14.9467 2.75154 15.0578L2.75125 15.058C2.70633 15.0856 2.66155 15.1132 2.61694 15.1406C2.60866 15.1455 2.60452 15.1483 2.60452 15.1483Z" fill="#B79947"/>
<path d="M5.4347 13.7536L5.44185 13.7481L5.43201 13.7555C5.318 13.8353 5.20712 13.9183 5.09597 14.0014C5.02661 14.0533 4.95711 14.1053 4.88672 14.1567L4.52986 14.4312L4.08558 14.764C4.05241 14.7878 4.01912 14.8115 3.98583 14.8352L3.98544 14.8354C3.92054 14.8817 3.85562 14.9279 3.79152 14.9744C3.61111 15.1054 3.43085 15.2386 3.26049 15.382L3.25621 15.3852L3.25957 15.3828C3.2562 15.3856 3.25284 15.3885 3.24948 15.3913C3.44506 15.2662 3.62921 15.1369 3.81365 15.0008C3.90566 14.9328 3.99656 14.8639 4.08744 14.7949C4.17867 14.7256 4.27004 14.6563 4.36234 14.5882L4.90437 14.1717C5.08351 14.0362 5.26696 13.8963 5.43998 13.7499C5.43821 13.7512 5.43646 13.7524 5.4347 13.7536Z" fill="#B79947"/>
<path d="M10.2984 13.7926C10.3028 13.7706 10.3204 13.7596 10.4389 13.7706C10.5134 13.7775 10.8378 13.748 11.1191 13.7224C11.2851 13.7072 11.4362 13.6935 11.512 13.6894C11.7182 13.6741 12.4446 13.6849 12.798 13.7596C13.1514 13.8342 13.509 13.922 13.6823 13.9659C13.8558 14.0142 13.9105 14.0315 13.9039 14.0535C13.8995 14.0755 13.8605 14.0969 13.8381 14.0908C13.8322 14.0897 13.786 14.076 13.7182 14.056C13.5348 14.0018 13.1932 13.9009 13.0636 13.8739C12.8859 13.8368 12.2713 13.7377 11.9352 13.7437C11.8592 13.7447 11.7942 13.7451 11.7357 13.7453C11.5526 13.7462 11.432 13.7468 11.2309 13.77C10.9653 13.803 10.5264 13.8468 10.3948 13.8293C10.2857 13.8165 10.2869 13.8144 10.294 13.8011C10.2954 13.7986 10.297 13.7956 10.2981 13.792L10.2984 13.7926Z" fill="#B79947"/>
<path d="M4.48298 15.2844L4.48321 15.2847C4.54782 15.2317 4.6108 15.1774 4.67502 15.1219C4.71779 15.085 4.7611 15.0476 4.8058 15.0099C4.85714 14.9641 4.9068 14.9165 4.95643 14.869C5.00662 14.821 5.05687 14.7729 5.10871 14.7268C5.17392 14.6687 5.24087 14.613 5.30736 14.5578C5.34595 14.5257 5.38462 14.4935 5.42248 14.4613C5.44004 14.4453 5.45845 14.4294 5.47711 14.4132C5.50977 14.3849 5.54319 14.3559 5.57393 14.3252C5.58105 14.3181 5.58818 14.3105 5.59548 14.3027C5.61057 14.2867 5.62634 14.2699 5.64409 14.255C5.65379 14.2425 5.66433 14.2325 5.67496 14.2224C5.68496 14.2129 5.69505 14.2033 5.70457 14.1915L5.71402 14.183C5.71339 14.1834 5.71274 14.1837 5.71209 14.1841C5.71101 14.1847 5.70992 14.1853 5.7088 14.186C5.71064 14.1835 5.71246 14.1809 5.71425 14.1782C5.68746 14.1818 5.66517 14.1973 5.6449 14.2115C5.63705 14.217 5.6295 14.2223 5.62211 14.2265C5.59044 14.2424 5.56097 14.2624 5.53444 14.2858C5.48137 14.3298 5.43081 14.3767 5.38299 14.4263C5.34141 14.4688 5.30022 14.5122 5.25907 14.5555C5.20472 14.6127 5.15046 14.6698 5.09555 14.7247C5.05211 14.7683 5.00314 14.8122 4.9585 14.8523C4.95365 14.8566 4.94883 14.8609 4.94409 14.8652L4.78613 15.0012C4.68313 15.0933 4.57999 15.1877 4.48348 15.284L4.48298 15.2844Z" fill="#B79947"/>
<path d="M5.79372 14.4083L5.79555 14.4065C5.71874 14.4701 5.64813 14.5405 5.5758 14.6128L5.54386 14.6441L5.25278 14.9189C5.21542 14.9512 5.1786 14.9836 5.14342 15.0187L5.04797 15.1122L4.9331 15.2206C4.94005 15.2152 4.94826 15.2086 4.95761 15.2007L4.9328 15.225C4.99408 15.1792 5.04903 15.1313 5.10528 15.0824C5.12363 15.0664 5.14218 15.0502 5.16107 15.034C5.21074 14.9873 5.25662 14.9404 5.30248 14.8936C5.3254 14.8702 5.34831 14.8468 5.37169 14.8234L5.58868 14.6171C5.66132 14.5519 5.72981 14.4821 5.79372 14.4083Z" fill="#B79947"/>
<path d="M5.01395 16.3882L5.02039 16.3755C5.06847 16.2549 5.1308 16.1407 5.19195 16.0286C5.19997 16.0139 5.20809 15.999 5.21604 15.9844C5.224 15.9709 5.23189 15.9574 5.23971 15.9439L5.53135 15.37C5.53867 15.3545 5.54597 15.3391 5.55317 15.324C5.57626 15.2755 5.59841 15.2289 5.61732 15.1834C5.62964 15.1571 5.64104 15.1314 5.65223 15.1061C5.67084 15.0641 5.68887 15.0235 5.70947 14.9838C5.71682 14.9703 5.72393 14.9569 5.73099 14.9436C5.7596 14.8897 5.78744 14.8373 5.82794 14.7862C5.82794 14.8674 5.80624 14.9377 5.77991 15.0078C5.75425 15.078 5.72499 15.1469 5.69225 15.2141C5.65927 15.2799 5.62195 15.3502 5.58463 15.4139C5.57256 15.4345 5.55981 15.4552 5.54697 15.4762C5.5201 15.52 5.49281 15.5645 5.47049 15.6092L5.24887 15.9997C5.23293 16.0268 5.21707 16.0538 5.20123 16.0809C5.14078 16.184 5.08057 16.2868 5.01626 16.386C5.01751 16.3828 5.01876 16.3796 5.02003 16.3764C5.01796 16.3804 5.01593 16.3843 5.01395 16.3882Z" fill="#B79947"/>
<path d="M6.41432 17.2373C6.39262 16.8731 6.60961 16.5856 6.60961 16.5856C6.57138 16.6907 6.52807 16.8433 6.48655 16.9895C6.46129 17.0785 6.4367 17.1651 6.41432 17.2373Z" fill="#B79947"/>
<path d="M6.67542 18.039C6.73907 17.6549 6.81589 16.8738 6.81589 16.8738C6.78834 17.5075 6.77158 17.5858 6.71436 17.8532C6.70309 17.9059 6.69024 17.9659 6.67542 18.039Z" fill="#B79947"/>
<path d="M8.24908 18.0974C8.25177 18.0894 8.25321 18.0852 8.25321 18.0852V18.0844C8.25184 18.0887 8.25046 18.093 8.24908 18.0974Z" fill="#B79947"/>
<path d="M8.24908 18.0974C8.21139 18.2092 7.92801 19.0576 7.9218 19.3052C7.93383 19.2585 7.94778 19.2035 7.96326 19.1425C8.03732 18.8505 8.14655 18.4198 8.24908 18.0974Z" fill="#B79947"/>
<path d="M9.01255 16.5266C9.01255 16.5266 9.53925 17.3956 9.93431 18.1372C9.82741 17.764 9.58149 17.0795 9.01255 16.5266Z" fill="#B79947"/>
<path d="M10.4277 17.8058C10.7168 18.317 10.9776 18.8437 11.2088 19.3836C11.165 19.0105 11.0464 18.372 10.4277 17.8058Z" fill="#B79947"/>
<path d="M8.69235 13.6627C8.66602 13.6584 8.62219 13.6847 8.63318 13.6955L8.63261 13.696C8.66544 13.7376 8.85422 13.8474 8.88489 13.8496C8.90673 13.8539 8.96156 13.8275 8.95505 13.8166C8.953 13.8132 8.94681 13.8054 8.93893 13.7955C8.92181 13.774 8.89676 13.7426 8.88923 13.7245C8.90037 13.7356 8.96619 13.7201 8.97053 13.7091C8.97374 13.701 8.96253 13.6688 8.95473 13.6465C8.95199 13.6386 8.94967 13.632 8.94854 13.628C8.93846 13.6252 8.9279 13.6248 8.91763 13.6267C8.90736 13.6286 8.89765 13.6328 8.88923 13.639C8.8828 13.6443 8.87754 13.6509 8.87378 13.6584C8.87002 13.6659 8.86785 13.674 8.86739 13.6824C8.86412 13.677 8.86045 13.6719 8.85639 13.667C8.84988 13.6627 8.81198 13.656 8.80157 13.667C8.79957 13.6691 8.7978 13.6714 8.79603 13.6737C8.78856 13.6832 8.78121 13.6925 8.75817 13.689C8.74353 13.6868 8.73351 13.681 8.72366 13.6754C8.71433 13.6701 8.70515 13.6648 8.69235 13.6627Z" fill="#62593C"/>
<path fill-rule="evenodd" clip-rule="evenodd" d="M9.0391 13.0592C9.02381 13.081 8.92562 13.2975 8.92062 13.3313C8.91653 13.3203 8.9087 13.3109 8.89863 13.305C8.8833 13.3006 8.83281 13.3049 8.83281 13.3313C8.83281 13.3576 8.87621 13.5049 8.92496 13.5815C8.93662 13.5978 8.94749 13.6135 8.95772 13.6283C8.99571 13.6832 9.02503 13.7256 9.05443 13.7395C9.06615 13.7448 9.07945 13.7455 9.09167 13.7415C9.10388 13.7374 9.11409 13.7288 9.12025 13.7175C9.12459 13.7065 9.13558 13.6254 9.13124 13.4344C9.1269 13.2435 9.12025 13.0592 9.10926 13.0482C9.09826 13.0372 9.05443 13.0373 9.0391 13.0592Z" fill="#62593C"/>
<path d="M9.12021 14.1279C9.12236 14.1174 9.11995 14.1109 9.11806 14.1058C9.11601 14.1002 9.11456 14.0963 9.12021 14.0906C9.13106 14.0796 9.19051 14.0578 9.20151 14.0686C9.2042 14.0714 9.20355 14.0792 9.20267 14.0898C9.20213 14.0963 9.20151 14.1039 9.20151 14.112C9.20151 14.1334 9.20151 14.1554 9.19051 14.1712C9.17518 14.1932 9.13135 14.2042 9.10936 14.1976C9.08737 14.1911 9.08303 14.1603 9.08303 14.1542C9.09388 14.1499 9.12021 14.1389 9.12021 14.1279Z" fill="#62593C"/>
<path d="M9.49487 13.891C9.49487 13.88 9.53219 13.858 9.55418 13.858C9.58016 13.858 9.58559 13.8745 9.58894 13.8846C9.58983 13.8873 9.59057 13.8896 9.5915 13.891C9.59489 13.8923 9.59722 13.8924 9.59915 13.8925C9.60342 13.8926 9.60578 13.8927 9.61335 13.9063C9.62434 13.9261 9.63982 13.9611 9.62868 13.9831C9.61754 14.0051 9.57386 14.0203 9.56301 14.016C9.54767 14.005 9.49936 13.9063 9.49487 13.891Z" fill="#62593C"/>
<path d="M8.64605 14.1049C8.74354 14.0691 8.78872 14.0203 8.78872 14.0203C8.78211 13.9967 8.76888 13.9755 8.75061 13.9592C8.73233 13.9428 8.70977 13.9321 8.68558 13.9282C8.63075 13.9063 8.57593 13.9283 8.52761 13.9985C8.48041 14.067 8.5108 14.1104 8.52652 14.1329L8.52761 14.1345C8.54166 14.1324 8.55511 14.13 8.56796 14.1272C8.56875 14.1344 8.57424 14.1464 8.5957 14.1625C8.60495 14.1699 8.61596 14.177 8.62734 14.1843C8.65636 14.203 8.68782 14.2232 8.69884 14.2547C8.70588 14.2748 8.70969 14.2889 8.7124 14.299C8.71558 14.3107 8.71723 14.3169 8.72082 14.3205C8.72516 14.3248 8.80198 14.3205 8.8393 14.2985C8.84623 14.2944 8.8543 14.2898 8.86282 14.285C8.90016 14.2639 8.94609 14.2379 8.94244 14.2262L8.94288 14.2266C8.94288 14.2156 8.8244 14.1344 8.69927 14.108C8.68675 14.1055 8.67991 14.1094 8.67321 14.1132C8.66814 14.1161 8.66316 14.119 8.65587 14.119C8.65167 14.1173 8.64844 14.1115 8.64605 14.1049Z" fill="#62593C"/>
<path d="M7.10384 14.0643C7.06 14.6393 7.18499 14.7577 7.18499 14.7577C7.32994 14.5251 7.2618 14.0796 7.2618 14.0796C7.20988 14.0686 7.1569 14.0635 7.10384 14.0643Z" fill="#62593C"/>
<path d="M8.20445 14.9091L8.16105 14.9311H8.16062C8.16062 14.9311 8.1978 14.9596 8.28994 14.9574C8.36025 14.964 8.37775 14.9091 8.38209 14.8762C8.38875 14.8434 8.35576 14.7511 8.2856 14.7401C8.2153 14.7355 8.20445 14.9091 8.20445 14.9091Z" fill="#62593C"/>
<path d="M7.96595 14.1937C7.96595 14.1937 8.00935 14.1784 8.06244 14.2311C8.07124 14.2311 8.08605 14.2301 8.10455 14.229C8.17726 14.2246 8.30708 14.2166 8.35436 14.2464C8.41367 14.2837 8.43117 14.3165 8.43117 14.3165C8.43117 14.3165 8.20955 14.3649 8.08877 14.3165C7.96595 14.2749 7.96595 14.1937 7.96595 14.1937Z" fill="#62593C"/>
<path d="M7.83415 14.6721C7.83415 14.6721 7.85599 14.5208 8.00311 14.5141C8.15442 14.5032 8.18306 14.6501 8.18306 14.6501L8.09526 14.7379C8.09526 14.7358 8.02944 14.6436 7.83487 14.6721H7.83415Z" fill="#62593C"/>
<path d="M8.7256 14.4548C8.7256 14.4548 8.64879 14.4065 8.57415 14.4395C8.50399 14.4725 8.50833 14.6019 8.50833 14.6019C8.52411 14.6081 8.54117 14.6104 8.55801 14.6084C8.57485 14.6065 8.59097 14.6005 8.60496 14.5909C8.65328 14.5581 8.71461 14.5031 8.7256 14.4548Z" fill="#62593C"/>
<path d="M8.84244 14.5841C8.85383 14.5928 8.86768 14.6034 8.87016 14.6283L8.8706 14.6277C8.87374 14.6402 8.8747 14.6573 8.8757 14.6752C8.8782 14.72 8.88102 14.7703 8.91891 14.7703C8.972 14.7703 9.01974 14.6788 9.0154 14.6453C9.01106 14.6119 8.97157 14.5839 8.94524 14.5685C8.93614 14.5627 8.92767 14.5559 8.91959 14.5494C8.90379 14.5367 8.88949 14.5251 8.87494 14.5251C8.86389 14.525 8.85313 14.5287 8.8444 14.5355C8.83566 14.5422 8.82945 14.5517 8.82676 14.5624C8.82676 14.572 8.83392 14.5775 8.84244 14.5841Z" fill="#62593C"/>
<path d="M9.21242 14.569C9.20591 14.5953 9.29372 14.569 9.29372 14.569C9.29675 14.572 9.29808 14.5792 9.29977 14.5882C9.30413 14.6115 9.31082 14.6473 9.35506 14.6568C9.40786 14.6633 9.47368 14.6259 9.47368 14.6084C9.47008 14.5847 9.46102 14.5622 9.4472 14.5426C9.44247 14.5349 9.44228 14.5306 9.44212 14.5269C9.4419 14.5221 9.44174 14.5183 9.43187 14.5096C9.41437 14.4943 9.35506 14.5206 9.35506 14.5206C9.34588 14.513 9.33416 14.5091 9.32222 14.5096C9.30135 14.5116 9.28187 14.521 9.26739 14.5361C9.2389 14.5361 9.21893 14.5426 9.21242 14.569Z" fill="#62593C"/>
<path d="M9.80943 14.5031C9.83127 14.4855 9.80494 14.4702 9.80494 14.4702C9.80494 14.4702 9.85326 14.4702 9.85977 14.4548C9.87525 14.4328 9.85326 14.4175 9.82693 14.422C9.79829 14.4263 9.69529 14.4373 9.66896 14.4373C9.65841 14.4373 9.64798 14.4396 9.63846 14.4442C9.62894 14.4487 9.62058 14.4554 9.61399 14.4636C9.58116 14.4746 9.52633 14.5186 9.52633 14.5405C9.52633 14.5564 9.55775 14.5549 9.60028 14.553C9.6161 14.5522 9.63346 14.5515 9.65132 14.5515C9.71728 14.5465 9.79409 14.5185 9.80943 14.5031Z" fill="#62593C"/>
<path d="M9.88624 13.8627C9.92342 13.8627 9.9564 13.7926 9.9564 13.7926V13.793C9.97824 13.8111 10.0002 13.7997 10.0177 13.7822C10.0336 13.771 10.077 13.7228 10.077 13.7009C10.077 13.6789 10.0442 13.668 10.0069 13.668C9.97478 13.6689 9.94389 13.6805 9.91908 13.7009C9.88624 13.6959 9.84892 13.7223 9.84892 13.7443C9.84443 13.7706 9.87091 13.7706 9.88176 13.7706C9.88408 13.7763 9.87518 13.7896 9.86607 13.8033C9.85759 13.816 9.84892 13.829 9.84892 13.8364C9.84892 13.8474 9.84892 13.8584 9.88624 13.8627Z" fill="#62593C"/>
<path d="M9.41263 15.1158C9.41263 15.0939 9.45603 15.0894 9.45603 15.0894L9.45646 15.0903C9.45646 15.0903 9.46297 15.0789 9.4433 15.0614C9.44255 15.0606 9.44184 15.0599 9.44117 15.0593C9.43191 15.0503 9.43048 15.0489 9.46529 15.0284C9.50261 15.0064 9.5136 15.0284 9.5136 15.0284C9.52831 15.0201 9.54509 15.0163 9.56192 15.0174C9.59475 15.0174 9.61674 15.035 9.62774 15.0724C9.62774 15.0938 9.60575 15.1049 9.57942 15.1158C9.55579 15.1295 9.52969 15.1384 9.50261 15.1421C9.47673 15.1421 9.47115 15.1286 9.46786 15.1207C9.46695 15.1185 9.46622 15.1167 9.46529 15.1158C9.45671 15.1182 9.44787 15.1197 9.43896 15.1202C9.42348 15.1268 9.41263 15.1268 9.41263 15.1158Z" fill="#62593C"/>
<path d="M9.27824 15.2914C9.26291 15.2847 9.20808 15.3067 9.20808 15.3177V15.3181C9.20808 15.3227 9.21267 15.3301 9.21752 15.3378C9.22427 15.3486 9.23154 15.3601 9.22776 15.3665C9.22776 15.3687 9.22107 15.3715 9.21443 15.3742C9.20791 15.377 9.20143 15.3796 9.20143 15.3818C9.20143 15.3879 9.23861 15.4252 9.26059 15.4252C9.28258 15.4252 9.33741 15.3989 9.33741 15.3879C9.33741 15.379 9.29358 15.2957 9.27824 15.2914Z" fill="#62593C"/>
<path d="M9.04614 14.9865C9.0428 14.9912 9.04005 14.9951 9.03449 14.9973C9.01684 15.0083 8.98589 15.0323 8.97489 15.0543C8.9639 15.0763 8.97489 15.1202 8.98589 15.1246C8.99688 15.1289 9.07153 15.1289 9.12635 15.1136C9.18118 15.0916 9.19651 15.0586 9.19651 15.0323C9.19651 15.0199 9.19161 15.0084 9.18644 14.9964C9.18066 14.9829 9.17452 14.9686 9.17452 14.9511C9.17944 14.9401 9.15745 14.9358 9.13112 14.9401C9.12333 14.9415 9.11594 14.9446 9.10948 14.9492C9.10303 14.9538 9.09767 14.9597 9.0938 14.9666C9.08834 14.9648 9.08253 14.9642 9.07681 14.965C9.07109 14.9657 9.06562 14.9678 9.06082 14.971C9.05324 14.9764 9.04941 14.9818 9.04614 14.9865Z" fill="#62593C"/>
<path d="M8.75178 14.9311C8.75178 14.9311 8.68162 14.9859 8.66397 15.0124C8.65939 15.0179 8.65111 15.0281 8.64056 15.0411C8.60044 15.0907 8.52765 15.1806 8.50167 15.2032C8.51257 15.1839 8.52501 15.1656 8.53885 15.1484C8.49545 15.1761 8.46291 15.2179 8.4467 15.2668C8.42198 15.3432 8.57336 15.3865 8.6863 15.4188C8.69365 15.4209 8.70084 15.4229 8.70781 15.4249C8.8218 15.4579 8.86592 15.4683 8.86592 15.4683C8.82395 15.4053 8.78792 15.3384 8.75829 15.2687C8.74744 15.2429 8.73789 15.2229 8.73013 15.2066C8.70686 15.1577 8.6996 15.1425 8.72097 15.1063C8.72897 15.0887 8.73842 15.0732 8.74721 15.0587C8.76259 15.0335 8.77594 15.0115 8.77594 14.9878C8.76278 14.9531 8.75178 14.9311 8.75178 14.9311Z" fill="#62593C"/>
<path fill-rule="evenodd" clip-rule="evenodd" d="M26.5676 13.5002C26.5676 20.7172 20.717 26.5678 13.5 26.5678C6.28298 26.5678 0.432434 20.7172 0.432434 13.5002C0.432434 6.28317 6.28298 0.432617 13.5 0.432617C20.717 0.432617 26.5676 6.28317 26.5676 13.5002ZM26.2924 13.5002C26.2924 20.5652 20.5652 26.2925 13.5002 26.2925C6.43525 26.2925 0.707971 20.5652 0.707971 13.5002C0.707971 6.43527 6.43525 0.70799 13.5002 0.70799C20.5652 0.70799 26.2924 6.43527 26.2924 13.5002Z" fill="#7A6A2A"/>
<path opacity="0.8" fill-rule="evenodd" clip-rule="evenodd" d="M20.9251 10.1796C19.5598 6.65392 16.1848 6.00073 16.1848 6.00073H6.55563L6.59278 9.59195H8.51042V17.6112H6.55548V21.1959H15.9182C18.1747 21.1959 19.9835 18.9283 19.9835 18.9283C22.88 14.8173 20.925 10.1796 20.925 10.1796H20.9251ZM15.9685 16.5123C15.9685 16.5123 15.2341 17.5719 14.435 17.5719H12.8366L12.7987 9.60073H14.85C14.85 9.60073 15.8004 9.79945 16.4644 11.6802C16.4644 11.6802 17.3447 14.373 15.9685 16.5123Z" fill="white"/>
</svg>
