<svg width="30" height="30" viewBox="0 0 30 30" fill="none" xmlns="http://www.w3.org/2000/svg">
<path d="M28.812 18.4321C26.9142 26.0465 19.2021 30.6961 11.5737 28.7972C3.95927 26.8936 -0.682875 19.1814 1.21492 11.567C3.11271 3.95264 10.8202 -0.696981 18.4299 1.20196C26.063 3.07764 30.7051 10.813 28.812 18.4321Z" fill="#ECEFF0"/>
<path d="M15.1783 18.4488C15.123 18.4676 15.0915 18.4195 15.0539 18.3974C13.2121 17.3103 11.3723 16.2225 9.53444 15.134C9.51665 15.125 9.49817 15.1174 9.47919 15.1113V15.087L9.51179 15.0682C9.55808 15.0561 9.60365 15.0413 9.64827 15.024L13.9886 13.0492C14.3754 12.8729 14.7622 12.6994 15.149 12.5248H15.1766C15.1766 12.5801 15.1766 12.6293 15.1766 12.6818C15.1781 14.6043 15.1786 16.5266 15.1783 18.4488Z" fill="#343535"/>
<path d="M15.181 12.5262H15.1534C15.1534 12.4709 15.1589 12.4157 15.1589 12.3576C15.1589 10.1982 15.1589 8.03866 15.1589 5.8789C15.1526 5.82343 15.1563 5.76727 15.17 5.71313H15.1816C15.4087 6.04853 15.6065 6.40217 15.8154 6.74862C17.4701 9.49336 19.1239 12.2377 20.7768 14.9817C20.7928 15.0088 20.8055 15.037 20.8199 15.0668C20.7731 15.0568 20.7271 15.0433 20.6823 15.0265C20.3789 14.8895 20.0745 14.7502 19.7739 14.6104C19.3031 14.3949 18.8321 14.1798 18.361 13.965L16.0911 12.9367C15.7888 12.7975 15.4849 12.6621 15.181 12.5262Z" fill="#2F3030"/>
<path d="M15.1718 5.71028C15.1581 5.76441 15.1544 5.82057 15.1607 5.87604C15.1607 8.03544 15.1607 10.195 15.1607 12.3548C15.1607 12.41 15.1574 12.4653 15.1552 12.5233C14.7684 12.6979 14.3816 12.8714 13.9948 13.0477L9.65449 15.0225C9.60987 15.0398 9.5643 15.0546 9.51801 15.0667C9.64344 14.8059 9.80645 14.5694 9.95509 14.3197C11.6772 11.4571 13.4007 8.59499 15.1254 5.73348C15.1368 5.71763 15.1491 5.7025 15.1624 5.68817L15.1718 5.71028Z" fill="#828384"/>
<path d="M15.181 12.5262C15.4849 12.6621 15.7889 12.7975 16.0923 12.9346L18.3622 13.9629C18.8337 14.1773 19.3047 14.3924 19.7751 14.6083C20.0779 14.7469 20.3829 14.8873 20.6835 15.0243C20.7283 15.0412 20.7743 15.0547 20.8211 15.0647C20.8763 15.1337 20.7945 15.1365 20.7697 15.1514C20.2984 15.4332 19.8248 15.7112 19.3524 15.9907C17.9964 16.7931 16.6408 17.5952 15.2855 18.3971C15.2513 18.417 15.2142 18.4317 15.1783 18.4488C15.1783 16.527 15.1783 14.6053 15.1783 12.6831C15.1789 12.6306 15.1805 12.5787 15.181 12.5262Z" fill="#131313"/>
<path d="M15.1589 19.5405L18.709 17.4479C19.3868 17.0479 20.0643 16.6475 20.7414 16.2467L20.8027 16.213C20.8088 16.2682 20.7706 16.2975 20.7474 16.3296C19.2003 18.5107 17.6531 20.6911 16.1059 22.8707C15.8131 23.284 15.5208 23.6996 15.2252 24.1096C15.2097 24.1311 15.1859 24.2322 15.1384 24.125C15.176 24.093 15.1594 24.0499 15.1594 24.0145C15.1598 22.5226 15.1596 21.0313 15.1589 19.5405Z" fill="#2F3030"/>
<path d="M15.1586 19.5407C15.1586 21.0315 15.1586 22.522 15.1586 24.012C15.1586 24.0502 15.1751 24.0933 15.1376 24.1226C15.0585 24.075 15.0243 23.9899 14.9718 23.9198C13.1778 21.3927 11.3848 18.8653 9.59264 16.3376C9.56998 16.3055 9.54898 16.2713 9.52577 16.2359C9.57219 16.2088 9.59706 16.2458 9.62413 16.2619C11.4384 17.3331 13.2522 18.4052 15.0657 19.4783C15.0994 19.4993 15.1282 19.5209 15.1586 19.5407Z" fill="#828384"/>
<path d="M15.1722 5.71025L15.1589 5.6898C15.1832 5.67433 15.1799 5.69698 15.1838 5.70859L15.1722 5.71025Z" fill="#393939"/>
</svg>
