<svg width="27" height="27" viewBox="0 0 27 27" fill="none" xmlns="http://www.w3.org/2000/svg">
<path d="M26.5987 16.7582C24.7973 23.9859 17.4768 28.3995 10.2358 26.5969C3.00806 24.79 -1.39835 17.4695 0.40307 10.2418C2.20449 3.01405 9.52055 -1.39946 16.7439 0.403058C23.9893 2.18348 28.3957 9.52607 26.5987 16.7582Z" fill="#345D9D"/>
<path d="M12.163 18.9694L13.5067 14.4384L15.6003 13.8446L16.0378 12.3447L13.9754 12.9697L16.1628 5.53243V5.41369C16.1612 5.36608 16.1502 5.31925 16.1305 5.27589C16.1108 5.23252 16.0827 5.19347 16.0479 5.16097C16.0131 5.12846 15.9722 5.10314 15.9275 5.08645C15.8829 5.06976 15.8355 5.06203 15.7878 5.0637H13.0067C12.9014 5.06046 12.7981 5.09253 12.7131 5.15483C12.6282 5.21712 12.5665 5.30604 12.538 5.40744L9.9443 14.2196L7.88188 14.8446L7.41315 16.282L9.47557 15.6571L7.63189 21.9381H18.6315C18.737 21.9424 18.8409 21.9108 18.9261 21.8483C19.0113 21.7859 19.0727 21.6963 19.1002 21.5943L19.7252 19.4382V19.3194C19.7236 19.2718 19.7126 19.225 19.6929 19.1816C19.6732 19.1383 19.6451 19.0992 19.6102 19.0667C19.5754 19.0342 19.5345 19.0089 19.4899 18.9922C19.4453 18.9755 19.3978 18.9678 19.3502 18.9694H12.163Z" fill="white"/>
</svg>
