<svg width="31" height="31" viewBox="0 0 31 31" fill="none" xmlns="http://www.w3.org/2000/svg">
<path d="M29.7436 19.0387C27.7865 26.8911 19.8334 31.686 11.9666 29.7277C4.11427 27.7646 -0.672941 19.8115 1.28416 11.9591C3.24125 4.1068 11.1896 -0.688121 19.0371 1.27016C26.9087 3.20445 31.6959 11.1816 29.7436 19.0387Z" fill="#000008"/>
<path d="M24.5723 20.0274L21.5458 23.1894C21.48 23.2581 21.4004 23.3128 21.312 23.3503C21.2235 23.3877 21.1281 23.407 21.0317 23.4069H6.68473C6.61627 23.4069 6.5493 23.3875 6.49206 23.3509C6.43481 23.3143 6.38978 23.2623 6.36249 23.2011C6.33521 23.1399 6.32685 23.0723 6.33846 23.0066C6.35007 22.9409 6.38114 22.8799 6.42784 22.8311L9.45659 19.6691C9.52221 19.6006 9.60155 19.546 9.68972 19.5086C9.7779 19.4711 9.87301 19.4517 9.9692 19.4516H24.3154C24.3838 19.4516 24.4508 19.4711 24.5081 19.5076C24.5652 19.5442 24.6103 19.5963 24.6377 19.6574C24.6649 19.7186 24.6732 19.7862 24.6616 19.8519C24.65 19.9176 24.619 19.9786 24.5723 20.0274ZM21.5458 13.66C21.48 13.5913 21.4004 13.5366 21.312 13.4991C21.2235 13.4617 21.1281 13.4424 21.0317 13.4425H6.68473C6.61627 13.4425 6.5493 13.4619 6.49206 13.4985C6.43481 13.5351 6.38978 13.5872 6.36249 13.6483C6.33521 13.7095 6.32685 13.7771 6.33846 13.8428C6.35007 13.9085 6.38114 13.9695 6.42784 14.0183L9.45659 17.1803C9.52221 17.2488 9.60155 17.3034 9.68972 17.3409C9.7779 17.3783 9.87301 17.3977 9.9692 17.3978H24.3154C24.3838 17.3978 24.4508 17.3783 24.5081 17.3418C24.5652 17.3052 24.6103 17.2531 24.6377 17.192C24.6649 17.1308 24.6732 17.0632 24.6616 16.9975C24.65 16.9318 24.619 16.8708 24.5723 16.822L21.5458 13.66ZM6.68473 11.3887H21.0317C21.1281 11.3888 21.2235 11.3695 21.312 11.3321C21.4004 11.2946 21.48 11.2399 21.5458 11.1712L24.5723 8.00916C24.619 7.9604 24.65 7.89941 24.6616 7.83369C24.6732 7.76796 24.6649 7.70037 24.6377 7.63921C24.6103 7.57804 24.5652 7.52598 24.5081 7.48941C24.4508 7.45284 24.3838 7.43335 24.3154 7.43335H9.9692C9.87301 7.43351 9.7779 7.4529 9.68972 7.49032C9.60155 7.52774 9.52221 7.58239 9.45659 7.6509L6.42862 10.8129C6.38196 10.8616 6.35091 10.9225 6.33928 10.9882C6.32764 11.0538 6.33593 11.1214 6.36312 11.1825C6.39031 11.2437 6.43522 11.2957 6.49235 11.3323C6.54948 11.369 6.61634 11.3886 6.68473 11.3887Z" fill="url(#paint0_linear_359_1177)"/>
<defs>
<linearGradient id="paint0_linear_359_1177" x1="7.88092" y1="23.7876" x2="22.4873" y2="6.88585" gradientUnits="userSpaceOnUse">
<stop offset="0.08" stop-color="#9945FF"/>
<stop offset="0.3" stop-color="#8752F3"/>
<stop offset="0.5" stop-color="#5497D5"/>
<stop offset="0.6" stop-color="#43B4CA"/>
<stop offset="0.72" stop-color="#28E0B9"/>
<stop offset="0.97" stop-color="#19FB9B"/>
</linearGradient>
</defs>
</svg>
