<svg width="154" height="154" viewBox="0 0 154 154" fill="none" xmlns="http://www.w3.org/2000/svg">
<circle cx="76.9999" cy="77.0006" r="57.7741" stroke="#FAFF0A" stroke-width="1.05479" stroke-linecap="round" stroke-linejoin="round"/>
<path d="M66.1005 82.977C65.5223 82.977 64.9678 83.2141 64.559 83.6361C64.1502 84.0581 63.9205 84.6304 63.9205 85.2272V89.2371C61.1108 85.9572 59.5602 81.7298 59.5607 77.3514C59.5598 76.6896 59.5976 76.0283 59.6741 75.3712C59.7157 75.0744 59.6994 74.772 59.6261 74.4817C59.5529 74.1915 59.4241 73.9193 59.2475 73.6812C59.0709 73.443 58.8499 73.2438 58.5976 73.095C58.3453 72.9463 58.0667 72.8511 57.7783 72.8151C57.4898 72.7791 57.1973 72.803 56.918 72.8854C56.6386 72.9678 56.378 73.107 56.1515 73.2948C55.9249 73.4826 55.7371 73.7153 55.5989 73.9791C55.4608 74.243 55.3751 74.5327 55.347 74.8312C55.2485 75.6674 55.1997 76.509 55.2009 77.3514C55.2039 82.7209 57.0735 87.9109 60.4698 91.9779H57.3808C56.8027 91.9779 56.2482 92.215 55.8394 92.637C55.4306 93.059 55.2009 93.6313 55.2009 94.2281C55.2009 94.8249 55.4306 95.3973 55.8394 95.8193C56.2482 96.2413 56.8027 96.4783 57.3808 96.4783H66.1005C66.4414 96.4738 66.7763 96.3852 67.0774 96.2201C67.3784 96.0549 67.6369 95.8179 67.8313 95.5287C67.8553 95.495 67.888 95.468 67.912 95.432C67.9272 95.4095 67.9272 95.3825 67.9403 95.36C68.0441 95.179 68.122 94.9835 68.1714 94.7794C68.2041 94.6646 68.2274 94.5472 68.2411 94.4284C68.2477 94.3609 68.2804 94.3001 68.2804 94.2281V85.2272C68.2804 84.6304 68.0507 84.0581 67.6419 83.6361C67.2331 83.2141 66.6786 82.977 66.1005 82.977ZM69.3703 63.8501H65.4835C68.6617 60.9495 72.7578 59.3489 77 59.3496C77.6412 59.3482 78.2819 59.388 78.9183 59.4689C79.4927 59.5405 80.0711 59.3736 80.5263 59.005C80.9815 58.6364 81.2763 58.0962 81.3456 57.5033C81.415 56.9104 81.2534 56.3133 80.8963 55.8434C80.5392 55.3735 80.0159 55.0693 79.4415 54.9977C78.6313 54.8971 77.816 54.8475 77 54.8492C71.7983 54.8522 66.7705 56.7821 62.8306 60.288V57.0994C62.8306 56.5026 62.6009 55.9302 62.1921 55.5082C61.7833 55.0862 61.2288 54.8492 60.6507 54.8492C60.0725 54.8492 59.5181 55.0862 59.1093 55.5082C58.7004 55.9302 58.4708 56.5026 58.4708 57.0994V66.1003C58.4842 66.2492 58.5127 66.3963 58.5558 66.5391C58.6084 66.8167 58.7127 67.0812 58.8632 67.3177L58.8893 67.3559C59.0331 67.5718 59.2133 67.7593 59.4212 67.9095C59.4452 67.9275 59.4583 67.9545 59.4823 67.9725C59.5128 67.995 59.5477 68.0017 59.5804 68.0197C59.7044 68.0966 59.836 68.16 59.9727 68.2088C60.1563 68.2748 60.3477 68.315 60.5417 68.328C60.5809 68.328 60.6114 68.3505 60.6507 68.3505H69.3703C69.9485 68.3505 70.5029 68.1134 70.9117 67.6914C71.3206 67.2694 71.5502 66.6971 71.5502 66.1003C71.5502 65.5035 71.3206 64.9311 70.9117 64.5091C70.5029 64.0871 69.9485 63.8501 69.3703 63.8501ZM95.442 88.1615C95.3893 87.8846 95.2849 87.6209 95.1346 87.3852L95.1107 87.3469C94.9662 87.1309 94.7853 86.9433 94.5766 86.7934C94.5526 86.7754 94.5417 86.7484 94.5155 86.7304C94.4937 86.7146 94.4654 86.7146 94.4414 86.6989C94.1648 86.5397 93.8616 86.4359 93.5477 86.3928C93.4779 86.3861 93.4191 86.3523 93.3493 86.3523H84.6297C84.0515 86.3523 83.4971 86.5894 83.0882 87.0114C82.6794 87.4334 82.4498 88.0058 82.4498 88.6026C82.4498 89.1994 82.6794 89.7717 83.0882 90.1937C83.4971 90.6157 84.0515 90.8528 84.6297 90.8528H88.5143C85.3367 93.753 81.2415 95.3536 77 95.3532C76.3587 95.3539 75.718 95.3134 75.0817 95.2317C74.5073 95.1601 73.9289 95.327 73.4736 95.6956C73.0184 96.0642 72.7237 96.6044 72.6543 97.1973C72.585 97.7902 72.7466 98.3873 73.1037 98.8572C73.4608 99.3271 73.9841 99.6313 74.5585 99.7029C75.3687 99.8035 76.184 99.8538 77 99.8537C82.2016 99.8506 87.2295 97.9207 91.1694 94.4149V97.6035C91.1694 98.2003 91.3991 98.7726 91.8079 99.1946C92.2167 99.6166 92.7712 99.8537 93.3493 99.8537C93.9274 99.8537 94.4819 99.6166 94.8907 99.1946C95.2995 98.7726 95.5292 98.2003 95.5292 97.6035V88.6026C95.5151 88.4536 95.4858 88.3042 95.442 88.1615ZM96.6192 62.725C97.1973 62.725 97.7518 62.4879 98.1606 62.0659C98.5694 61.6439 98.7991 61.0715 98.7991 60.4747C98.7991 59.8779 98.5694 59.3056 98.1606 58.8836C97.7518 58.4616 97.1973 58.2245 96.6192 58.2245H87.8995C87.7575 58.2388 87.6172 58.2682 87.481 58.3123L87.4657 58.3145C87.2014 58.3697 86.9498 58.4766 86.7246 58.6295L86.681 58.6588C86.4726 58.8075 86.2918 58.9934 86.1469 59.2078C86.1294 59.2304 86.1033 59.2439 86.0858 59.2686C86.0706 59.2911 86.0706 59.3204 86.0553 59.3451C85.9 59.6325 85.7993 59.948 85.7589 60.2745C85.7523 60.342 85.7196 60.4027 85.7196 60.4747V69.4756C85.7196 70.0724 85.9493 70.6448 86.3581 71.0668C86.7669 71.4888 87.3214 71.7259 87.8995 71.7259C88.4777 71.7259 89.0321 71.4888 89.441 71.0668C89.8498 70.6448 90.0794 70.0724 90.0794 69.4756V65.4635C92.8891 68.7443 94.4398 72.9724 94.4393 77.3514C94.4395 78.0133 94.4009 78.6746 94.3237 79.3316C94.2548 79.9238 94.4162 80.5201 94.7725 80.9896C95.1289 81.4591 95.6511 81.7635 96.2246 81.8361C96.3129 81.8468 96.4017 81.8521 96.4905 81.8519C97.0227 81.8509 97.5362 81.649 97.9341 81.2842C98.332 80.9195 98.587 80.4171 98.6508 79.8717C98.75 79.0355 98.7995 78.1938 98.7991 77.3514C98.7961 71.982 96.9265 66.7919 93.5302 62.725H96.6192Z" stroke="#FAFF0A" stroke-width="1.05479"/>
</svg>
