<svg width="35" height="35" viewBox="0 0 35 35" fill="none" xmlns="http://www.w3.org/2000/svg">
<path d="M32.6068 21.2532C30.5311 29.5815 22.096 34.667 13.7525 32.59C5.42421 30.508 0.346863 22.0728 2.42257 13.7446C4.49828 5.41634 12.9283 0.330817 21.2515 2.40779C29.6001 4.45931 34.6775 12.9199 32.6068 21.2532Z" fill="#F6F8FC"/>
<path fill-rule="evenodd" clip-rule="evenodd" d="M11.793 10.9668H23.4408C23.7188 10.9668 23.9755 11.1108 24.1141 11.3445L27.5077 17.0648C27.6836 17.3615 27.6313 17.7359 27.3803 17.9764L18.0396 26.9281C17.7371 27.2181 17.2503 27.2181 16.9477 26.9281L7.61974 17.9885C7.3629 17.7424 7.3148 17.357 7.50367 17.0585L11.131 11.3261C11.2723 11.1029 11.523 10.9668 11.793 10.9668ZM21.9369 13.5207V15.1258H18.6189V16.2386C20.9492 16.3575 22.6976 16.8459 22.7106 17.4314L22.7105 18.6518C22.6975 19.2373 20.9492 19.7257 18.6189 19.8446V22.5756H16.4157V19.8446C14.0854 19.7257 12.337 19.2373 12.3241 18.6518L12.3242 17.4314C12.3371 16.8459 14.0854 16.3575 16.4157 16.2386V15.1258H13.0977V13.5207H21.9369ZM17.5173 19.0061C20.0042 19.0061 22.0828 18.5931 22.5915 18.0416C22.1601 17.5739 20.5998 17.2058 18.6189 17.1047V18.2698C18.2639 18.288 17.8953 18.2975 17.5173 18.2975C17.1393 18.2975 16.7708 18.288 16.4157 18.2698V17.1047C14.4348 17.2058 12.8745 17.5739 12.4431 18.0416C12.9518 18.5931 15.0304 19.0061 17.5173 19.0061Z" fill="#009393"/>
</svg>
