<svg width="28" height="28" viewBox="0 0 28 28" fill="none" xmlns="http://www.w3.org/2000/svg">
<path d="M26.9487 17.2171C25.1696 24.3556 17.9395 28.7146 10.7879 26.9344C3.64933 25.1497 -0.70268 17.9196 1.0765 10.7811C2.85568 3.64261 10.0814 -0.716408 17.2156 1.06385C24.3715 2.8223 28.7236 10.0742 26.9487 17.2171Z" fill="#2775CA"/>
<path d="M6.24939 11.0556C4.63819 15.3335 6.86046 20.1668 11.1938 21.7223C11.3605 21.8335 11.5271 22.0556 11.5271 22.2223V23.0002C11.5271 23.1112 11.5271 23.1668 11.4715 23.2223C11.4161 23.4446 11.1938 23.5556 10.9715 23.4446C7.86046 22.4446 5.47152 20.0556 4.47152 16.9446C2.80486 11.6668 5.69379 6.05563 10.9715 4.38896C11.0271 4.3335 11.1382 4.3335 11.1938 4.3335C11.4161 4.38896 11.5271 4.55563 11.5271 4.7779V5.55563C11.5271 5.8335 11.4161 6.00016 11.1938 6.11123C8.91606 6.94456 7.08273 8.7223 6.24939 11.0556Z" fill="white"/>
<path d="M16.5827 4.61123C16.6382 4.38896 16.8605 4.2779 17.0827 4.38896C20.1382 5.38896 22.5827 7.7779 23.5827 10.9446C25.2494 16.2223 22.3605 21.8335 17.0827 23.5002C17.0271 23.5556 16.9161 23.5556 16.8605 23.5556C16.6382 23.5002 16.5271 23.3335 16.5271 23.1112V22.3335C16.5271 22.0556 16.6382 21.889 16.8605 21.7779C19.1382 20.9446 20.9715 19.1668 21.8049 16.8335C23.4161 12.5556 21.1938 7.7223 16.8605 6.16683C16.6938 6.05563 16.5271 5.8335 16.5271 5.61123V4.8335C16.5271 4.7223 16.5271 4.66683 16.5827 4.61123Z" fill="white"/>
<path d="M14.1937 13.0002C16.5271 13.2779 17.6937 13.9446 17.6937 15.889C17.6937 17.389 16.5827 18.5557 14.916 18.8335V20.1669C14.8604 20.4446 14.6937 20.6113 14.4715 20.6113H13.6381C13.3604 20.5557 13.1937 20.389 13.1937 20.1669V18.8335C11.3604 18.5557 10.4715 17.5557 10.2493 16.1669V16.1113C10.2493 15.889 10.416 15.7223 10.6381 15.7223H11.5827C11.7493 15.7223 11.916 15.8335 11.9715 16.0557C12.1381 16.889 12.6381 17.5002 14.0827 17.5002C15.1381 17.5002 15.916 16.8891 15.916 16.0002C15.916 15.1113 15.416 14.7779 13.8604 14.5002C11.5271 14.2223 10.416 13.5002 10.416 11.6669C10.416 10.2779 11.4715 9.16686 13.1381 8.9446V7.66686C13.1937 7.389 13.3604 7.22233 13.5827 7.22233H14.416C14.6938 7.27793 14.8604 7.4446 14.8604 7.66686V9.0002C16.1381 9.11126 17.1381 10.0557 17.3604 11.2779V11.3335C17.3604 11.5557 17.1937 11.7223 16.9715 11.7223H16.0827C15.916 11.7223 15.7493 11.6113 15.6937 11.4446C15.416 10.6113 14.8604 10.2779 13.8604 10.2779C12.7493 10.2779 12.1937 10.7778 12.1937 11.5557C12.1937 12.3335 12.5271 12.7779 14.1937 13.0002Z" fill="white"/>
</svg>
